<svg fill="none" height="35" viewBox="0 0 35 35" width="35" xmlns="http://www.w3.org/2000/svg"><path d="m19.4673 17.602 5.9477-5.9544c.5308-.5313.5308-1.3741 0-1.90536-.5307-.53132-1.3725-.53132-1.9032 0l-5.9477 5.95436-5.9478-5.93604c-.5124-.53132-1.3725-.53132-1.88493 0-.53072.53134-.53072 1.37404 0 1.90544l5.92943 5.936-5.92943 5.9544c-.53072.5313-.53072 1.3741 0 1.9054.25621.2565.60393.3847.93333.3847s.6954-.1282.9516-.403l5.9478-5.9361 5.9477 5.9544c.2562.2565.6039.4031.9516.4031s.6954-.1283.9516-.4031c.5308-.5313.5308-1.3741 0-1.9054z" fill="#fff"/><circle cx="17.5" cy="17.5" r="16.5" stroke="#fff" stroke-width="2"/></svg>