<svg width="240" height="33" viewBox="0 0 240 33" fill="none" xmlns="http://www.w3.org/2000/svg">
<path d="M82.8276 24.3423C82.5266 22.9849 82.6152 21.5744 82.7627 20.1875C82.7922 19.8983 82.8453 19.5678 83.0932 19.3967C83.2761 19.2669 83.5239 19.261 83.7541 19.2551C84.3737 19.2492 84.9875 19.2432 85.6071 19.2373C85.5186 19.2314 85.4301 19.2255 85.3474 19.2314C84.4091 19.2374 83.4708 19.2492 82.5325 19.2551C82.3024 19.2551 82.0604 19.2669 81.8716 19.3967C81.6237 19.5678 81.5706 19.8983 81.5411 20.1875C81.3936 21.5685 81.3051 22.979 81.606 24.3423C81.907 25.6997 82.6388 27.0217 83.8426 27.7889C84.8104 28.4027 85.9966 28.6152 87.1591 28.6683C87.5368 28.686 87.9145 28.686 88.2922 28.6624C87.165 28.6034 86.0143 28.385 85.0701 27.7889C83.8603 27.0217 83.1286 25.7056 82.8276 24.3423Z" fill="#8A2611"/>
<path d="M92.3876 11.2525C92.2696 11.1522 92.2578 10.981 92.2637 10.8276C92.2932 10.1253 92.5115 9.43476 92.4584 8.73246C92.4053 8.03015 91.945 7.27473 91.2191 7.20981C90.9595 7.18621 90.7234 7.26294 90.511 7.39277C90.93 7.67015 91.1955 8.21311 91.2309 8.73246C91.284 9.43476 91.0657 10.1253 91.0362 10.8276C91.0303 10.981 91.0421 11.1522 91.1601 11.2525C91.2545 11.3351 91.3962 11.3469 91.526 11.3587C92.181 11.3941 92.8302 11.4118 93.4852 11.4118C93.7331 11.4118 93.9809 11.4059 94.2347 11.4C93.739 11.3941 93.2433 11.3882 92.7476 11.3587C92.6295 11.3469 92.4879 11.3351 92.3876 11.2525Z" fill="#8A2611"/>
<path d="M89.307 24.1951C89.5785 24.1302 89.8086 23.9591 89.9916 23.7584C90.3044 23.4102 90.4696 22.9499 90.5345 22.4896C90.7115 21.2738 90.4696 19.9577 89.9503 18.8482C88.829 16.4521 86.4449 14.8941 85.2824 12.5216C84.3264 10.5799 84.6096 8.02447 85.666 6.17133C86.7105 4.34771 88.6874 3.32081 90.7587 3.14966C88.2684 2.9431 85.6896 3.9877 84.4444 6.17133C83.3881 8.02447 83.1048 10.5799 84.0608 12.5216C85.2234 14.8941 87.6075 16.458 88.7287 18.8482C89.248 19.9577 89.49 21.2738 89.3129 22.4896C89.248 22.9499 89.0828 23.4043 88.77 23.7584C88.6638 23.8765 88.5458 23.9768 88.41 24.0535C88.6874 24.207 89.0002 24.2719 89.307 24.1951Z" fill="#8A2611"/>
<path d="M96.7606 27.0803C96.9081 26.2246 97.1323 25.3688 97.3094 24.519C97.6694 22.8075 98.0116 21.096 98.3421 19.3786C99.2568 14.6336 99.9236 9.85323 100.75 5.09645C100.844 4.43546 100.998 3.68593 101.576 3.35544C101.865 3.19019 102.213 3.16659 102.55 3.14888C103.028 3.12528 103.5 3.11347 103.978 3.10167C103.093 3.08987 102.213 3.10167 101.328 3.14888C100.992 3.16659 100.649 3.19019 100.354 3.35544C99.7761 3.68593 99.6227 4.44136 99.5283 5.09645C98.7021 9.85323 98.0293 14.6336 97.1206 19.3786C96.7901 21.096 96.4478 22.8075 96.0878 24.519C95.9108 25.3747 95.6865 26.2246 95.539 27.0803C95.4505 27.5938 95.5213 28.3787 96.0288 28.6561C96.4065 28.8626 96.8609 28.8568 97.2917 28.8449C97.4746 28.839 97.6517 28.8331 97.8346 28.8272C97.6281 28.8036 97.4333 28.7564 97.2504 28.6561C96.7429 28.3787 96.6721 27.5938 96.7606 27.0803Z" fill="#8A2611"/>
<path d="M196.238 27.0803C196.385 26.2246 196.61 25.3688 196.787 24.519C197.147 22.8075 197.489 21.096 197.819 19.3786C198.734 14.6336 199.401 9.85323 200.227 5.09645C200.322 4.43546 200.475 3.68593 201.053 3.35544C201.342 3.19019 201.691 3.16659 202.027 3.14888C202.505 3.12528 202.977 3.11347 203.455 3.10167C202.57 3.08987 201.691 3.10167 200.805 3.14888C200.469 3.16659 200.127 3.19019 199.832 3.35544C199.253 3.68593 199.1 4.44136 199.006 5.09645C198.179 9.85323 197.507 14.6336 196.598 19.3786C196.267 21.096 195.925 22.8075 195.565 24.519C195.388 25.3747 195.164 26.2246 195.016 27.0803C194.928 27.5938 194.999 28.3787 195.506 28.6561C195.884 28.8626 196.338 28.8568 196.769 28.8449C196.952 28.839 197.129 28.8331 197.312 28.8272C197.105 28.8036 196.911 28.7564 196.728 28.6561C196.226 28.3787 196.149 27.5938 196.238 27.0803Z" fill="#18828C"/>
<path d="M116.948 9.15744C116.96 8.59678 116.901 7.9476 116.435 7.62301C116.081 7.37514 115.591 7.42235 115.213 7.62301C115.68 7.9476 115.733 8.59678 115.727 9.15744C115.709 10.0899 115.638 11.0283 115.514 11.9548C116.535 12.126 117.574 12.185 118.613 12.1437C117.987 12.1201 117.361 12.0552 116.742 11.9548C116.866 11.0283 116.937 10.0958 116.948 9.15744Z" fill="#8A2611"/>
<path d="M114.098 23.7815C114.777 23.3684 115.184 22.6189 115.385 21.8575C115.585 21.0962 115.603 20.2995 115.691 19.5205C115.343 19.2018 114.6 19.6031 114.381 19.19C114.316 19.066 114.34 18.9244 114.364 18.7887C114.535 17.7618 114.706 16.7408 114.877 15.7139C114.901 15.5663 114.936 15.4011 115.048 15.3067C115.154 15.2181 115.302 15.2063 115.444 15.1945C115.88 15.165 116.311 15.1473 116.748 15.1414C115.904 15.1237 115.06 15.1414 114.222 15.1945C114.08 15.2063 113.933 15.2181 113.827 15.3067C113.709 15.407 113.679 15.5663 113.656 15.7139C113.484 16.7408 113.313 17.7618 113.142 18.7887C113.119 18.9244 113.101 19.0719 113.16 19.19C113.378 19.6031 114.122 19.2018 114.47 19.5205C114.381 20.3054 114.364 21.0962 114.163 21.8575C113.962 22.6189 113.555 23.3684 112.877 23.7815C112.753 23.8582 112.617 23.9113 112.481 23.9585C112.995 24.1356 113.62 24.0707 114.098 23.7815Z" fill="#8A2611"/>
<path d="M107.442 27.1216C106.722 26.2895 106.368 25.1917 106.261 24.1058C106.149 23.014 106.267 21.9222 106.391 20.8304C106.893 16.4808 107.542 12.1077 109.064 8.00007C109.873 5.81643 111.165 3.9928 113.532 3.37312C114.016 3.24328 114.517 3.17836 115.013 3.14295C114.104 3.08984 113.189 3.14295 112.31 3.37312C109.95 3.9928 108.657 5.81643 107.843 8.00007C106.315 12.1136 105.671 16.4808 105.17 20.8304C105.046 21.9163 104.928 23.014 105.04 24.1058C105.152 25.1976 105.506 26.2895 106.22 27.1216C106.964 27.9833 108.055 28.5144 109.183 28.7505C110.021 28.9275 110.876 28.9511 111.732 28.9039C111.283 28.8803 110.841 28.839 110.404 28.7505C109.277 28.5203 108.185 27.9892 107.442 27.1216Z" fill="#8A2611"/>
<path d="M136.346 3.95185C136.399 3.69217 136.47 3.42069 136.665 3.23773C136.83 3.08429 137.06 3.03708 137.296 3.01937C136.972 3.01347 136.653 3.00757 136.328 3.00757C136.016 3.00757 135.673 3.02527 135.443 3.23773C135.248 3.41479 135.183 3.69217 135.124 3.95185C134.369 7.46336 133.803 11.0162 133.413 14.5867C133.679 16.428 133.932 18.2753 134.186 20.1225C134.475 14.687 135.195 9.27518 136.346 3.95185Z" fill="#8A2611"/>
<path d="M131.601 28.2967C131.188 27.9426 131.082 27.3584 131.005 26.8213C130.309 22.2062 129.613 17.5851 128.916 12.97C128.781 14.5634 128.604 16.151 128.415 17.7386C128.869 20.7661 129.329 23.7937 129.784 26.8272C129.866 27.3643 129.973 27.9485 130.38 28.3026C130.657 28.5387 131.023 28.6331 131.383 28.698C132.074 28.8161 132.782 28.8515 133.484 28.7984C133.189 28.7807 132.9 28.7512 132.611 28.698C132.245 28.6272 131.873 28.5387 131.601 28.2967Z" fill="#8A2611"/>
<path d="M121.664 27.7241C122.478 23.1975 123.298 18.6709 124.124 14.1442C124.537 11.8839 124.951 9.61763 125.364 7.35727C125.564 6.27136 125.617 4.99659 125.989 3.95789C126.213 3.32641 126.774 3.14345 127.376 3.09624C127.128 3.09033 126.874 3.09034 126.627 3.08444C125.859 3.07264 125.051 3.16116 124.768 3.95789C124.396 4.99069 124.343 6.27136 124.142 7.35727C123.729 9.61763 123.31 11.8839 122.903 14.1442C122.077 18.6709 121.256 23.1975 120.442 27.7241C120.395 27.9779 120.359 28.2729 120.519 28.4795C120.696 28.7038 121.02 28.7215 121.304 28.7156C121.622 28.7097 121.947 28.7097 122.265 28.7038C122.059 28.6861 121.864 28.6329 121.74 28.4795C121.581 28.2729 121.622 27.9838 121.664 27.7241Z" fill="#8A2611"/>
<path d="M166.873 24.5602C166.696 24.3949 166.649 24.1294 166.613 23.8874C166.171 20.848 165.722 17.8086 165.28 14.7751C165.085 16.2211 164.89 17.667 164.69 19.1188C164.92 20.7123 165.156 22.2998 165.386 23.8933C165.421 24.1353 165.469 24.4008 165.646 24.5661C165.799 24.7136 166.023 24.7549 166.236 24.7844C166.779 24.8671 167.328 24.9202 167.876 24.9497C168.083 24.9615 168.295 24.9615 168.49 24.9025C168.148 24.873 167.8 24.8376 167.457 24.7844C167.257 24.7431 167.032 24.7018 166.873 24.5602Z" fill="#8A2611"/>
<path d="M172.568 28.2784C172.568 27.9715 172.609 27.6174 172.639 27.4699C173.123 24.6076 173.607 21.7511 174.096 18.8888C174.291 17.7262 174.492 16.5635 174.687 15.4009C174.061 16.6697 173.441 17.9386 172.816 19.2134C172.35 21.9636 171.883 24.7197 171.417 27.4699C171.394 27.6174 171.346 27.9715 171.346 28.2784C171.346 28.5676 171.394 28.8096 171.535 28.8096C171.665 28.8096 172.155 28.8096 172.757 28.8096C172.609 28.8155 172.568 28.5676 172.568 28.2784Z" fill="#8A2611"/>
<path d="M170.443 15.6958C172.521 11.8892 174.539 8.05306 176.581 4.22876C176.657 4.08122 176.74 3.93367 176.817 3.78022C176.923 3.57957 177.041 3.36711 177.23 3.23727C177.371 3.14284 177.543 3.10153 177.714 3.08383C177.861 3.08383 178.003 3.08382 178.15 3.07792C177.938 3.07792 177.726 3.07202 177.507 3.07202C177.165 3.07202 176.829 3.07792 176.486 3.07792C176.315 3.09563 176.144 3.13104 176.002 3.23137C175.813 3.36121 175.695 3.57367 175.589 3.77433C175.513 3.92187 175.43 4.06941 175.353 4.22285C173.341 7.98814 171.352 11.7711 169.31 15.5187C169.399 16.103 169.487 16.6873 169.57 17.2774C169.859 16.7463 170.154 16.221 170.443 15.6958Z" fill="#8A2611"/>
<path d="M158.363 27.4701C159.709 19.5263 161.06 11.5885 162.406 3.64482C162.435 3.48547 162.465 3.31432 162.589 3.20809C162.713 3.09596 162.896 3.09006 163.067 3.09006C163.964 3.08416 164.861 3.07826 165.758 3.06645C165.687 3.06055 165.61 3.06055 165.539 3.06055C164.306 3.07235 163.073 3.07825 161.839 3.09006C161.674 3.09006 161.491 3.09596 161.361 3.20809C161.237 3.31432 161.202 3.48547 161.178 3.64482C159.833 11.5885 158.482 19.5263 157.136 27.4701C157.089 27.7592 156.959 28.8097 157.254 28.8097C157.384 28.8097 157.874 28.8097 158.476 28.8097C158.186 28.8156 158.316 27.7592 158.363 27.4701Z" fill="#8A2611"/>
<path d="M191.647 13.0576C191.487 12.8746 191.464 12.615 191.47 12.373C191.487 11.7533 191.7 11.1572 191.859 10.5612C192.019 9.96509 192.143 9.3277 191.977 8.72573C191.812 8.12965 191.299 7.58079 190.673 7.56309C190.443 7.55719 190.219 7.628 190.018 7.73423C190.372 7.9467 190.644 8.31851 190.756 8.71983C190.921 9.3159 190.803 9.95329 190.638 10.5553C190.472 11.1513 190.266 11.7474 190.248 12.3671C190.242 12.6091 190.266 12.8628 190.425 13.0517C190.644 13.3055 191.021 13.3291 191.352 13.335C192.261 13.3527 193.163 13.3704 194.072 13.3881C194.184 13.3881 194.302 13.3881 194.415 13.3704C193.801 13.3586 193.187 13.3468 192.573 13.335C192.243 13.335 191.865 13.3055 191.647 13.0576Z" fill="#18828C"/>
<path d="M188.619 23.8353C189.091 23.5402 189.416 23.0563 189.658 22.5605C190.053 21.7579 190.295 20.8844 190.366 19.9933C190.401 19.5565 190.449 19.0254 190.85 18.8306C190.885 18.8129 190.921 18.8011 190.956 18.7952C190.708 18.7834 190.466 18.7716 190.218 18.7598C190.018 18.748 189.805 18.7421 189.622 18.8306C189.221 19.0254 189.174 19.5565 189.139 19.9933C189.068 20.8844 188.826 21.7579 188.43 22.5605C188.188 23.0563 187.87 23.5402 187.392 23.8353C187.327 23.8766 187.262 23.9061 187.191 23.9356C187.628 24.1658 188.2 24.095 188.619 23.8353Z" fill="#18828C"/>
<path d="M182.576 27.204C181.78 26.242 181.632 24.92 181.609 23.6748C181.55 20.4701 182.087 17.2891 182.694 14.1435C183.166 11.6943 183.68 9.23327 184.612 6.91389C185.055 5.81618 185.621 4.71256 186.601 4.03386C187.392 3.49091 188.366 3.28434 189.327 3.18991C189.581 3.16631 189.835 3.15451 190.089 3.14861C189.428 3.1191 188.767 3.1309 188.106 3.18991C187.15 3.28434 186.17 3.49091 185.379 4.03386C184.4 4.70666 183.827 5.81618 183.391 6.91389C182.458 9.23327 181.945 11.6943 181.473 14.1435C180.865 17.2891 180.328 20.4701 180.387 23.6748C180.411 24.9141 180.558 26.242 181.355 27.204C182.665 28.7797 185.238 28.9391 187.156 28.9155C187.215 28.9155 187.274 28.9096 187.333 28.9037C185.604 28.8388 183.656 28.5024 182.576 27.204Z" fill="#18828C"/>
<path d="M207.651 27.6349C208.884 21.1312 210.118 14.6334 211.351 8.12969C210.153 8.11788 208.961 8.10607 207.763 8.09427C207.58 8.09427 207.38 8.08247 207.256 7.94673C207.132 7.80508 207.144 7.59263 207.167 7.40968C207.303 6.37688 207.486 5.34407 207.716 4.32307C207.964 3.22535 208.176 3.0306 209.292 3.0188C208.914 3.0188 208.536 3.0188 208.164 3.0188C206.966 3.0188 206.748 3.19585 206.494 4.32307C206.264 5.34407 206.081 6.37097 205.946 7.40968C205.922 7.59853 205.904 7.81099 206.034 7.94673C206.158 8.08247 206.359 8.09427 206.542 8.09427C207.74 8.10607 208.932 8.11788 210.13 8.12969C208.896 14.6334 207.663 21.1312 206.429 27.6349C206.376 27.9122 206.335 28.2309 206.53 28.4375C206.701 28.6204 206.978 28.6322 207.226 28.6263C207.557 28.6263 207.893 28.6204 208.223 28.6204C208.046 28.6086 207.869 28.5673 207.751 28.4375C207.563 28.2309 207.598 27.9122 207.651 27.6349Z" fill="#18828C"/>
<path d="M216.585 8.10697C217.258 8.11286 217.937 8.11287 218.61 8.11876C218.663 8.11876 218.716 8.11876 218.763 8.11286C218.037 8.10696 217.311 8.10697 216.585 8.10107C216.591 8.10107 216.585 8.10697 216.585 8.10697Z" fill="#18828C"/>
<path d="M231.994 3.99341C232.123 3.71603 232.265 3.42685 232.519 3.24979C232.778 3.06684 233.109 3.04323 233.422 3.03733C233.038 3.03143 232.654 3.02553 232.271 3.03733C231.935 3.04323 231.569 3.06094 231.291 3.25569C231.038 3.43274 230.896 3.72193 230.766 3.99931C229.887 5.87015 229.002 7.73509 228.122 9.60593C228.223 10.261 228.317 10.9161 228.417 11.5712C229.609 9.04526 230.801 6.51934 231.994 3.99341Z" fill="#18828C"/>
<path d="M143.41 27.4937C142.412 26.6202 141.887 25.31 141.722 23.994C141.557 22.6779 141.722 21.35 141.899 20.0339C142.212 17.75 142.572 15.4719 142.961 13.1997C143.156 12.0666 143.351 10.9335 143.557 9.80033C143.817 8.40753 144.071 7.02063 144.33 5.62783C144.478 4.82519 144.625 4.02256 144.779 3.21993C144.785 3.18452 144.791 3.15501 144.814 3.1314C144.814 3.1314 144.82 3.1314 144.826 3.1255C144.856 3.10779 144.885 3.10189 144.921 3.10779C145.475 3.11369 146.036 3.10779 146.591 3.10779C146.897 3.09599 147.204 3.10189 147.511 3.10189C147.44 3.10189 147.375 3.09599 147.305 3.09599C146.661 3.07828 146.012 3.08419 145.369 3.10779C144.814 3.10779 144.254 3.11369 143.699 3.10779C143.664 3.10779 143.634 3.10779 143.605 3.1255C143.599 3.1255 143.599 3.1255 143.593 3.1314C143.569 3.15501 143.563 3.19042 143.557 3.21993C143.41 4.02256 143.262 4.82519 143.115 5.62783C142.855 7.02063 142.601 8.40753 142.342 9.80033C142.141 10.9335 141.94 12.0666 141.746 13.1997C141.356 15.4719 140.996 17.75 140.683 20.0339C140.506 21.3441 140.341 22.6779 140.506 23.994C140.672 25.31 141.197 26.6261 142.194 27.4937C142.218 27.5114 142.241 27.5291 142.265 27.5468C143.622 28.6799 145.546 28.8452 147.322 28.8098C147.411 28.8098 147.505 28.8039 147.594 28.798C146.107 28.7507 144.602 28.4793 143.481 27.5409C143.457 27.5291 143.433 27.5114 143.41 27.4937Z" fill="#8A2611"/>
<path d="M149.889 23.0382C150.603 22.3064 150.816 21.244 151.005 20.2408C152.055 14.5692 153.105 8.89176 154.156 3.21431C154.162 3.1789 154.168 3.14939 154.191 3.12578C154.191 3.12578 154.197 3.12578 154.203 3.11988C154.233 3.10218 154.262 3.09628 154.297 3.10218C155.448 3.11398 156.605 3.10217 157.756 3.09037C157.691 3.08447 157.626 3.08447 157.561 3.08447C156.068 3.09037 154.569 3.11398 153.076 3.10218C153.041 3.10218 153.011 3.10218 152.982 3.11988C152.976 3.11988 152.976 3.11988 152.97 3.12578C152.946 3.14939 152.94 3.1848 152.934 3.21431C151.884 8.89176 150.833 14.5633 149.783 20.2408C149.6 21.244 149.382 22.3064 148.668 23.0382C148.438 23.2742 148.137 23.4454 147.812 23.5457C148.473 23.8054 149.364 23.5811 149.889 23.0382Z" fill="#8A2611"/>
<path d="M96.7364 6.17687C96.3351 5.09095 95.3968 4.2234 94.3287 3.74536C93.2193 3.24962 91.9741 3.05486 90.7643 3.15519C88.693 3.32634 86.7161 4.34734 85.6715 6.17687C84.6093 8.03 84.332 10.5854 85.288 12.5271C86.4505 14.8996 88.8346 16.4636 89.9559 18.8537C90.4752 19.9633 90.7171 21.2793 90.5401 22.4951C90.4752 22.9554 90.3099 23.4099 89.9972 23.764C89.8142 23.9705 89.5782 24.1358 89.3126 24.2007C89.0058 24.2774 88.693 24.2125 88.4156 24.0591C88.2268 23.9587 88.0557 23.8112 87.9258 23.6459C87.6131 23.2328 87.5068 22.7017 87.5009 22.1882C87.4891 21.4564 87.6603 20.7187 87.5541 19.9869C87.5186 19.7567 87.4419 19.5088 87.2531 19.3731C87.0643 19.2374 86.8105 19.2374 86.5803 19.2374C86.2617 19.2374 85.9371 19.2433 85.6184 19.2433C84.9988 19.2492 84.3851 19.2551 83.7654 19.261C83.5353 19.261 83.2933 19.2728 83.1045 19.4026C82.8626 19.5738 82.8035 19.9042 82.774 20.1934C82.6265 21.5744 82.538 22.9849 82.8389 24.3482C83.1399 25.7056 83.8717 27.0276 85.0755 27.7948C86.0197 28.3968 87.1705 28.6093 88.2976 28.6683C88.3271 28.6683 88.3566 28.6742 88.3861 28.6742C91.1479 28.804 93.9628 27.9365 95.0959 25.3043C95.5916 24.1476 95.7273 22.8728 95.6978 21.6217C95.686 21.0079 95.627 20.3941 95.5267 19.7862C95.3437 18.7298 95.0132 17.6911 94.4821 16.7527C93.5851 15.1593 92.1098 13.973 90.9886 12.5389C90.1211 11.4353 89.4425 10.0661 89.6903 8.6969C89.7847 8.18345 90.0916 7.6582 90.5224 7.39263C90.7348 7.26279 90.9709 7.18606 91.2305 7.20967C91.9564 7.27458 92.4167 8.03 92.4698 8.73231C92.5229 9.43461 92.3046 10.1251 92.2751 10.8274C92.2692 10.9809 92.281 11.152 92.399 11.2523C92.4934 11.335 92.635 11.3468 92.7649 11.3586C93.2606 11.3881 93.7563 11.394 94.252 11.3999C94.4113 11.3999 94.5707 11.4117 94.73 11.4117C95.0191 11.4117 95.3083 11.4058 95.5975 11.394C95.8748 11.3822 96.1758 11.4117 96.4295 11.2759C96.7128 11.1225 96.8544 10.7979 96.9016 10.491C97.1141 9.10412 97.238 7.52836 96.7364 6.17687Z" fill="url(#paint0_linear)"/>
<path d="M106.332 3.19641C106.226 3.11968 106.078 3.11378 105.948 3.10788C105.293 3.09017 104.638 3.09017 103.983 3.10198C103.505 3.10788 103.033 3.11968 102.555 3.14919C102.219 3.1669 101.877 3.1905 101.581 3.35575C101.003 3.68624 100.85 4.44167 100.755 5.09676C99.9291 9.85354 99.2623 14.6339 98.3476 19.3789C98.0171 21.0963 97.6749 22.8078 97.3149 24.5193C97.1378 25.3751 96.9136 26.2249 96.7661 27.0807C96.6775 27.5941 96.7484 28.379 97.2559 28.6564C97.4388 28.7567 97.6335 28.8039 97.8401 28.8276C98.0643 28.8512 98.2945 28.8512 98.5187 28.8453C99.4275 28.8157 100.336 28.7922 101.239 28.7626C101.511 28.7567 101.806 28.7331 101.989 28.5384C102.124 28.3967 102.16 28.1902 102.195 27.9954C103.423 21.0609 104.656 14.1323 105.884 7.19777C106.078 6.10005 106.273 5.00233 106.468 3.90461C106.515 3.65674 106.539 3.34395 106.332 3.19641Z" fill="url(#paint1_linear)"/>
<path d="M205.81 3.19641C205.704 3.11968 205.556 3.11378 205.426 3.10788C204.771 3.09017 204.116 3.09017 203.461 3.10198C202.983 3.10788 202.511 3.11968 202.033 3.14919C201.697 3.1669 201.354 3.1905 201.059 3.35575C200.481 3.68624 200.328 4.44167 200.233 5.09676C199.407 9.85354 198.734 14.6339 197.825 19.3789C197.495 21.0963 197.153 22.8078 196.793 24.5193C196.616 25.3751 196.391 26.2249 196.244 27.0807C196.155 27.5941 196.226 28.379 196.734 28.6564C196.911 28.7567 197.111 28.8039 197.318 28.8276C197.542 28.8512 197.772 28.8512 197.997 28.8453C198.905 28.8157 199.814 28.7922 200.717 28.7626C200.988 28.7567 201.284 28.7331 201.466 28.5384C201.602 28.3967 201.638 28.1902 201.673 27.9954C202.9 21.0609 204.134 14.1323 205.361 7.19777C205.556 6.10005 205.751 5.00233 205.946 3.90461C205.993 3.65674 206.016 3.34395 205.81 3.19641Z" fill="url(#paint2_linear)"/>
<path d="M120.466 4.20577C119.899 3.82806 119.226 3.63921 118.56 3.49167C117.397 3.22609 116.199 3.07264 115.013 3.14346C114.511 3.17297 114.016 3.24379 113.532 3.37363C111.171 3.99331 109.879 5.81695 109.064 8.00058C107.536 12.1141 106.893 16.4813 106.391 20.8309C106.267 21.9168 106.149 23.0145 106.261 24.1064C106.373 25.1982 106.727 26.29 107.442 27.1221C108.185 27.9838 109.277 28.5149 110.404 28.751C110.841 28.8454 111.289 28.8868 111.732 28.9045C112.434 28.9399 113.142 28.9045 113.844 28.8336C115.149 28.7038 116.512 28.4323 117.485 27.5648C118.323 26.8153 118.748 25.7293 119.091 24.6729C120.076 21.6453 120.643 18.482 120.772 15.3069C119.433 15.1594 118.087 15.1003 116.742 15.1299C116.305 15.1417 115.874 15.1594 115.438 15.183C115.302 15.1948 115.149 15.2066 115.042 15.2951C114.924 15.3954 114.895 15.5548 114.871 15.7023C114.7 16.7292 114.529 17.7502 114.358 18.7771C114.334 18.9128 114.317 19.0604 114.376 19.1784C114.594 19.5915 115.337 19.1902 115.686 19.5089C115.597 20.2939 115.579 21.0847 115.379 21.846C115.178 22.6073 114.771 23.3568 114.092 23.77C113.614 24.0591 112.989 24.13 112.475 23.947C112.257 23.8703 112.05 23.7523 111.891 23.5752C111.448 23.0854 111.413 22.3713 111.437 21.7162C111.478 20.5535 111.637 19.3968 111.82 18.2519C112.157 16.1272 112.587 14.0144 113.107 11.9252C113.384 10.8098 113.691 9.68847 114.246 8.67927C114.464 8.27796 114.735 7.88844 115.125 7.65237C115.149 7.63467 115.178 7.62877 115.202 7.61696C115.585 7.41631 116.075 7.36909 116.423 7.61696C116.889 7.94156 116.943 8.59075 116.937 9.15141C116.919 10.0839 116.848 11.0223 116.724 11.9488C117.344 12.0492 117.969 12.1141 118.595 12.1377C119.262 12.1672 119.929 12.1495 120.595 12.0964C121.191 12.0432 121.386 11.5003 121.463 10.8983C121.522 10.4557 121.516 9.97765 121.563 9.64716C121.829 7.90615 122.183 5.35071 120.466 4.20577Z" fill="url(#paint3_linear)"/>
<path d="M141.273 3.2135C141.155 3.11317 140.99 3.10136 140.837 3.09546C139.739 3.03054 138.641 3.00693 137.544 3.01284C137.461 3.01284 137.373 3.01874 137.284 3.02464C137.054 3.04235 136.824 3.08956 136.653 3.243C136.458 3.42005 136.393 3.69744 136.334 3.95711C135.189 9.28046 134.463 14.6923 134.174 20.1278C133.92 18.2806 133.672 16.4392 133.401 14.592C132.876 10.9743 132.292 7.36241 131.53 3.79187C131.495 3.62072 131.454 3.43777 131.324 3.31383C131.164 3.15448 130.911 3.14268 130.686 3.13678C129.742 3.11907 128.792 3.10727 127.848 3.08956C127.689 3.08956 127.535 3.08956 127.376 3.10137C126.768 3.14268 126.213 3.32563 125.989 3.96301C125.617 4.99581 125.564 6.27649 125.364 7.36241C124.95 9.62277 124.531 11.889 124.124 14.1494C123.298 18.676 122.478 23.2026 121.663 27.7292C121.616 27.983 121.581 28.2781 121.74 28.4847C121.864 28.644 122.059 28.6912 122.265 28.7089C122.354 28.7148 122.442 28.7207 122.525 28.7207C123.717 28.7089 124.909 28.6971 126.101 28.6853C126.249 28.6853 126.408 28.6794 126.532 28.5909C126.674 28.4847 126.715 28.3017 126.75 28.1306C127.441 24.6898 127.984 21.2255 128.409 17.7435C128.603 16.156 128.774 14.5684 128.91 12.9749C129.607 17.5901 130.303 22.2111 130.999 26.8263C131.082 27.3633 131.188 27.9476 131.595 28.3017C131.873 28.5378 132.238 28.6322 132.598 28.6971C132.888 28.7502 133.183 28.7797 133.472 28.7974C134.109 28.8388 134.758 28.8151 135.39 28.7148C135.791 28.6499 136.204 28.5496 136.505 28.2781C136.895 27.924 137.013 27.3692 137.113 26.8499C138.517 19.3488 139.916 11.8477 141.321 4.34663C141.344 4.21089 141.368 4.08105 141.397 3.94531C141.444 3.68563 141.474 3.37875 141.273 3.2135Z" fill="url(#paint4_linear)"/>
<path d="M179.956 3.07789C179.732 3.07789 179.507 3.07202 179.283 3.07202C179.218 3.07202 179.153 3.07789 179.083 3.07789C179.177 3.07789 179.271 3.07789 179.372 3.07789C179.566 3.07789 179.761 3.07789 179.956 3.07789Z" fill="#BF3814"/>
<path d="M181.549 3.16054C181.52 3.14284 181.49 3.12514 181.455 3.11334C181.378 3.10153 181.307 3.09562 181.231 3.09562C180.611 3.08972 179.991 3.08383 179.372 3.08383C179.224 3.08383 179.083 3.08382 178.935 3.08973C178.982 3.08382 179.035 3.08383 179.083 3.08383C178.965 3.08383 178.847 3.08383 178.729 3.08383C178.534 3.08383 178.339 3.08973 178.144 3.08973C177.997 3.08973 177.855 3.08972 177.708 3.09562C177.537 3.11333 177.365 3.14875 177.224 3.24907C177.035 3.37891 176.917 3.59137 176.811 3.79203C176.734 3.93957 176.651 4.08711 176.575 4.24056C174.533 8.06487 172.515 11.901 170.437 15.7076C170.148 16.2387 169.859 16.764 169.57 17.2892C169.481 16.705 169.393 16.1207 169.31 15.5305C168.726 11.6236 168.148 7.71667 167.563 3.80974C167.528 3.57367 167.475 3.30809 167.28 3.17235C167.133 3.07202 166.944 3.07202 166.767 3.07202C166.43 3.07202 166.094 3.07792 165.758 3.07792C164.861 3.08382 163.964 3.08973 163.067 3.10153C162.901 3.10153 162.718 3.10743 162.589 3.21956C162.465 3.3258 162.435 3.49695 162.406 3.65629C161.06 11.6 159.709 19.5378 158.363 27.4815C158.316 27.7707 158.186 28.8212 158.481 28.8212C159.768 28.8212 161.603 28.8212 161.745 28.8212C162.394 28.8212 162.901 28.8212 162.966 28.8212C163.373 28.8212 163.497 27.9241 163.539 27.6349C163.922 24.7962 164.306 21.9575 164.695 19.1188C164.89 17.6729 165.085 16.2269 165.285 14.7751C165.728 17.8145 166.177 20.8539 166.619 23.8874C166.655 24.1293 166.702 24.3949 166.879 24.5601C167.032 24.7077 167.257 24.749 167.469 24.7785C167.811 24.8316 168.154 24.867 168.502 24.8965C168.702 24.9142 168.909 24.932 169.11 24.9438C169.381 24.9556 169.664 24.9615 169.894 24.8198C170.125 24.6782 170.254 24.4303 170.372 24.1883C171.187 22.53 172.001 20.8716 172.81 19.2132C173.435 17.9443 174.055 16.6755 174.68 15.4007C174.486 16.5633 174.285 17.726 174.09 18.8886C173.606 21.7509 173.122 24.6074 172.633 27.4697C172.609 27.6172 172.562 27.9713 172.562 28.2782C172.562 28.5674 172.609 28.8094 172.751 28.8094C174.037 28.8094 175.872 28.8094 176.014 28.8094C176.663 28.8094 177.171 28.8094 177.236 28.8094C177.643 28.8094 177.767 27.9123 177.808 27.6231C178.044 25.8762 178.28 24.1352 178.516 22.3883C178.906 20.1634 179.295 17.9384 179.69 15.7135C180.186 12.8748 180.688 10.0419 181.183 7.20322C181.39 6.04058 181.591 4.87795 181.797 3.72121C181.803 3.69761 181.803 3.674 181.809 3.64449C181.768 3.45563 181.709 3.26677 181.549 3.16054Z" fill="url(#paint5_linear)"/>
<path d="M179.372 3.08447C179.278 3.08447 179.183 3.08447 179.083 3.08447C179.036 3.08447 178.983 3.08447 178.935 3.09037C179.083 3.08447 179.23 3.08447 179.372 3.08447Z" fill="#BF3814"/>
<path d="M179.372 3.08447C179.278 3.08447 179.183 3.08447 179.083 3.08447C179.036 3.08447 178.983 3.08447 178.935 3.09037C179.083 3.08447 179.23 3.08447 179.372 3.08447Z" fill="url(#paint6_linear)"/>
<path d="M196.846 7.03868C196.787 6.25375 196.657 5.44522 196.185 4.81373C195.6 4.0288 194.597 3.6688 193.629 3.45634C192.467 3.19666 191.269 3.10224 190.077 3.15535C189.823 3.16716 189.569 3.17306 189.316 3.19667C188.36 3.2911 187.38 3.49765 186.589 4.04061C185.61 4.71341 185.037 5.82293 184.6 6.92065C183.668 9.24002 183.155 11.701 182.683 14.1502C182.075 17.2959 181.538 20.4769 181.597 23.6815C181.62 24.9209 181.768 26.2488 182.565 27.2107C183.644 28.5091 185.592 28.8455 187.315 28.9104C187.675 28.9222 188.029 28.9222 188.365 28.9222C190.46 28.8927 192.467 28.2081 193.629 26.3963C194.898 24.4251 195.229 21.9523 195.376 19.6683C195.394 19.4441 195.388 19.1844 195.211 19.0428C195.158 19.0014 195.093 18.9719 195.028 18.9601C194.945 18.9424 194.863 18.9365 194.78 18.9306C193.665 18.8775 192.549 18.8303 191.434 18.7772C191.269 18.7713 191.104 18.7654 190.944 18.8126C190.909 18.8244 190.874 18.8362 190.838 18.848C190.437 19.0428 190.39 19.5739 190.354 20.0106C190.283 20.9018 190.041 21.7753 189.646 22.5779C189.404 23.0736 189.085 23.5576 188.607 23.8527C188.183 24.1123 187.616 24.1831 187.185 23.953C187.132 23.9235 187.079 23.894 187.032 23.8585C186.483 23.4395 186.471 22.6369 186.518 21.9464C186.831 17.7621 187.663 13.625 188.855 9.59412C188.991 9.12789 189.139 8.65575 189.428 8.26624C189.581 8.05968 189.782 7.87673 190.006 7.75279C190.207 7.64066 190.431 7.56983 190.661 7.58164C191.287 7.59934 191.806 8.1423 191.965 8.74427C192.13 9.34035 192.012 9.97773 191.847 10.5797C191.682 11.1817 191.475 11.7718 191.458 12.3915C191.452 12.6335 191.475 12.8873 191.635 13.0761C191.853 13.3299 192.231 13.3535 192.561 13.3594C193.175 13.3712 193.789 13.383 194.402 13.3948C194.698 13.4007 194.987 13.4066 195.282 13.4125C195.494 13.4184 195.73 13.4125 195.901 13.2827C196.037 13.1765 196.096 13.0053 196.149 12.8401C196.757 10.9633 196.987 8.98625 196.846 7.03868Z" fill="url(#paint7_linear)"/>
<path d="M221.1 3.08953C220.97 3.08953 220.846 3.08363 220.716 3.08363C216.939 3.03642 213.163 3.01281 209.386 3.01871C209.35 3.01871 209.327 3.01871 209.291 3.01871C208.182 3.03052 207.964 3.22527 207.716 4.32299C207.486 5.34398 207.303 6.37089 207.167 7.40959C207.143 7.59844 207.126 7.8109 207.256 7.94664C207.379 8.08238 207.58 8.09418 207.763 8.09418C208.961 8.10598 210.153 8.11779 211.351 8.1296C210.118 14.6333 208.884 21.1311 207.651 27.6348C207.598 27.9121 207.556 28.2308 207.751 28.4374C207.869 28.5672 208.04 28.6085 208.223 28.6203C208.3 28.6262 208.377 28.6262 208.448 28.6262C209.587 28.6144 210.731 28.6085 211.87 28.5967C212.083 28.5967 212.319 28.5849 212.478 28.4433C212.626 28.3134 212.673 28.1069 212.708 27.918C214.001 21.314 215.299 14.7041 216.591 8.10009V8.09418C217.317 8.10008 218.043 8.10008 218.769 8.10599C219.123 8.10599 219.483 8.11188 219.837 8.11188C219.985 8.11188 220.144 8.10598 220.25 8.01156C220.344 7.92893 220.38 7.805 220.409 7.68697C220.71 6.49482 220.911 5.27316 221.029 4.04561C221.023 3.98659 221.011 3.92758 221.005 3.86856C220.982 3.6679 220.976 3.44363 221.088 3.29019C221.088 3.23117 221.1 3.16035 221.1 3.08953Z" fill="url(#paint8_linear)"/>
<path d="M221.005 3.88087C221.011 3.93988 221.023 3.9989 221.029 4.05792C221.053 3.81005 221.07 3.55627 221.088 3.30249C220.976 3.45594 220.982 3.6802 221.005 3.88087Z" fill="#18828C"/>
<path d="M223.413 28.5914C223.189 28.5914 222.941 28.5796 222.793 28.4143C222.634 28.2373 222.664 27.9717 222.699 27.7357C223.006 25.7704 223.313 23.8051 223.744 21.8575C224.003 20.6831 224.316 19.5028 224.351 18.2988C224.393 17.0477 224.145 15.8024 223.909 14.5748C223.236 11.0279 222.675 7.46326 222.227 3.88092C222.197 3.63895 222.192 3.34977 222.392 3.20813C222.498 3.13731 222.634 3.13141 222.764 3.12551C223.637 3.1078 224.511 3.0901 225.384 3.07239C225.26 3.05469 225.136 3.05469 225.012 3.05469C223.856 3.07829 222.699 3.1019 221.542 3.12551C221.413 3.12551 221.277 3.13141 221.171 3.20813C221.135 3.23174 221.112 3.26715 221.088 3.30256C220.982 3.456 220.982 3.68617 221.005 3.88092C221.011 3.93994 221.023 3.99896 221.029 4.05798C221.472 7.5813 222.02 11.0928 222.687 14.5807C222.923 15.8142 223.171 17.0536 223.13 18.3047C223.089 19.5087 222.782 20.689 222.522 21.8635C222.091 23.8051 221.784 25.7704 221.477 27.7416C221.442 27.9717 221.413 28.2432 221.572 28.4203C221.719 28.5855 221.973 28.5973 222.192 28.5973C223.584 28.6032 224.983 28.6091 226.376 28.615V28.6091C225.39 28.5973 224.399 28.5973 223.413 28.5914Z" fill="#18828C"/>
<path d="M237.346 3.20844C237.269 3.18484 237.187 3.17303 237.104 3.17303C237.01 3.16713 236.909 3.17303 236.821 3.16123C236.455 3.12582 236.095 3.10221 235.729 3.07861C234.986 3.03729 234.236 3.02549 233.492 3.0373C233.469 3.0373 233.445 3.0373 233.422 3.0373C233.103 3.0432 232.773 3.07271 232.519 3.24976C232.265 3.42681 232.123 3.71599 231.994 3.99337C230.802 6.51931 229.609 9.04524 228.417 11.5653C228.317 10.9102 228.223 10.2551 228.122 9.6C227.839 7.68785 227.55 5.7816 227.267 3.86944C227.231 3.65108 227.196 3.415 227.037 3.25566C226.836 3.055 226.517 3.0491 226.234 3.055C225.951 3.0609 225.667 3.0668 225.378 3.07271C224.505 3.09041 223.631 3.10811 222.758 3.12582C222.628 3.12582 222.493 3.13172 222.386 3.20844C222.186 3.34418 222.192 3.63927 222.221 3.88124C222.664 7.46358 223.224 11.0282 223.903 14.5752C224.139 15.8086 224.387 17.048 224.346 18.2991C224.304 19.5031 223.997 20.6834 223.738 21.8579C223.307 23.7995 223 25.7648 222.693 27.736C222.658 27.9661 222.628 28.2376 222.788 28.4147C222.935 28.5799 223.189 28.5917 223.407 28.5917C224.393 28.5976 225.384 28.5976 226.37 28.6035C226.777 28.6035 227.184 28.6094 227.591 28.6094C228.335 25.7117 228.636 22.7018 229.568 19.8572C230.855 15.9384 233.28 12.5155 235.186 8.86229C235.729 7.81768 236.237 6.74948 236.697 5.66356C236.974 5.00257 237.234 4.33568 237.499 3.67468C237.535 3.59206 237.564 3.50353 237.547 3.42091C237.535 3.31467 237.446 3.23795 237.346 3.20844Z" fill="url(#paint9_linear)"/>
<path d="M159.261 3.1845C159.225 3.15499 159.184 3.13728 159.143 3.12548C159.031 3.08417 158.901 3.08417 158.777 3.08417C158.435 3.08417 158.092 3.09007 157.75 3.09007C156.599 3.10187 155.443 3.11368 154.292 3.10188C154.257 3.10188 154.227 3.10188 154.197 3.11958C154.192 3.11958 154.192 3.11958 154.186 3.12548C154.162 3.14909 154.156 3.1845 154.15 3.21401C153.1 8.89146 152.049 14.563 150.999 20.2405C150.816 21.2437 150.598 22.3061 149.884 23.0379C149.358 23.5749 148.467 23.7992 147.806 23.5454C147.57 23.4569 147.364 23.3093 147.21 23.0851C146.868 22.5834 146.915 21.9224 146.986 21.3146C147.488 16.9591 148.385 12.6627 149.164 8.3485C149.423 6.92029 149.665 5.48617 149.884 4.05205C149.954 3.56221 149.842 3.1845 149.347 3.11958C149.317 3.11368 149.288 3.10778 149.252 3.10778C149.01 3.09597 148.768 3.09007 148.52 3.08417C148.184 3.07827 147.842 3.09007 147.505 3.09007C147.199 3.09007 146.892 3.08417 146.585 3.09597C146.03 3.09597 145.47 3.10187 144.915 3.09597C144.879 3.09597 144.85 3.09598 144.82 3.11368C144.814 3.11368 144.814 3.11368 144.809 3.11958C144.785 3.14319 144.779 3.17859 144.773 3.2081C144.626 4.01074 144.478 4.81337 144.325 5.616C144.065 7.00881 143.811 8.39572 143.552 9.78852C143.351 10.9216 143.15 12.0548 142.956 13.1879C142.566 15.4601 142.206 17.7381 141.893 20.0221C141.716 21.3323 141.551 22.6661 141.716 23.9821C141.882 25.2982 142.407 26.6143 143.404 27.4819C143.428 27.4996 143.451 27.5173 143.475 27.535C144.596 28.4733 146.095 28.7389 147.588 28.792C147.907 28.8038 148.225 28.8097 148.538 28.8038C149.512 28.7861 150.509 28.7271 151.418 28.3789C152.946 27.8005 154.097 26.4668 154.811 24.9972C155.519 23.5218 155.85 21.8988 156.169 20.2936C156.865 16.7939 157.561 13.2941 158.258 9.79442C158.641 7.86456 159.025 5.9347 159.408 4.00484C159.467 3.72156 159.503 3.36155 159.261 3.1845Z" fill="url(#paint10_linear)"/>
<path d="M239.931 2.89562C239.754 2.08709 239.205 1.26085 238.509 0.806421C237.683 0.269365 236.432 0.204448 235.476 0.163136C233.735 0.0923158 231.675 -0.167362 230.164 0.889045C229.704 1.20774 229.374 1.58545 229.132 1.93365C228.996 1.70348 228.825 1.47331 228.607 1.25495C227.474 0.110016 226.045 0.13362 225.573 0.145423L222.747 0.204444L220.162 0.169035C216.367 0.121821 212.543 0.0982139 208.784 0.104116C207.875 0.104116 207.102 0.251659 206.459 0.546744C205.775 0.22215 205.149 0.198539 204.913 0.192638C203.709 0.157227 202.488 0.169035 201.272 0.233954C200.818 0.257561 199.879 0.304774 198.941 0.84183C198.209 1.26085 197.719 1.81562 197.377 2.39398C196.026 1.13102 194.314 0.747406 193.695 0.605765C191.966 0.222154 190.189 0.115918 188.425 0.287067C187.339 0.393298 185.722 0.652978 184.264 1.65627C184.093 1.7743 183.94 1.89824 183.792 2.02217C183.468 1.4202 183.043 1.02478 182.665 0.765105C182.465 0.629365 182.246 0.511333 181.998 0.416906L181.68 0.287067L181.343 0.233954C181.119 0.198544 180.883 0.180835 180.653 0.174933L179.791 0.169035C179.791 0.169035 178.228 0.157229 178.157 0.157229L177.089 0.163136L176.835 0.174933C176.109 0.239852 175.46 0.46412 174.905 0.84183C174.091 1.39659 173.701 2.1225 173.518 2.4707L173.282 2.91333C172.674 4.05236 172.067 5.19139 171.459 6.33632C171.187 6.84387 170.916 7.35732 170.644 7.87077L169.989 3.4799C169.812 2.28185 169.281 1.37299 168.414 0.771012C167.641 0.239858 166.797 0.133623 165.888 0.139525C164.761 0.145426 163.628 0.139524 162.501 0.157229C161.733 0.169032 160.984 0.328378 160.335 0.765105C160.093 0.605758 159.827 0.464122 159.544 0.363793C159.001 0.174938 158.517 0.151327 158.169 0.157229C157.697 0.157229 157.225 0.163133 156.753 0.169035C155.744 0.174937 154.735 0.186743 153.737 0.180841C153.306 0.163136 152.828 0.263459 152.421 0.4051C151.967 0.564446 151.607 0.889039 151.294 1.24314C151.082 0.82412 150.45 0.62347 150.043 0.458222C149.441 0.21035 148.822 0.22215 148.178 0.186739C147.299 0.133624 146.42 0.121816 145.535 0.145423C144.697 0.16903 143.811 0.139525 143.009 0.416906C142.755 0.505431 142.572 0.62937 142.371 0.806421C141.545 0.239857 140.707 0.18674 140.412 0.169035C139.256 0.104116 138.087 0.074611 136.925 0.0805128C136.199 0.0805128 135.479 0.245752 134.836 0.588052C134.245 0.900842 133.856 1.52643 133.13 1.53233C131.979 1.54413 131.088 0.47592 130.002 0.192638C128.38 -0.232286 126.473 0.104112 124.904 0.635266C124.231 0.865433 123.57 1.13101 122.903 1.39068C122.543 1.53233 122.036 1.82151 121.546 1.7802C120.555 1.12511 119.516 0.830026 118.625 0.629368C116.158 0.068705 114.04 0.0391943 112.145 0.534938C110.835 0.877238 109.684 1.48511 108.687 2.34086C108.362 1.53823 107.82 1.05429 107.501 0.824125C106.628 0.198544 105.725 0.17494 105.43 0.163136C104.226 0.127726 103.004 0.139525 101.788 0.204444C101.334 0.228051 100.396 0.275264 99.4575 0.81232C98.472 1.37298 97.9173 2.19332 97.5927 2.96054C96.8786 2.17562 95.9876 1.52053 94.9725 1.0661C90.3873 -0.987699 84.7516 0.670677 82.4088 4.76647C80.7741 7.6229 80.5853 11.2407 81.9308 13.985C82.3616 14.8584 82.8927 15.6256 83.4415 16.3161H83.1169C82.7274 16.322 81.6888 16.3279 80.721 17.0184C79.8004 17.6735 79.2575 18.665 79.1159 19.9811C78.9447 21.5923 78.8385 23.3274 79.2339 25.1215C79.7473 27.435 81.0161 29.3412 82.816 30.4861C84.1024 31.3065 85.6781 31.7491 87.6255 31.8435C87.8556 31.8553 88.0858 31.8612 88.31 31.8612C90.4758 31.8612 92.4055 31.3537 93.9634 30.4153C94.288 30.8343 94.6834 31.1884 95.1614 31.4481C96.0053 31.9203 96.8787 32.0029 97.8288 32.0088C99.7467 32.0147 102.178 32.2921 103.618 30.7458C104.114 30.2147 104.356 29.6304 104.521 29.2409C105.654 30.557 107.265 31.4658 109.171 31.8671C110.033 32.0501 110.882 32.1091 111.65 32.1091C112.369 32.1091 113.024 32.056 113.55 32.0029C115.066 31.8494 116.972 31.5071 118.572 30.256C118.46 30.3504 119.551 31.2534 119.652 31.3124C120.584 31.8907 121.611 31.8848 122.667 31.8848C123.629 31.8848 124.591 31.8671 125.553 31.8376C126.361 31.8081 127.087 31.6488 127.754 31.1589C128.108 30.8934 128.368 30.5983 128.568 30.3032C128.698 30.4507 128.84 30.5983 128.999 30.734C129.855 31.4717 130.823 31.7137 131.478 31.8258C132.133 31.938 132.794 31.997 133.449 31.997C134.062 31.997 134.67 31.9498 135.278 31.8494C135.986 31.7373 137.037 31.4894 137.951 30.6691C138.813 29.896 139.179 28.9458 139.368 28.2199C139.326 28.3792 139.922 28.993 140.04 29.1228C140.306 29.4297 140.595 29.7071 140.902 29.9727C141.516 30.5097 142.2 30.9229 142.956 31.2298C144.39 31.8199 145.954 31.9616 147.488 31.9793C148.987 31.9911 150.486 31.9025 151.902 31.3714C152.952 30.976 153.926 30.3445 154.776 29.5242C154.652 29.6481 155.207 30.5334 155.289 30.6573C155.508 30.9701 155.797 31.2357 156.115 31.4481C157.243 32.1917 158.606 31.997 159.886 31.997C160.713 31.997 161.539 31.997 162.365 31.997C164.123 31.997 165.363 30.6632 165.794 29.0402C165.9 28.6507 165.953 28.2553 166.006 27.8599C166.761 28.0015 167.57 28.1255 168.343 28.1255C168.473 28.1314 168.667 28.1432 168.909 28.1314C168.904 28.2258 168.904 28.3261 168.904 28.4264C168.921 31.0468 170.851 31.997 172.149 31.997H176.634C177.248 31.997 179.054 31.7904 179.886 29.5714C181.88 31.7019 184.955 32.1386 187.729 32.0914C189.753 32.056 191.765 31.5898 193.441 30.4153C193.766 30.8343 194.167 31.1943 194.639 31.454C195.548 31.9557 196.527 32.0324 197.536 32.0206C199.401 32.0029 201.697 32.2448 203.095 30.7458C203.709 30.0848 203.933 29.353 204.028 28.9104C204.181 29.6953 204.553 30.2619 204.907 30.6396C205.627 31.4127 206.607 31.8081 207.864 31.8081L211.286 31.7786C211.676 31.7727 212.868 31.7668 213.889 30.8639C214.821 30.0435 215.022 29.0166 215.099 28.6271L218.498 11.2879L219.212 11.2938C219.342 11.2938 219.465 11.2879 219.589 11.2761C219.79 12.4977 220.008 13.7194 220.233 14.9351C220.439 16.0446 220.722 17.1778 220.681 18.3168C220.628 19.8158 220.126 21.2913 219.843 22.7549C219.542 24.2893 219.306 25.8356 219.064 27.3818C218.864 28.6566 219.147 29.7307 219.902 30.5688C220.894 31.6724 222.215 31.755 223.602 31.7668C225.349 31.7786 227.096 31.7845 228.843 31.7963C229.415 31.8022 229.462 31.5189 229.574 31.0114C229.645 30.6986 229.71 30.3858 229.793 30.073C230.005 29.235 230.206 28.391 230.395 27.5412C230.501 27.0572 230.589 26.5674 230.684 26.0776C230.713 25.9359 230.737 25.8002 230.766 25.6585C231.085 23.9825 231.386 22.4008 231.87 20.9195C232.649 18.5411 233.953 16.2925 235.328 13.9082C235.989 12.7692 236.668 11.5948 237.299 10.3849C237.972 9.09243 238.586 7.71732 239.152 6.35403C239.618 5.26221 240.203 4.15269 239.931 2.89562ZM95.0906 25.3044C93.9575 27.9366 91.1426 28.8041 88.3808 28.6743C88.3513 28.6743 88.3218 28.6684 88.2923 28.6684C87.9146 28.692 87.537 28.692 87.1593 28.6743C86.0026 28.6212 84.8165 28.4087 83.8428 27.795C82.6389 27.0277 81.9072 25.7117 81.6062 24.3484C81.3052 22.991 81.3937 21.5804 81.5413 20.1935C81.5708 19.9044 81.6239 19.5739 81.8717 19.4027C82.0547 19.2729 82.3025 19.267 82.5327 19.2611C83.471 19.2552 84.4093 19.2434 85.3476 19.2375C85.4361 19.2375 85.5246 19.2375 85.6072 19.2434C85.9259 19.2434 86.2505 19.2375 86.5692 19.2375C86.8052 19.2375 87.059 19.2375 87.2419 19.3732C87.4366 19.5148 87.5133 19.7568 87.5429 19.987C87.6491 20.7188 87.4779 21.4565 87.4897 22.1883C87.4956 22.7018 87.6019 23.2329 87.9146 23.6461C88.0445 23.8172 88.2097 23.9588 88.4044 24.0592C88.5402 23.9766 88.6582 23.8762 88.7644 23.7641C89.0772 23.4159 89.2424 22.9555 89.3073 22.4952C89.4844 21.2795 89.2424 19.9634 88.7231 18.8539C87.6019 16.4578 85.2178 14.8997 84.0552 12.5272C83.0992 10.5856 83.3825 8.03011 84.4388 6.17698C85.6899 3.99334 88.2687 2.95464 90.7531 3.1553C91.9629 3.05497 93.2081 3.24973 94.3175 3.74547C95.3915 4.22351 96.3239 5.09106 96.7252 6.17698C97.2268 7.52257 97.1029 9.09833 96.8787 10.4911C96.8255 10.8039 96.6898 11.1226 96.4065 11.2761C96.1528 11.4118 95.8577 11.3823 95.5745 11.3941C95.2853 11.4059 94.9961 11.4118 94.707 11.4118C94.5476 11.4118 94.3883 11.4 94.229 11.4C93.9811 11.4059 93.7333 11.4118 93.4795 11.4118C92.8245 11.4118 92.1694 11.3941 91.5203 11.3587C91.3905 11.3528 91.2489 11.341 91.1544 11.2525C91.0364 11.1521 91.0246 10.981 91.0305 10.8275C91.06 10.1252 91.2784 9.43472 91.2252 8.73242C91.1839 8.21897 90.9243 7.67602 90.5053 7.39274C90.0745 7.66422 89.7676 8.18946 89.6732 8.69701C89.4254 10.0603 90.1099 11.4354 90.9715 12.539C92.0927 13.9731 93.568 15.1594 94.465 16.7529C94.9962 17.6971 95.3266 18.7299 95.5096 19.7863C95.6158 20.3942 95.6689 21.008 95.6807 21.6218C95.722 22.8729 95.5922 24.1477 95.0906 25.3044ZM102.196 27.9956C102.16 28.1904 102.119 28.391 101.989 28.5386C101.806 28.7333 101.505 28.7569 101.24 28.7628C100.331 28.7924 99.4221 28.816 98.5192 28.8455C98.295 28.8514 98.0648 28.8573 97.8405 28.8278C97.6576 28.8337 97.4806 28.8396 97.2976 28.8455C96.8668 28.8573 96.4124 28.8632 96.0348 28.6566C95.5273 28.3733 95.4564 27.5943 95.545 27.0809C95.6925 26.2251 95.9167 25.3694 96.0938 24.5195C96.4538 22.808 96.796 21.0965 97.1265 19.3791C98.0412 14.6341 98.708 9.85375 99.5342 5.09697C99.6286 4.43598 99.7821 3.68645 100.36 3.35596C100.65 3.19071 100.998 3.16711 101.334 3.1494C102.213 3.10219 103.099 3.09629 103.984 3.10219C104.639 3.09038 105.294 3.09038 105.949 3.10809C106.085 3.11399 106.226 3.11989 106.332 3.19662C106.539 3.34416 106.515 3.65695 106.474 3.91072C106.279 5.00844 106.085 6.10616 105.89 7.20388C104.657 14.1325 103.423 21.067 102.196 27.9956ZM119.085 24.6789C118.743 25.7353 118.318 26.8271 117.48 27.5707C116.512 28.4382 115.143 28.7097 113.839 28.8396C113.137 28.9104 112.428 28.9399 111.726 28.9104C110.871 28.9576 110.009 28.934 109.177 28.7569C108.05 28.5209 106.958 27.9897 106.214 27.1281C105.494 26.2959 105.14 25.1982 105.034 24.1123C104.922 23.0205 105.04 21.9287 105.164 20.8368C105.666 16.4873 106.315 12.1141 107.837 8.00651C108.646 5.82288 109.938 3.99925 112.305 3.37957C113.184 3.1494 114.099 3.09629 115.007 3.1494C116.188 3.07268 117.391 3.23202 118.554 3.4976C119.221 3.65105 119.894 3.834 120.46 4.21171C122.177 5.35074 121.823 7.90618 121.575 9.65308C121.528 9.98358 121.534 10.4616 121.475 10.9043C121.398 11.5062 121.204 12.0492 120.608 12.1023C119.941 12.1613 119.274 12.1731 118.607 12.1436C117.574 12.179 116.53 12.12 115.509 11.9548C115.639 11.0282 115.71 10.0957 115.721 9.15734C115.733 8.59668 115.674 7.9475 115.208 7.6229C115.184 7.63471 115.155 7.64651 115.131 7.65831C114.742 7.90028 114.47 8.28979 114.252 8.6852C113.697 9.6944 113.39 10.8157 113.113 11.9311C112.594 14.0204 112.163 16.1332 111.827 18.2578C111.644 19.4086 111.484 20.5595 111.443 21.7221C111.419 22.3772 111.455 23.0913 111.897 23.5811C112.057 23.7582 112.257 23.8762 112.482 23.9529C112.617 23.9057 112.753 23.8526 112.877 23.7759C113.556 23.3628 113.963 22.6132 114.163 21.8519C114.364 21.0906 114.382 20.2939 114.47 19.5149C114.122 19.1962 113.379 19.5975 113.16 19.1844C113.095 19.0604 113.119 18.9188 113.143 18.783C113.314 17.7561 113.485 16.7351 113.656 15.7082C113.68 15.5607 113.715 15.3955 113.827 15.301C113.933 15.2125 114.081 15.2007 114.222 15.1889C115.06 15.1358 115.904 15.1181 116.748 15.1358C118.094 15.1063 119.439 15.1653 120.779 15.3128C120.643 18.488 120.071 21.6513 119.085 24.6789ZM137.113 26.8448C137.019 27.3641 136.901 27.9189 136.506 28.273C136.205 28.5445 135.792 28.6448 135.39 28.7097C134.759 28.81 134.116 28.8337 133.472 28.7923C132.77 28.8455 132.068 28.81 131.372 28.692C131.012 28.6271 130.646 28.5386 130.368 28.2966C129.955 27.9425 129.849 27.3582 129.772 26.8212C129.312 23.7936 128.858 20.766 128.403 17.7325C127.984 21.2145 127.435 24.6788 126.745 28.1195C126.71 28.2907 126.668 28.4795 126.527 28.5799C126.409 28.6684 126.249 28.6743 126.096 28.6743C124.904 28.6861 123.712 28.6979 122.52 28.7097C122.431 28.7097 122.343 28.7097 122.26 28.6979C121.941 28.7038 121.617 28.7038 121.298 28.7097C121.015 28.7156 120.684 28.6979 120.513 28.4736C120.354 28.2671 120.389 27.9779 120.436 27.7182C121.251 23.1916 122.071 18.665 122.897 14.1384C123.31 11.878 123.723 9.61178 124.137 7.35142C124.337 6.2655 124.39 4.99074 124.762 3.95204C125.045 3.1553 125.854 3.06677 126.621 3.07858C126.869 3.08448 127.123 3.08448 127.37 3.09038C127.524 3.07858 127.683 3.07267 127.843 3.07858C128.787 3.09628 129.737 3.10809 130.681 3.12579C130.905 3.13169 131.159 3.1435 131.318 3.30284C131.442 3.42678 131.49 3.60973 131.525 3.78088C132.292 7.35732 132.87 10.9633 133.396 14.581C133.779 11.0105 134.352 7.45765 135.107 3.94613C135.16 3.68645 135.231 3.41498 135.426 3.23203C135.656 3.01956 135.998 3.00776 136.311 3.00186C136.635 3.00186 136.954 3.00775 137.279 3.01366C137.367 3.00775 137.45 3.00776 137.538 3.00186C138.636 2.99596 139.734 3.02547 140.831 3.08448C140.985 3.09038 141.15 3.10809 141.268 3.20252C141.469 3.36776 141.439 3.67465 141.392 3.92842C141.368 4.06416 141.345 4.19401 141.315 4.32974C139.922 11.8426 138.518 19.3437 137.113 26.8448ZM154.817 25.0093C154.103 26.4848 152.952 27.8127 151.424 28.391C150.509 28.7333 149.518 28.7983 148.544 28.816C148.231 28.8219 147.913 28.8159 147.594 28.8041C147.506 28.8041 147.411 28.8101 147.323 28.816C145.546 28.8455 143.623 28.6861 142.265 27.553C142.242 27.5353 142.218 27.5176 142.194 27.4999C141.197 26.6264 140.672 25.3162 140.507 24.0002C140.341 22.6841 140.507 21.3562 140.684 20.0401C140.996 17.7561 141.356 15.4781 141.746 13.2059C141.941 12.0728 142.135 10.9397 142.342 9.80653C142.602 8.41373 142.855 7.02682 143.115 5.63402C143.263 4.83139 143.41 4.02875 143.558 3.22612C143.564 3.19071 143.569 3.1612 143.593 3.1376C143.593 3.1376 143.599 3.1376 143.605 3.1317C143.634 3.11399 143.664 3.10809 143.699 3.11399C144.254 3.11989 144.815 3.11399 145.369 3.11399C146.013 3.09039 146.662 3.09038 147.305 3.10219C147.376 3.10219 147.441 3.10809 147.511 3.10809C147.848 3.10809 148.19 3.09629 148.526 3.10219C148.768 3.10809 149.01 3.11399 149.258 3.12579C149.294 3.12579 149.323 3.13169 149.353 3.1376C149.848 3.20252 149.966 3.57432 149.89 4.07007C149.677 5.50418 149.429 6.9383 149.17 8.36652C148.391 12.6807 147.494 16.9771 146.992 21.3326C146.921 21.9345 146.874 22.6014 147.216 23.1031C147.37 23.3214 147.576 23.469 147.812 23.5634C148.131 23.4631 148.438 23.2919 148.668 23.0559C149.382 22.3241 149.595 21.2618 149.783 20.2585C150.834 14.5869 151.884 8.90947 152.935 3.23203C152.941 3.19662 152.947 3.1671 152.97 3.14349C152.97 3.14349 152.976 3.1435 152.982 3.1376C153.011 3.11989 153.041 3.11399 153.076 3.11989C153.714 3.12579 154.351 3.11989 154.982 3.11989C155.154 3.11989 155.325 3.11989 155.496 3.11989C156.18 3.11399 156.871 3.10809 157.555 3.10219C157.62 3.10219 157.685 3.10218 157.75 3.10809C158.092 3.10809 158.435 3.10219 158.777 3.10219C158.901 3.10219 159.025 3.10218 159.143 3.14349C159.184 3.1553 159.225 3.17891 159.261 3.20252C159.497 3.37957 159.467 3.73957 159.408 4.02875C159.025 5.95861 158.641 7.88848 158.258 9.81834C157.561 13.3181 156.865 16.8178 156.169 20.3175C155.856 21.905 155.525 23.5339 154.817 25.0093ZM179.691 15.7201C179.302 17.945 178.912 20.1699 178.517 22.3949C178.281 24.1418 178.045 25.8828 177.809 27.6297C177.767 27.9189 177.643 28.816 177.236 28.816C177.165 28.816 176.658 28.816 176.015 28.816C175.879 28.816 174.044 28.816 172.751 28.816C172.143 28.816 171.659 28.816 171.53 28.816C171.388 28.816 171.347 28.5681 171.341 28.2848C171.341 27.9779 171.382 27.6238 171.412 27.4763C171.878 24.7261 172.344 21.97 172.81 19.2198C171.996 20.8781 171.181 22.5365 170.373 24.1949C170.255 24.4369 170.125 24.6907 169.895 24.8264C169.665 24.968 169.376 24.9621 169.11 24.9503C168.909 24.9385 168.703 24.9208 168.502 24.9031C168.307 24.9621 168.095 24.9621 167.888 24.9503C167.34 24.9208 166.791 24.8677 166.248 24.7851C166.035 24.7556 165.811 24.7143 165.658 24.5667C165.481 24.4015 165.434 24.1359 165.398 23.8939C165.168 22.3005 164.932 20.7129 164.702 19.1194C164.318 21.9582 163.935 24.7969 163.545 27.6356C163.504 27.9248 163.38 28.8218 162.973 28.8218C162.902 28.8218 162.394 28.8218 161.751 28.8218C161.615 28.8218 159.78 28.8218 158.488 28.8218C157.88 28.8218 157.396 28.8218 157.266 28.8218C156.971 28.8218 157.101 27.7654 157.148 27.4822C158.494 19.5385 159.845 11.6007 161.191 3.65695C161.22 3.4976 161.25 3.32645 161.374 3.22022C161.497 3.10809 161.68 3.10219 161.852 3.10219C163.085 3.09038 164.318 3.08448 165.552 3.07268C165.622 3.07268 165.693 3.07267 165.77 3.07858C166.106 3.07858 166.443 3.07268 166.779 3.07268C166.956 3.07268 167.145 3.07268 167.292 3.17301C167.487 3.30874 167.54 3.57432 167.576 3.81039C168.16 7.71733 168.738 11.6243 169.323 15.5312C171.364 11.7836 173.353 8.00061 175.365 4.23532C175.442 4.08777 175.525 3.94023 175.601 3.78679C175.708 3.58613 175.826 3.37366 176.015 3.24382C176.156 3.1494 176.327 3.10809 176.498 3.09038C176.841 3.09038 177.177 3.08448 177.519 3.08448C177.732 3.08448 177.944 3.09038 178.163 3.09038C178.357 3.09038 178.552 3.08448 178.747 3.08448C178.865 3.08448 178.983 3.08448 179.101 3.08448C179.166 3.08448 179.237 3.07858 179.302 3.07858C179.526 3.07858 179.75 3.08448 179.974 3.08448C179.78 3.08448 179.585 3.09038 179.39 3.09038C180.01 3.09628 180.629 3.10219 181.249 3.10219C181.32 3.10219 181.396 3.10809 181.473 3.11989C181.509 3.1317 181.538 3.1494 181.568 3.16711C181.727 3.27334 181.786 3.46219 181.827 3.65695C181.821 3.68056 181.821 3.71006 181.815 3.73367C181.609 4.8963 181.408 6.05895 181.202 7.21568C180.688 10.0485 180.187 12.8813 179.691 15.7201ZM193.642 26.3845C192.473 28.1963 190.467 28.8809 188.378 28.9104C188.047 28.9163 187.693 28.9163 187.327 28.8986C187.268 28.8986 187.209 28.9045 187.15 28.9104C185.232 28.9399 182.659 28.7746 181.349 27.1989C180.553 26.2369 180.405 24.9149 180.381 23.6697C180.322 20.465 180.859 17.284 181.467 14.1384C181.939 11.6892 182.453 9.22816 183.385 6.90879C183.828 5.81107 184.394 4.70745 185.374 4.02875C186.165 3.48579 187.138 3.27924 188.1 3.18481C188.761 3.11989 189.422 3.10808 190.083 3.14349C191.275 3.09628 192.473 3.19071 193.636 3.44449C194.603 3.65695 195.601 4.01696 196.191 4.80188C196.663 5.43337 196.793 6.2478 196.852 7.02682C196.994 8.97439 196.757 10.9515 196.161 12.8164C196.108 12.9817 196.049 13.1528 195.914 13.259C195.748 13.3948 195.512 13.3948 195.294 13.3889C194.999 13.383 194.71 13.3771 194.415 13.3712C194.303 13.3889 194.184 13.3889 194.072 13.3889C193.164 13.3712 192.261 13.3535 191.352 13.3358C191.016 13.3299 190.638 13.3004 190.425 13.0525C190.266 12.8695 190.242 12.6098 190.248 12.3679C190.266 11.7482 190.479 11.1521 190.638 10.5561C190.803 9.95998 190.921 9.3226 190.756 8.72062C190.644 8.31931 190.372 7.94159 190.018 7.73503C189.794 7.85896 189.593 8.04192 189.44 8.24848C189.157 8.6439 189.009 9.11603 188.867 9.57637C187.675 13.6013 186.843 17.7443 186.531 21.9286C186.477 22.6132 186.489 23.4159 187.044 23.8408C187.091 23.8762 187.144 23.9057 187.197 23.9352C187.268 23.9057 187.333 23.8703 187.398 23.8349C187.87 23.5398 188.189 23.0559 188.437 22.5601C188.832 21.7575 189.074 20.884 189.145 19.9929C189.18 19.5562 189.227 19.025 189.629 18.8303C189.812 18.7417 190.024 18.7476 190.225 18.7594C190.473 18.7712 190.715 18.783 190.962 18.7948C191.116 18.7476 191.287 18.7535 191.452 18.7594C192.568 18.8125 193.683 18.8598 194.798 18.9129C194.881 18.9188 194.969 18.9188 195.046 18.9424C195.111 18.9601 195.176 18.9837 195.229 19.025C195.406 19.1666 195.412 19.4263 195.394 19.6506C195.247 21.9346 194.91 24.4133 193.642 26.3845ZM201.673 27.9956C201.638 28.1904 201.596 28.391 201.467 28.5386C201.284 28.7333 200.983 28.7569 200.717 28.7628C199.808 28.7924 198.9 28.816 197.997 28.8455C197.772 28.8514 197.542 28.8573 197.318 28.8278C197.135 28.8337 196.958 28.8396 196.775 28.8455C196.344 28.8573 195.89 28.8632 195.512 28.6566C195.005 28.3733 194.934 27.5943 195.022 27.0809C195.17 26.2251 195.394 25.3694 195.571 24.5195C195.931 22.808 196.274 21.0965 196.604 19.3791C197.519 14.6341 198.186 9.85375 199.012 5.09697C199.106 4.43598 199.26 3.68645 199.838 3.35596C200.127 3.19071 200.475 3.16711 200.812 3.1494C201.697 3.10219 202.576 3.09629 203.461 3.10219C204.116 3.09038 204.771 3.09038 205.426 3.10809C205.562 3.11399 205.704 3.11989 205.81 3.19662C206.017 3.34416 205.993 3.65695 205.952 3.91072C205.757 5.00844 205.562 6.10616 205.367 7.20388C204.134 14.1325 202.907 21.067 201.673 27.9956ZM237.506 3.66875C237.24 4.33564 236.98 5.00254 236.703 5.65763C236.243 6.74355 235.741 7.81176 235.192 8.85636C233.286 12.5095 230.855 15.9325 229.574 19.8513C228.642 22.6959 228.347 25.7057 227.597 28.6035C227.19 28.6035 226.783 28.5976 226.376 28.5976V28.6035C224.983 28.5976 223.585 28.5917 222.192 28.5858C221.968 28.5858 221.72 28.574 221.572 28.4087C221.413 28.2317 221.442 27.9661 221.478 27.73C221.785 25.7648 222.092 23.7995 222.522 21.8519C222.782 20.6775 223.095 19.4971 223.13 18.2932C223.171 17.042 222.924 15.7968 222.688 14.5692C222.021 11.0813 221.472 7.56978 221.029 4.04646C220.917 5.27401 220.711 6.48977 220.41 7.68782C220.38 7.80586 220.345 7.93569 220.25 8.01241C220.138 8.10684 219.979 8.11274 219.837 8.11274C219.483 8.11274 219.123 8.10684 218.769 8.10684C218.716 8.11274 218.663 8.11274 218.616 8.11274C217.943 8.10684 217.264 8.10684 216.592 8.10094C215.299 14.705 214.001 21.3149 212.709 27.9189C212.673 28.1077 212.626 28.3143 212.478 28.4441C212.319 28.5858 212.083 28.5917 211.871 28.5976C210.732 28.6094 209.587 28.6153 208.448 28.6271C208.371 28.6271 208.3 28.6271 208.224 28.6212C207.893 28.6212 207.557 28.6271 207.226 28.6271C206.978 28.6271 206.701 28.6212 206.53 28.4382C206.341 28.2317 206.382 27.913 206.43 27.6356C207.663 21.1319 208.896 14.6341 210.13 8.13045C208.932 8.11865 207.74 8.10684 206.542 8.09503C206.359 8.09503 206.158 8.08323 206.034 7.94749C205.91 7.80585 205.922 7.59339 205.946 7.41044C206.081 6.37764 206.264 5.34483 206.495 4.32384C206.748 3.19071 206.961 3.01956 208.165 3.01956C208.542 3.01956 208.92 3.01956 209.292 3.01956C209.327 3.01956 209.351 3.01956 209.386 3.01956C213.163 3.01366 216.94 3.03727 220.717 3.08448C220.846 3.08448 220.97 3.09038 221.1 3.09038C221.094 3.1612 221.088 3.23202 221.082 3.30284C221.106 3.26743 221.13 3.23792 221.165 3.20841C221.271 3.13759 221.407 3.13169 221.537 3.12579C222.693 3.10218 223.85 3.07858 225.007 3.05497C225.131 3.05497 225.255 3.05497 225.379 3.07268C225.662 3.06678 225.945 3.06087 226.234 3.05497C226.517 3.04907 226.836 3.05497 227.037 3.25563C227.19 3.41497 227.232 3.64515 227.267 3.86941C227.556 5.78157 227.839 7.68782 228.123 9.59997C229.002 7.72913 229.887 5.86419 230.766 3.99334C230.896 3.71596 231.038 3.42678 231.292 3.24973C231.569 3.05497 231.929 3.03727 232.271 3.03137C232.655 3.02547 233.038 3.02547 233.422 3.03137C233.446 3.03137 233.469 3.03137 233.493 3.03137C234.236 3.01957 234.986 3.03137 235.729 3.07268C236.095 3.09038 236.455 3.11989 236.821 3.1553C236.91 3.1612 237.01 3.1612 237.104 3.16711C237.187 3.17301 237.27 3.17891 237.346 3.20252C237.441 3.23793 237.529 3.30875 237.553 3.40908C237.571 3.4976 237.541 3.58612 237.506 3.66875Z" fill="#641E0F"/>
<path d="M77.7171 0.104041L64.8228 14.9468C64.6989 15.0885 64.5041 15.1357 64.333 15.059L61.1286 13.6662C61.0165 13.619 60.8867 13.619 60.7745 13.6662L57.4049 15.1298C57.3282 15.1652 57.2397 15.1475 57.1807 15.0944L55.7408 13.8491C55.5696 13.7016 55.3218 13.7016 55.1506 13.8491L48.2993 19.7921C48.1931 19.8807 48.0337 19.8689 47.9511 19.7567L44.8529 15.7259C44.6523 15.4662 44.2628 15.4957 44.0976 15.779L39.0933 24.4604C39.0166 24.5961 38.8337 24.608 38.7392 24.484L33.7055 17.9331C33.552 17.7325 33.2747 17.697 33.074 17.8446L26.2286 23.0381C26.1578 23.0912 26.0574 23.0676 26.022 22.985L24.4464 19.5738C24.3402 19.3436 24.0805 19.2433 23.8563 19.3377L20.9115 20.6125C20.7227 20.6951 20.5043 20.6361 20.3745 20.4708L19.0467 18.7475C18.8874 18.541 18.5923 18.5056 18.3917 18.6767L9.87618 26.0657C9.70505 26.2132 9.45719 26.2132 9.28606 26.0657L6.28822 23.4689C6.08167 23.2919 5.77481 23.3332 5.62137 23.5574L0.032881 31.6015C-0.0497366 31.7195 0.032882 31.8847 0.174512 31.8847L73.3501 31.8907C73.598 31.8907 73.8104 31.7018 73.8458 31.448L78.1183 0.298798C78.1537 0.06273 77.8705 -0.0730105 77.7171 0.104041ZM72.5476 30.1556C72.5121 30.3857 72.3233 30.5628 72.0932 30.5628H2.61173C2.51731 30.5628 2.4642 30.4506 2.51731 30.3739L5.59187 25.9004C5.7453 25.6762 6.05217 25.6348 6.25871 25.8119L9.25065 28.4087C9.42178 28.5562 9.66964 28.5562 9.84077 28.4087L18.3563 21.0197C18.551 20.8486 18.852 20.8781 19.0113 21.0905L20.3214 22.7961C20.4571 22.9732 20.6873 23.0263 20.882 22.926L23.6438 21.5273C23.8681 21.4151 24.1454 21.5095 24.2575 21.7397L25.9217 25.1922C25.9925 25.3398 26.1755 25.387 26.3053 25.2866L33.0386 20.1758C33.2393 20.0223 33.5166 20.0636 33.6701 20.2643L38.7097 26.8211C38.8042 26.9391 38.9812 26.9273 39.0579 26.7975L44.0622 18.1161C44.2274 17.8328 44.6169 17.8033 44.8175 18.0629L47.9039 22.0761C47.9983 22.2 48.1695 22.2178 48.2816 22.1174L55.1152 16.1921C55.2864 16.0446 55.5342 16.0446 55.7054 16.1921L57.1394 17.4315C57.2043 17.4905 57.2987 17.5023 57.3754 17.4669L60.6683 16.0387C60.8277 15.9678 60.9988 15.9678 61.1581 16.0387L64.3802 17.4374C64.5041 17.4905 64.6399 17.4551 64.7284 17.3547L75.7932 4.74279C75.9526 4.56573 76.2358 4.70147 76.2004 4.94344L72.5476 30.1556Z" fill="#641E0F"/>
<path d="M76.2004 4.97305L72.5534 30.1911C72.518 30.4212 72.3292 30.5983 72.099 30.5983H2.6117C2.51728 30.5983 2.45827 30.4861 2.51728 30.4094L5.59184 25.9359C5.74527 25.7117 6.05213 25.6704 6.25868 25.8474L9.25062 28.4442C9.42175 28.5917 9.66961 28.5917 9.84074 28.4442L18.3563 21.0552C18.551 20.8841 18.852 20.9136 19.0113 21.126L20.3214 22.8316C20.4571 23.0087 20.6873 23.0618 20.882 22.9615L23.6438 21.5628C23.868 21.4506 24.1454 21.545 24.2575 21.7752L25.9217 25.2277C25.9925 25.3753 26.1754 25.4225 26.3053 25.3221L33.0386 20.2113C33.2392 20.0578 33.5166 20.0991 33.67 20.2998L38.7097 26.8566C38.8041 26.9746 38.9812 26.9628 39.0579 26.833L44.0621 18.1516C44.2274 17.8683 44.6169 17.8388 44.8175 18.0985L47.9039 22.1116C47.9983 22.2355 48.1694 22.2533 48.2874 22.1529L55.1211 16.2276C55.2922 16.0801 55.5401 16.0801 55.7112 16.2276L57.1452 17.467C57.2102 17.526 57.3046 17.5378 57.3813 17.5024L60.6742 16.0742C60.8335 16.0033 61.0047 16.0033 61.164 16.0742L64.3861 17.4729C64.51 17.526 64.6457 17.4906 64.7343 17.3902L75.7991 4.77829C75.9466 4.59534 76.2358 4.73698 76.2004 4.97305Z" fill="url(#paint11_linear)"/>
<defs>
<linearGradient id="paint0_linear" x1="89.856" y1="28.6837" x2="89.856" y2="3.08237" gradientUnits="userSpaceOnUse">
<stop stop-color="white"/>
<stop offset="0.0684" stop-color="#F86544"/>
<stop offset="0.9807" stop-color="#D83B17"/>
</linearGradient>
<linearGradient id="paint1_linear" x1="101.614" y1="28.8513" x2="101.614" y2="3.0583" gradientUnits="userSpaceOnUse">
<stop stop-color="white"/>
<stop offset="0.0684" stop-color="#F86544"/>
<stop offset="0.9807" stop-color="#D83B17"/>
</linearGradient>
<linearGradient id="paint2_linear" x1="201.093" y1="28.8513" x2="201.093" y2="3.0583" gradientUnits="userSpaceOnUse">
<stop stop-color="white"/>
<stop offset="0.0563" stop-color="#48E4F3"/>
<stop offset="0.0991" stop-color="#41DDEC"/>
<stop offset="0.2323" stop-color="#29C5D4"/>
<stop offset="0.7405" stop-color="#29C5D4"/>
</linearGradient>
<linearGradient id="paint3_linear" x1="114.002" y1="28.9232" x2="114.002" y2="3.08256" gradientUnits="userSpaceOnUse">
<stop stop-color="white"/>
<stop offset="0.0684" stop-color="#F86544"/>
<stop offset="0.9807" stop-color="#D83B17"/>
</linearGradient>
<linearGradient id="paint4_linear" x1="131.528" y1="28.8119" x2="131.528" y2="2.97335" gradientUnits="userSpaceOnUse">
<stop stop-color="white"/>
<stop offset="0.0684" stop-color="#F86544"/>
<stop offset="0.9807" stop-color="#D83B17"/>
</linearGradient>
<linearGradient id="paint5_linear" x1="170.051" y1="28.8126" x2="170.051" y2="3.05821" gradientUnits="userSpaceOnUse">
<stop stop-color="white"/>
<stop offset="0.0684" stop-color="#F86544"/>
<stop offset="0.9807" stop-color="#D83B17"/>
</linearGradient>
<linearGradient id="paint6_linear" x1="179.155" y1="28.7889" x2="179.155" y2="3.05888" gradientUnits="userSpaceOnUse">
<stop stop-color="white"/>
<stop offset="0.0684" stop-color="#F86544"/>
<stop offset="0.9807" stop-color="#D83B17"/>
</linearGradient>
<linearGradient id="paint7_linear" x1="189.245" y1="28.9138" x2="189.245" y2="3.101" gradientUnits="userSpaceOnUse">
<stop stop-color="white"/>
<stop offset="0.0563" stop-color="#48E4F3"/>
<stop offset="0.0991" stop-color="#41DDEC"/>
<stop offset="0.2323" stop-color="#29C5D4"/>
<stop offset="0.7405" stop-color="#29C5D4"/>
</linearGradient>
<linearGradient id="paint8_linear" x1="214.128" y1="28.6285" x2="214.128" y2="3.01724" gradientUnits="userSpaceOnUse">
<stop stop-color="white"/>
<stop offset="0.0563" stop-color="#48E4F3"/>
<stop offset="0.0991" stop-color="#41DDEC"/>
<stop offset="0.2323" stop-color="#29C5D4"/>
<stop offset="0.7405" stop-color="#29C5D4"/>
</linearGradient>
<linearGradient id="paint9_linear" x1="229.885" y1="28.607" x2="229.885" y2="3.03004" gradientUnits="userSpaceOnUse">
<stop stop-color="white"/>
<stop offset="0.0563" stop-color="#48E4F3"/>
<stop offset="0.0991" stop-color="#41DDEC"/>
<stop offset="0.2323" stop-color="#29C5D4"/>
<stop offset="0.7405" stop-color="#29C5D4"/>
</linearGradient>
<linearGradient id="paint10_linear" x1="150.554" y1="28.8171" x2="150.554" y2="3.085" gradientUnits="userSpaceOnUse">
<stop stop-color="white"/>
<stop offset="0.0684" stop-color="#F86544"/>
<stop offset="0.9807" stop-color="#D83B17"/>
</linearGradient>
<linearGradient id="paint11_linear" x1="39.3496" y1="30.5958" x2="39.3496" y2="4.69224" gradientUnits="userSpaceOnUse">
<stop stop-color="white"/>
<stop offset="0.0472" stop-color="#F86544"/>
<stop offset="0.7405" stop-color="#29C5D4"/>
</linearGradient>
</defs>
</svg>
