<svg fill="none" height="596" viewBox="0 0 446 596" width="446" xmlns="http://www.w3.org/2000/svg"><path d="m59.1953 451.1c-6.5168-7.603-13.9222 3.16-17.3781 7.603-2.3698 3.061-10.5651 11.059-9.6765 15.305.2962 1.481.4937 1.382 1.9748 1.777s3.0609.197 4.4433-.198c7.7017-1.876 13.8235-6.22 17.2794-12.836.0987 1.876.1975 3.752.1975 5.53 0 .395.4937.691.7899.395.6912-.494 1.3824-.988 2.0735-1.481 2.5673-1.877 1.4811-4.641 2.1723-7.702.6912-2.962.0987-6.122-1.8761-8.393z" fill="#641e0f"/><path d="m37.8677 390.079-.0988-3.555c7.1093.79 14.2185 1.481 21.3278 2.172l-.2962 6.419-.9874 55.689c0 .197 0 .197 0 .098 3.3571 5.925-8.9853 14.811-13.1324 16.194-2.0735.691-5.6281 1.086-5.2332-2.37.1975-1.481 1.1849-2.666 2.0735-3.851 1.2837-1.777 4.937-7.109 4.6408-9.183-.0987-.691-8.2941-61.613-8.2941-61.613z" fill="#ff8358"/><path d="m115.082 436.98c-9.479-3.258-10.368 9.775-11.158 15.305-.494 3.85-3.555 14.909-.691 18.069.987 1.086 1.185.987 2.567.592 1.481-.395 2.666-1.382 3.752-2.369 5.727-5.53 8.788-12.343 8.492-19.847 1.086 1.481 1.975 3.061 2.962 4.739.198.395.79.297.889 0 .395-.789.79-1.579 1.086-2.369 1.283-2.962-1.086-4.74-2.074-7.702-.79-2.962-2.863-5.431-5.825-6.418z" fill="#304483"/><path d="m66.0082 395.016-1.8761-3.061c6.5168-2.962 13.0336-5.924 19.4517-8.887l2.9622 5.727 27.153 48.58c.099.198.099.099.099 0 5.924 3.357-.296 17.28-3.16 20.538-1.382 1.58-4.344 3.851-5.726.592-.593-1.382-.297-2.863-.099-4.344.197-2.172.691-8.591-.593-10.269-.395-.395-38.2118-48.876-38.2118-48.876z" fill="#ff8358"/><path d="m44.9769 284.823-3.7521 5.726c-2.9622 4.542-4.5421 9.776-4.4433 15.206l.9874 87.187s35.8424 17.477 54.4054-2.369l.8887-64.971s4.4433-31.597-8.8866-38.903z" fill="#175e65"/><path d="m55.1464 245.327c4.2458-1.086 6.8131-5.332 6.0232-9.578 0-.197-.0988-.395-.1975-.592l-19.9454-75.141-2.1723-8.195-2.3697-9.084-5.332-.988c-2.1722-.395-3.8508 1.481-3.4558 3.752l17.2794 93.21c.8886 4.839 5.4306 7.899 10.1701 6.616z" fill="#ff8358"/><path d="m37.2749 152.117c4.937-.889 8.1954-5.727 7.3067-10.664-.8886-4.937-5.7269-8.196-10.6639-7.307-4.9369.889-8.1953 5.727-7.3067 10.664.9874 4.937 5.7269 8.294 10.6639 7.307z" fill="#ff8358"/><path d="m43.7915 239.007-14.5147-78.3 1.876.592c2.3698.692 4.7395.494 7.208-.789.6912-.395 1.3824-.79 1.9748-1.284l1.3823-1.185 20.3404 76.622c0 .099 0 .197.0987.296.0988.198.0988.395.1975.593.7899 4.245-1.2836 8.392-4.937 10.268-.5924.297-1.1848.593-1.876.692-2.5673.691-5.1345.296-7.3067-1.087-2.3698-1.481-3.9496-3.752-4.4433-6.418z" fill="#d4f7fa"/><path d="m55.3442 191.514c1.3824-3.259 3.1597-6.32 5.5294-8.887 3.1597-3.258 7.5042-5.529 11.9475-5.332 4.542.099 8.9853 3.061 10.2689 7.307 5.8257-.099 11.4538 3.554 13.7248 8.689 1.5799 3.456 1.6786 7.405 3.2582 10.861 3.851 8.393 14.515 3.555 21.229 7.406 2.469 1.382 4.345 3.653 5.826 6.122 3.851 6.516 4.542 14.712 1.975 21.821-1.383 3.95-3.851 8.393-1.778 12.046 1.679 3.061 5.53 3.95 8.492 5.925 5.233 3.456 7.01 11.256 3.851 16.687-1.086 1.876-2.567 3.455-3.456 5.43-1.777 4.246.197 9.775-2.765 13.33-2.765 3.259-8.096 2.567-11.651.198-3.555-2.37-6.221-5.925-9.775-8.196-7.11-4.641-19.5507.296-24.0927-8.393-.395-.79-.6912-1.579-.9874-2.468-4.8383-6.221-7.0105-14.712-4.542-22.217.0987-.296.1974-.691.2962-.987-2.0736-2.172-5.2332-3.456-9.3803-5.431-6.0231-2.764-10.3676-7.109-9.8739-12.836-.6912-.79-1.5799-1.481-2.3698-2.172-10.1701-8.59-11.355-23.5-7.0105-36.139.4937-.888.8887-1.777 1.2836-2.764z" fill="#641e0f"/><path d="m47.05 202.474c-.4937 11.157 7.3067 21.327 18.6618 23.401 4.937.889 9.7752.197 14.021-1.876 1.0861-.494 2.1723-1.185 3.1597-1.876 4.147-2.864 7.3067-7.109 8.7878-12.244.1975-.79.3949-1.481.5924-2.271.2962-1.777.4937-3.456.395-5.134-.2962-7.011-3.8509-13.528-9.479-17.477-1.0862-.79-2.3698-1.58-3.6534-2.172-1.6786-.79-3.5546-1.383-5.4307-1.679-.4936-.099-.9873-.197-1.481-.197-4.0484-.494-7.8992.098-11.4538 1.579-6.9118 2.864-12.2437 8.986-13.6261 16.885-.0987.494-.1975.888-.1975 1.382-.2962.494-.2962 1.086-.2962 1.679z" fill="#641e0f"/><path d="m92.1739 247.499-2.7647 10.269-4.1471 31.202c-.5924 2.073-1.9748 3.85-3.7521 4.739-4.937 2.469-16.8844 3.653-31.2017-2.37-2.1722-.888-6.2206-2.962-6.7143-5.529l-4.4432-23.105-.0988-.494c-.6912-3.554-.1975-7.307 1.4811-10.466l5.2332-9.973v-5.332c0-6.319 5.6282-10.861 11.2563-9.084l1.9748.691 3.0609 1.086 13.6261 4.641 3.9496 1.383 7.8004 2.666c3.7521 1.382 5.8256 5.628 4.7395 9.676z" fill="#a2dee4"/><path d="m92.1739 247.499-2.7647 10.268c-1.3824 1.679-2.7647 3.358-4.1471 5.135-2.8634 3.555-5.9244 7.307-9.9727 9.183-6.7143 3.159-14.4159.592-21.229-2.271-4.2458-1.778-8.3928-3.654-12.4411-5.628-.79-.395-1.6786-.79-2.4685-1.284l-.0988-.494c-.6912-3.554-.1975-7.307 1.4811-10.466l5.2332-9.973v-5.332c0-6.319 5.6282-10.861 11.2563-9.084l1.9748.691 3.0609 1.086 13.6261 4.444 3.9496 1.382 7.8004 2.666c3.7521 1.382 5.8256 5.628 4.7395 9.677z" fill="#d4f7fa"/><path d="m79.7329 235.157c-1.9748 3.159-4.542 5.924-7.4055 8.393-2.0735 1.876-4.3445 3.653-7.0105 4.542-2.6659.888-5.8256.691-7.9979-1.087-1.7773-1.481-2.6659-3.752-2.7647-6.023-.0987-2.271.4937-4.542 1.2836-6.615.79-2.271 1.8761-4.345 3.061-6.418l3.0609 1.086 13.7248 4.739z" fill="#ff8358"/><path d="m34.7084 258.854.1969.295h-.0985c0-.098-.0984-.197-.0984-.295z" fill="#dceffe"/><g fill="#ff8358"><path d="m60.8736 218.371.0988 1.678.4937 15.503 16.4895 1.283-.1975-2.271-1.4811-21.229z"/><path d="m60.8742 218.371.0987 1.679 16.7858 14.514-1.4811-21.229z"/><path d="m46.1621 201.585c-.5924 3.061 1.4811 6.023 4.5421 6.616 3.0609.592 6.0231-1.481 6.6155-4.542s-1.4811-6.024-4.542-6.616c-3.1597-.494-6.0231 1.481-6.6156 4.542z"/><path d="m51.4937 204.745c-.4937 8.985 5.8257 17.18 14.9097 18.859 3.9496.691 7.8991.099 11.2563-1.481.8886-.395 1.7773-.889 2.5672-1.481 3.8509-2.666 6.6156-6.714 7.5042-11.651.2962-1.383.395-2.765.2962-4.148-.1974-5.628-3.1596-10.861-7.6029-14.021-.8887-.691-1.876-1.184-2.9622-1.678-1.3823-.593-2.8634-1.086-4.3445-1.382-.395-.099-.7899-.099-1.1849-.198-3.2584-.395-6.4181.099-9.1828 1.284-5.5294 2.271-9.7752 7.208-10.9601 13.626-.1974.592-.2962 1.481-.2962 2.271z"/></g><path d="m74.8951 197.833c.395-.296.8887-.592 1.4811-.691h.0988.2962.3949.0988c.1975 0 .3949.099.4937.099.8886.296 1.5798.987 1.9748 1.876.0987.197.0987.395.1974.691.0988.395 0 .888-.0987 1.283s-.5924.692-.9874.494c-.1975-.099-.3949-.197-.4937-.395-.0987-.197-.0987-.395-.0987-.592.0987-.198.0987-.395.0987-.593 0-.098 0-.197-.0987-.296-.0988-.395-.4937-.79-.8887-.889-.0987 0-.0987 0-.1975-.098-.0987 0-.2962 0-.4937 0-.2962 0-.4937.197-.6911.296-.1975.197-.395.494-.4937.79-.0988.395-.5925.691-.9874.592-.395-.098-.6912-.592-.5925-.987.0988-.593.4937-1.185.9874-1.58z" fill="#641e0f"/><path d="m61.2692 193.884c.395-.297.8887-.593 1.3824-.692h.2962.2962.4937c.1975 0 .3949.099.4937.099.8886.296 1.5798.988 1.9748 1.876.0987.198.0987.494.0987.691v.692c0 .493-.395.789-.8886.691-.1975 0-.395-.099-.5925-.297-.0987-.197-.1975-.394-.1975-.592 0-.099 0-.197 0-.395 0-.099 0-.197-.0987-.296-.1975-.395-.4937-.79-.8887-.889-.0987 0-.1974 0-.2962-.099-.0987 0-.1975 0-.3949 0h-.0988c-.2962 0-.4937.099-.6911.297-.1975.098-.2963.296-.395.493-.1975.395-.6912.593-1.0861.395-.1975-.098-.2963-.296-.395-.493-.0987-.198 0-.395.0987-.593.1975-.296.4937-.592.8887-.888z" fill="#641e0f"/><path d="m65.7124 211.459c-4.937-1.284-8.2941-5.233-8.0966-9.183 0-.79.8886-1.283 1.7773-.987l16.7857 4.443c.8886.198 1.3823.987 1.0861 1.679-1.6786 3.554-6.6155 5.332-11.5525 4.048z" fill="#fff"/><path d="m82.4981 211.459c-.5924 3.061 1.4811 6.023 4.542 6.616 3.0609.592 6.0231-1.481 6.6156-4.542.5924-3.061-1.4811-6.024-4.5421-6.616-3.0609-.494-6.0231 1.481-6.6155 4.542z" fill="#ff8358"/><path d="m94.4451 274.455 4.2458-8.887-3.4558-1.678c-.4937-.198-1.0862-.198-1.4811.098l-28.5358 16.49c-.4937.296-.7899.79-.7899 1.382v43.841c0 .592.395 1.184.8887 1.481l1.5798.79c.8887.394 2.0735 0 2.4685-.889l2.0735-4.443 22.9076-13.231z" fill="#dceffe"/><path d="m98.6908 311.384-27.5483 15.897c-1.0861.691-2.4685-.198-2.4685-1.481v-40.484c0-1.579.7899-2.962 2.1723-3.752l27.9433-16.094z" fill="#18828c"/><path d="m107.676 298.646c-3.456 0-6.813-1.975-8.3928-5.233l-19.5504-40.187c-2.271-4.641-.2962-10.269 4.3445-12.54 4.6408-2.271 10.2689-.296 12.5399 4.345l19.4518 40.088c2.271 4.64.296 10.269-4.345 12.54-1.283.691-2.666.987-4.048.987z" fill="#d4f7fa"/><path d="m66.8967 315.037c-4.147 0-7.6029-3.357-7.6029-7.603s3.3571-7.603 7.6029-7.603c30.3131 0 34.5593-11.355 34.6573-11.454.691-4.147 4.542-6.912 8.689-6.22 4.147.691 6.912 4.542 6.221 8.689-.395 2.468-5.233 24.191-49.5673 24.191z" fill="#ff8358"/><path d="m72.3274 304.472c-1.3824.888-3.2584.592-4.2458-.79l-4.2458-5.826c-.9874-1.382-.6912-3.258.6912-4.147 1.3823-.889 3.2584-.592 4.2458.79l4.2458 5.826c.8886 1.382.5924 3.258-.6912 4.147z" fill="#ff8358"/><path d="m267.428 433.616-81.598-49.33-145.6696 83.803 82.1786 48.518z" fill="#48e4f3"/><path d="m122.919 539.589-82.7585-47.937v-23.563l82.1785 48.518z" fill="#16a6b3"/><path d="m267.428 456.018-144.509 83.571-.58-22.982 145.089-82.991z" fill="#29c5d4"/><path d="m183.509 504.536v-22.866l23.446-13.697v22.983z" fill="#c5defc"/><path d="m198.714 427.697c-7.821 0-14.161-3.534-14.161-7.893s6.34-7.893 14.161-7.893 14.161 3.534 14.161 7.893-6.34 7.893-14.161 7.893z" fill="#c5defc"/><path d="m102.955 483.759c-7.8206 0-14.1606-3.534-14.1606-7.893s6.34-7.893 14.1606-7.893c7.821 0 14.161 3.534 14.161 7.893s-6.34 7.893-14.161 7.893z" fill="#83f2fd"/><path d="m154.259 468.205c-20.129 0-36.447-9.094-36.447-20.312s16.318-20.313 36.447-20.313c20.128 0 36.446 9.095 36.446 20.313s-16.318 20.312-36.446 20.312z" fill="#83f2fd"/><path d="m206.955 467.973-82.759-48.169-23.098 13.348 82.411 48.518z" fill="#fff"/><path d="m355.642 490.143-81.598-49.331-145.67 83.804 82.179 48.518z" fill="#48e4f3"/><path d="m211.134 596-82.759-47.822v-23.562l82.179 48.518z" fill="#16a6b3"/><path d="m355.643 512.429-144.509 83.571-.58-22.866 145.089-82.991z" fill="#29c5d4"/><path d="m271.723 560.946v-22.75l23.447-13.696v22.982z" fill="#d4f7fa"/><path d="m286.929 484.223c-7.821 0-14.161-3.534-14.161-7.893s6.34-7.892 14.161-7.892 14.16 3.533 14.16 7.892-6.339 7.893-14.16 7.893z" fill="#83f2fd"/><path d="m191.17 540.17c-7.821 0-14.161-3.534-14.161-7.893s6.34-7.893 14.161-7.893 14.161 3.534 14.161 7.893-6.34 7.893-14.161 7.893z" fill="#83f2fd"/><path d="m242.473 524.616c-20.129 0-36.446-9.094-36.446-20.313 0-11.218 16.317-20.312 36.446-20.312s36.447 9.094 36.447 20.312c0 11.219-16.318 20.313-36.447 20.313z" fill="#83f2fd"/><path d="m295.17 524.5-82.759-48.286-23.098 13.465 82.41 48.518z" fill="#fff"/><path d="m319.196 424.33-81.482-49.33-145.6696 83.804 82.0626 48.517z" fill="#83f2fd"/><path d="m174.688 530.303-82.6431-47.937v-23.563l82.0621 48.518z" fill="#16a6b3"/><path d="m319.197 446.732-144.509 83.572-.581-22.983 145.09-82.991z" fill="#29c5d4"/><g fill="#d4f7fa"><path d="m235.393 495.25v-22.866l23.447-13.696v22.982z"/><path d="m250.599 418.411c-7.821 0-14.161-3.534-14.161-7.893s6.34-7.893 14.161-7.893c7.82 0 14.16 3.534 14.16 7.893s-6.34 7.893-14.16 7.893z"/><path d="m154.84 474.473c-7.821 0-14.161-3.534-14.161-7.893s6.34-7.892 14.161-7.892c7.82 0 14.16 3.533 14.16 7.892s-6.34 7.893-14.16 7.893z"/><path d="m206.027 458.92c-20.129 0-36.446-9.095-36.446-20.313s16.317-20.312 36.446-20.312 36.446 9.094 36.446 20.312-16.317 20.313-36.446 20.313z"/></g><path d="m258.84 458.688-82.875-48.17-22.983 13.348 82.411 48.518z" fill="#fff"/><path d="m364.116 434.464h3.25c6.268-9.402 20.661-16.018 37.491-16.018s31.339 6.616 37.491 16.018h3.25v10.214c0 14.509-18.223 26.233-40.741 26.233s-40.741-11.724-40.741-26.233z" fill="#e5d723"/><path d="m369.455 431.678 11.375 18.572 3.482 17.178c-12.071-4.526-20.312-13-20.312-22.633v-10.215h3.25c.696-1.16 1.393-2.089 2.205-2.902z" fill="#c1b121"/><path d="m404.857 460.464c-22.501 0-40.741-11.744-40.741-26.232 0-14.487 18.24-26.232 40.741-26.232s40.741 11.745 40.741 26.232c0 14.488-18.24 26.232-40.741 26.232z" fill="#f3eb23"/><path d="m404.857 453.384c-17.116 0-30.991-8.574-30.991-19.152 0-10.577 13.875-19.151 30.991-19.151s30.991 8.574 30.991 19.151c0 10.578-13.875 19.152-30.991 19.152z" fill="#e5d723"/><path d="m424.589 444.795h1.393l.232-1.509-2.322.464z" fill="#efa42f"/><path d="m387.794 427.152-2.553-1.509.348-1.741 1.509.464 1.857-1.277 2.554 1.509c2.321-1.509 4.41-2.321 4.41-2.321l2.902 1.625v-.929l1.857.116-.348 1.741s-2.438.813-4.991 2.09l9.17 5.455c3.83-2.205 8.705-3.714 15.785 0 6.965 3.598 6.036 7.777 3.018 11.027l1.625.928 1.277-1.16-.348 1.857-3.366 2.902-2.554-1.509c-3.134 2.321-6.5 3.714-6.616 3.714-2.438-1.393-2.554-1.509-5.107-3.134l.232-1.741 2.67.232-.581.813c1.857-.697 3.715-1.509 5.107-2.438l-10.446-6.268c-5.455 3.018-11.027 6.616-17.991 1.161-5.223-4.295-2.902-8.473.58-11.607zm31.34 13.812c1.741-2.089 1.392-4.294-2.438-5.803-2.437-.929-4.643-.581-6.964.232zm-26.117-4.526c2.67 1.625 4.992.232 7.661-1.625l-9.053-5.456c-2.09 2.089-2.786 4.527 1.392 7.081z" fill="#c1b121"/><path d="m388.143 425.411-2.554-1.509 3.598-2.554 2.554 1.509c2.321-1.509 4.411-2.321 4.411-2.321l4.642 2.669s-2.437.813-4.991 2.09l9.17 5.455c3.83-2.205 8.705-3.714 15.786 0 6.964 3.598 6.035 7.777 3.018 11.027l2.553 1.509-3.366 2.901-2.554-1.508c-3.133 2.321-6.5 3.714-6.616 3.714-2.437-1.393-2.553-1.509-5.107-3.134 2.786-.813 5.456-1.973 7.429-3.134l-10.447-6.268c-5.455 3.018-11.026 6.616-17.991 1.161-5.339-4.295-3.134-8.473.465-11.607zm31.339 13.812c1.741-2.089 1.393-4.295-2.438-5.803-2.437-.929-4.642-.581-6.964.232zm-26.116-4.527c2.669 1.625 4.991.233 7.661-1.625l-9.054-5.455c-2.205 2.089-2.902 4.527 1.393 7.08z" fill="#f8f423"/><path d="m333.116 557.464h3.25c6.268-9.402 20.661-16.018 37.491-16.018s31.339 6.616 37.491 16.018h3.25v10.214c0 14.509-18.223 26.233-40.741 26.233s-40.741-11.724-40.741-26.233z" fill="#e5d723"/><path d="m338.455 554.678 11.375 18.572 3.482 17.178c-12.071-4.526-20.312-13-20.312-22.633v-10.215h3.25c.696-1.16 1.393-2.089 2.205-2.902z" fill="#c1b121"/><path d="m373.857 583.464c-22.501 0-40.741-11.744-40.741-26.232 0-14.487 18.24-26.232 40.741-26.232s40.741 11.745 40.741 26.232c0 14.488-18.24 26.232-40.741 26.232z" fill="#f3eb23"/><path d="m373.857 576.384c-17.116 0-30.991-8.574-30.991-19.152 0-10.577 13.875-19.151 30.991-19.151s30.991 8.574 30.991 19.151c0 10.578-13.875 19.152-30.991 19.152z" fill="#e5d723"/><path d="m393.589 567.795h1.393l.232-1.509-2.322.464z" fill="#efa42f"/><path d="m356.794 550.152-2.553-1.509.348-1.741 1.509.464 1.857-1.277 2.554 1.509c2.321-1.509 4.41-2.321 4.41-2.321l2.902 1.625v-.929l1.857.116-.348 1.741s-2.438.813-4.991 2.09l9.17 5.455c3.83-2.205 8.705-3.714 15.785 0 6.965 3.598 6.036 7.777 3.018 11.027l1.625.928 1.277-1.16-.348 1.857-3.366 2.902-2.554-1.509c-3.134 2.321-6.5 3.714-6.616 3.714-2.438-1.393-2.554-1.509-5.107-3.134l.232-1.741 2.67.232-.581.813c1.857-.697 3.715-1.509 5.107-2.438l-10.446-6.268c-5.455 3.018-11.027 6.616-17.991 1.161-5.223-4.295-2.902-8.473.58-11.607zm31.34 13.812c1.741-2.089 1.392-4.294-2.438-5.803-2.437-.929-4.643-.581-6.964.232zm-26.117-4.526c2.67 1.625 4.992.232 7.661-1.625l-9.053-5.456c-2.09 2.089-2.786 4.527 1.392 7.081z" fill="#c1b121"/><path d="m357.143 548.411-2.554-1.509 3.598-2.554 2.554 1.509c2.321-1.509 4.411-2.321 4.411-2.321l4.642 2.669s-2.437.813-4.991 2.09l9.17 5.455c3.83-2.205 8.705-3.714 15.786 0 6.964 3.598 6.035 7.777 3.018 11.027l2.553 1.509-3.366 2.901-2.554-1.508c-3.133 2.321-6.5 3.714-6.616 3.714-2.437-1.393-2.553-1.509-5.107-3.134 2.786-.813 5.456-1.973 7.429-3.134l-10.447-6.268c-5.455 3.018-11.026 6.616-17.991 1.161-5.339-4.295-3.134-8.473.465-11.607zm31.339 13.812c1.741-2.089 1.393-4.295-2.438-5.803-2.437-.929-4.642-.581-6.964.232zm-26.116-4.527c2.669 1.625 4.991.233 7.661-1.625l-9.054-5.455c-2.205 2.089-2.902 4.527 1.393 7.08z" fill="#f8f423"/><path d="m.116013 544.464h3.249987c6.26787-9.402 20.6607-16.018 37.4911-16.018 16.8303 0 31.3393 6.616 37.4911 16.018h3.25v10.214c0 14.509-18.2233 26.233-40.7411 26.233-22.5179 0-40.741087-11.724-40.741087-26.233z" fill="#e5d723"/><path d="m5.45536 541.678 11.37504 18.572 3.4821 17.178c-12.07143-4.526-20.31250572-13-20.31250572-22.633v-10.215h3.25000572c.69643-1.16 1.39286-2.089 2.20536-2.902z" fill="#c1b121"/><path d="m40.8571 570.464c-22.5007 0-40.741087-11.744-40.741087-26.232 0-14.487 18.240387-26.232 40.741087-26.232s40.7411 11.745 40.7411 26.232c0 14.488-18.2404 26.232-40.7411 26.232z" fill="#f3eb23"/><path d="m40.8571 563.384c-17.1159 0-30.9911-8.574-30.9911-19.152 0-10.577 13.8752-19.151 30.9911-19.151s30.9911 8.574 30.9911 19.151c0 10.578-13.8752 19.152-30.9911 19.152z" fill="#e5d723"/><path d="m60.5889 554.795h1.3928l.2322-1.509-2.3215.464z" fill="#efa42f"/><path d="m23.7942 537.152-2.5535-1.509.3482-1.741 1.5089.464 1.8571-1.277 2.5536 1.509c2.3214-1.509 4.4107-2.321 4.4107-2.321l2.9018 1.625v-.929l1.8572.116-.3483 1.741s-2.4375.813-4.991 2.09l9.1696 5.455c3.8304-2.205 8.7054-3.714 15.7857 0 6.9643 3.598 6.0357 7.777 3.0179 11.027l1.625.928 1.2768-1.16-.3482 1.857-3.3661 2.902-2.5536-1.509c-3.1339 2.321-6.5 3.714-6.6161 3.714-2.4375-1.393-2.5535-1.509-5.1071-3.134l.2321-1.741 2.6697.232-.5804.813c1.8572-.697 3.7143-1.509 5.1072-2.438l-10.4465-6.268c-5.4553 3.018-11.0267 6.616-17.991 1.161-5.2232-4.295-2.9018-8.473.5803-11.607zm31.3393 13.812c1.7411-2.089 1.3929-4.294-2.4375-5.803-2.4375-.929-4.6428-.581-6.9643.232zm-26.1161-4.526c2.6697 1.625 4.9911.232 7.6608-1.625l-9.0536-5.456c-2.0893 2.089-2.7857 4.527 1.3928 7.081z" fill="#c1b121"/><path d="m24.1426 535.411-2.5536-1.509 3.5982-2.554 2.5536 1.509c2.3214-1.509 4.4107-2.321 4.4107-2.321l4.6429 2.669s-2.4375.813-4.9911 2.09l9.1696 5.455c3.8304-2.205 8.7054-3.714 15.7858 0 6.9642 3.598 6.0357 7.777 3.0178 11.027l2.5536 1.509-3.3661 2.901-2.5536-1.508c-3.1339 2.321-6.5 3.714-6.616 3.714-2.4375-1.393-2.5536-1.509-5.1072-3.134 2.7857-.813 5.4554-1.973 7.4286-3.134l-10.4464-6.268c-5.4554 3.018-11.0268 6.616-17.9911 1.161-5.3393-4.295-3.1339-8.473.4643-11.607zm31.3393 13.812c1.741-2.089 1.3928-4.295-2.4375-5.803-2.4375-.929-4.6429-.581-6.9643.232zm-26.1161-4.527c2.6696 1.625 4.9911.233 7.6607-1.625l-9.0536-5.455c-2.2053 2.089-2.9017 4.527 1.3929 7.08z" fill="#f8f423"/><path d="m.116013 519.464h3.249987c6.26787-9.402 20.6607-16.018 37.4911-16.018 16.8303 0 31.3393 6.616 37.4911 16.018h3.25v10.214c0 14.509-18.2233 26.233-40.7411 26.233-22.5179 0-40.741087-11.724-40.741087-26.233z" fill="#e5d723"/><path d="m5.45536 516.678 11.37504 18.572 3.4821 17.178c-12.07143-4.526-20.31250572-13-20.31250572-22.633v-10.215h3.25000572c.69643-1.16 1.39286-2.089 2.20536-2.902z" fill="#c1b121"/><path d="m40.8571 545.464c-22.5007 0-40.741087-11.744-40.741087-26.232 0-14.487 18.240387-26.232 40.741087-26.232s40.7411 11.745 40.7411 26.232c0 14.488-18.2404 26.232-40.7411 26.232z" fill="#f3eb23"/><path d="m40.8571 538.384c-17.1159 0-30.9911-8.574-30.9911-19.152 0-10.577 13.8752-19.151 30.9911-19.151s30.9911 8.574 30.9911 19.151c0 10.578-13.8752 19.152-30.9911 19.152z" fill="#e5d723"/><path d="m60.5889 529.795h1.3928l.2322-1.509-2.3215.464z" fill="#efa42f"/><path d="m23.7942 512.152-2.5535-1.509.3482-1.741 1.5089.464 1.8571-1.277 2.5536 1.509c2.3214-1.509 4.4107-2.321 4.4107-2.321l2.9018 1.625v-.929l1.8572.116-.3483 1.741s-2.4375.813-4.991 2.09l9.1696 5.455c3.8304-2.205 8.7054-3.714 15.7857 0 6.9643 3.598 6.0357 7.777 3.0179 11.027l1.625.928 1.2768-1.16-.3482 1.857-3.3661 2.902-2.5536-1.509c-3.1339 2.321-6.5 3.714-6.6161 3.714-2.4375-1.393-2.5535-1.509-5.1071-3.134l.2321-1.741 2.6697.232-.5804.813c1.8572-.697 3.7143-1.509 5.1072-2.438l-10.4465-6.268c-5.4553 3.018-11.0267 6.616-17.991 1.161-5.2232-4.295-2.9018-8.473.5803-11.607zm31.3393 13.812c1.7411-2.089 1.3929-4.294-2.4375-5.803-2.4375-.929-4.6428-.581-6.9643.232zm-26.1161-4.526c2.6697 1.625 4.9911.232 7.6608-1.625l-9.0536-5.456c-2.0893 2.089-2.7857 4.527 1.3928 7.081z" fill="#c1b121"/><path d="m24.1426 510.411-2.5536-1.509 3.5982-2.554 2.5536 1.509c2.3214-1.509 4.4107-2.321 4.4107-2.321l4.6429 2.669s-2.4375.813-4.9911 2.09l9.1696 5.455c3.8304-2.205 8.7054-3.714 15.7858 0 6.9642 3.598 6.0357 7.777 3.0178 11.027l2.5536 1.509-3.3661 2.901-2.5536-1.508c-3.1339 2.321-6.5 3.714-6.616 3.714-2.4375-1.393-2.5536-1.509-5.1072-3.134 2.7857-.813 5.4554-1.973 7.4286-3.134l-10.4464-6.268c-5.4554 3.018-11.0268 6.616-17.9911 1.161-5.3393-4.295-3.1339-8.473.4643-11.607zm31.3393 13.812c1.741-2.089 1.3928-4.295-2.4375-5.803-2.4375-.929-4.6429-.581-6.9643.232zm-26.1161-4.527c2.6696 1.625 4.9911.233 7.6607-1.625l-9.0536-5.455c-2.2053 2.089-2.9017 4.527 1.3929 7.08z" fill="#f8f423"/><path d="m7.11601 499.464h3.24999c6.2679-9.402 20.6607-16.018 37.4911-16.018 16.8303 0 31.3393 6.616 37.4911 16.018h3.25v10.214c0 14.509-18.2233 26.233-40.7411 26.233-22.5179 0-40.74109-11.724-40.74109-26.233z" fill="#e5d723"/><path d="m12.4554 496.678 11.375 18.572 3.4821 17.178c-12.0714-4.526-20.31251-13-20.31251-22.633v-10.215h3.25001c.6964-1.16 1.3929-2.089 2.2054-2.902z" fill="#c1b121"/><path d="m47.8571 525.464c-22.5007 0-40.74109-11.744-40.74109-26.232 0-14.487 18.24039-26.232 40.74109-26.232s40.7411 11.745 40.7411 26.232c0 14.488-18.2404 26.232-40.7411 26.232z" fill="#f3eb23"/><path d="m47.8571 518.384c-17.1159 0-30.9911-8.574-30.9911-19.152 0-10.577 13.8752-19.151 30.9911-19.151s30.9911 8.574 30.9911 19.151c0 10.578-13.8752 19.152-30.9911 19.152z" fill="#e5d723"/><path d="m67.5889 509.795h1.3928l.2322-1.509-2.3215.464z" fill="#efa42f"/><path d="m30.7942 492.152-2.5535-1.509.3482-1.741 1.5089.464 1.8571-1.277 2.5536 1.509c2.3214-1.509 4.4107-2.321 4.4107-2.321l2.9018 1.625v-.929l1.8572.116-.3483 1.741s-2.4375.813-4.991 2.09l9.1696 5.455c3.8304-2.205 8.7054-3.714 15.7857 0 6.9643 3.598 6.0357 7.777 3.0179 11.027l1.625.928 1.2768-1.16-.3482 1.857-3.3661 2.902-2.5536-1.509c-3.1339 2.321-6.5 3.714-6.6161 3.714-2.4375-1.393-2.5535-1.509-5.1071-3.134l.2321-1.741 2.6697.232-.5804.813c1.8572-.697 3.7143-1.509 5.1072-2.438l-10.4465-6.268c-5.4553 3.018-11.0267 6.616-17.991 1.161-5.2232-4.295-2.9018-8.473.5803-11.607zm31.3393 13.812c1.7411-2.089 1.3929-4.294-2.4375-5.803-2.4375-.929-4.6428-.581-6.9643.232zm-26.1161-4.526c2.6697 1.625 4.9911.232 7.6608-1.625l-9.0536-5.456c-2.0893 2.089-2.7857 4.527 1.3928 7.081z" fill="#c1b121"/><path d="m31.1426 490.411-2.5536-1.509 3.5982-2.554 2.5536 1.509c2.3214-1.509 4.4107-2.321 4.4107-2.321l4.6429 2.669s-2.4375.813-4.9911 2.09l9.1696 5.455c3.8304-2.205 8.7054-3.714 15.7858 0 6.9642 3.598 6.0357 7.777 3.0178 11.027l2.5536 1.509-3.3661 2.901-2.5536-1.508c-3.1339 2.321-6.5 3.714-6.616 3.714-2.4375-1.393-2.5536-1.509-5.1072-3.134 2.7857-.813 5.4554-1.973 7.4286-3.134l-10.4464-6.268c-5.4554 3.018-11.0268 6.616-17.9911 1.161-5.3393-4.295-3.1339-8.473.4643-11.607zm31.3393 13.812c1.741-2.089 1.3928-4.295-2.4375-5.803-2.4375-.929-4.6429-.581-6.9643.232zm-26.1161-4.527c2.6696 1.625 4.9911.233 7.6607-1.625l-9.0536-5.455c-2.2053 2.089-2.9017 4.527 1.3929 7.08z" fill="#f8f423"/><path d="m192.581 438.182c1.928 0 3.567 1.446 4.338 3.277.771 1.735.771 3.759.771 5.687 0 1.639-.096 3.567-1.253 4.723-.771.771-1.831 1.061-2.892 1.35-1.928.578-3.952 1.06-5.976 1.253-2.313.193-4.627-.097-6.94.289-1.446.193-2.891.675-4.337 1.06-4.049.964-8.386.868-12.338-.289-.868-.289-1.831-.578-2.41-1.349-.964-1.157-.674-3.085.386-4.241 1.06-1.157 2.41-1.832 3.855-2.507 4.241-1.927 8.386-3.855 12.627-5.783 4.145-1.928 8.386-3.855 12.916-3.952 1.446 0 3.374.579 3.278 2.024z" fill="#175e65"/><path d="m189.182 445.616h.385c2.795-.193 4.82-2.699 4.627-5.494l-.675-8.483c-.193-2.795-2.699-4.819-5.494-4.626h-.386c-2.795.192-4.819 2.699-4.626 5.494l.675 8.482c.289 2.699 2.698 4.819 5.494 4.627z" fill="#d4f7fa"/><path d="m209.16 461.123c-.771 1.445-1.639 2.891-2.41 4.337s-1.542 2.988-2.12 4.53c-.868 2.314-2.41 6.844-.482 8.964 2.988 3.181 8 .482 10.41-1.831 3.662-3.374 7.036-6.94 10.217-10.892 1.349-1.638 2.699-3.47 3.084-5.494 1.253-6.265-2.506-15.422-10.313-13.205-2.892.771-4.049 2.795-4.82 5.398-.771 2.891-2.12 5.59-3.566 8.193z" fill="#175e65"/><path d="m219.088 458.038h.386c2.795 0 5.109-2.313 5.109-5.108v-8.579c0-2.795-2.314-5.109-5.109-5.109h-.386c-2.795 0-5.108 2.314-5.108 5.109v8.579c0 2.891 2.313 5.108 5.108 5.108z" fill="#d4f7fa"/><path d="m193.545 280.298 26.603 9.253 10.314 20.338-2.795 68.34v64.387c0 3.47-2.892 6.362-6.362 6.362h-4.337c-3.278 0-6.073-2.506-6.362-5.88l-6.747-77.304-2.217-30.266-5.494-2.216-2.506 36.242 2.988 59.76c.192 3.76-2.892 6.748-6.651 6.459l-3.085-.193c-2.891-.193-5.301-2.41-5.687-5.302l-10.024-66.411v-71.713z" fill="#175e65"/><path d="m217.257 438.278h4.337c2.024 0 3.856-1.542 5.398-3.277 1.157-1.446 3.47-.578 3.47 1.253v4.916c0 4.916-3.952 8.868-8.868 8.868h-4.337c-4.627 0-8.386-3.47-8.772-8.097v-6.072c0-1.061 1.35-1.35 1.928-.579.964 1.639 2.699 3.085 6.844 2.988z" fill="#18828c"/><path d="m186.027 427.387h3.952c1.831 0 5.398-.771 6.072-3.085.482-1.638 1.928-.578 1.928 1.157v4.53c0 4.53-3.566 8.193-8 8.193h-3.952c-4.145 0-7.615-3.277-7.904-7.518v-5.591c0-.963 1.157-1.253 1.735-.482.867 1.543 2.41 2.892 6.169 2.796z" fill="#18828c"/><path d="m170.508 145.065c-.674 1.927-4.53 2.409-8.675 1.06-4.144-1.35-7.036-4.048-6.361-5.976.674-1.928 4.53-2.41 8.675-1.06 4.144 1.349 6.94 3.951 6.361 5.976z" fill="#48e4f3"/><path d="m167.906 136.872c4.819 1.831 10.217-.675 12.049-5.591 1.831-4.819-.675-10.217-5.495-12.048-4.819-1.832-10.217.674-12.048 5.59-1.928 4.916.578 10.314 5.494 12.049z" fill="#ff8358"/><path d="m172.147 128.004-4.145-3.663c-1.735-1.446-4.241-.675-5.012 1.446l-5.687 15.422.482.482c1.639 1.831 3.952 2.892 6.747 3.085.771.096 1.639 0 2.41-.097l.482-.096 2.121-7.326z" fill="#ff8358"/><path d="m189.593 206.657-32.483-26.314c-1.06-.964-1.542-2.41-1.156-3.759l12.723-32.098-1.349.193-.579.096c-.771.097-1.542.097-2.41.097-2.795-.193-5.108-1.253-6.747-3.085l-.385-.482-.964-1.06s-20.435 41.833-20.242 44.339 1.35 5.012 3.374 6.747l9.831 7.229 27.278 23.133c1.832 1.639 4.145 2.41 6.458 2.41 2.796 0 5.495-1.157 7.519-3.47 3.663-4.145 3.277-10.41-.868-13.976z" fill="#fff"/><path d="m173.014 220.055-4.144 62.556c-.482 7.133 3.373 13.784 9.831 16.868l12.82 6.265c7.711 4.723 16.579 6.747 25.446 5.784 3.085-.29 6.169-.964 9.157-2.025l6.555-2.313-2.41-82.412c-.096-3.47-1.446-6.651-3.856-9.157-.867-.964-1.927-1.831-3.084-2.506l-5.88-3.663-1.638-1.06c-4.434-3.085-13.013-6.265-20.724-7.229-1.542-.193-2.988-.289-4.337-.289-3.085 0-5.88.481-7.808 1.638-6.072 3.663-9.928 10.314-9.928 17.543z" fill="#fff"/><path d="m216.989 311.507c3.084-.29 6.169-.964 9.157-2.024l6.554-2.314-2.41-82.412c-.096-3.47-1.445-6.651-3.855-9.157-1.253.096-2.603.289-3.856.675-.385.096-.771.193-1.06.385-1.831.482-3.47 1.157-4.723 2.506-2.892 2.989-2.217 7.904-.771 11.856 1.349 3.952 3.277 8.097 2.217 12.145-.771 2.892-2.988 5.205-3.663 8.193-1.253 6.265 5.398 21.88 4.723 28.146-.385 3.662-2.988 6.554-4.626 9.735-3.374 7.036-1.928 15.615 2.313 22.266z" fill="#175e65" fill-opacity=".2" opacity=".42"/><path d="m201.642 215.814c-5.697 0-10.314-3.323-10.314-7.422s4.617-7.422 10.314-7.422c5.696 0 10.313 3.323 10.313 7.422s-4.617 7.422-10.313 7.422z" fill="#48e4f3"/><path d="m193.352 190.464v17.446h.096c.579 2.699 3.952 4.723 8.193 4.723 4.242 0 7.615-2.024 8.193-4.723h.097v-17.446c0-2.121-.964-4.049-2.41-5.494-1.253-1.157-2.892-2.025-4.723-2.217-.385 0-.867-.097-1.349-.097-.964 0-1.928.193-2.796.579-1.156.385-2.12 1.06-2.891 1.927-1.542 1.446-2.41 3.278-2.41 5.302z" fill="#ff8358"/><path d="m193.352 190.464v3.662l16.579 10.41v-14.072c0-2.121-.964-4.049-2.41-5.494-1.253-1.157-2.892-2.025-4.723-2.217-.385 0-.867-.097-1.349-.097-.964 0-1.928.193-2.796.579-1.156.385-2.12 1.06-2.891 1.927-1.542 1.446-2.41 3.278-2.41 5.302z" fill="#ff8358"/><path d="m197.015 159.812c-1.253.289-2.699.578-3.566-.289-1.157-1.06-.482-2.988.289-4.338.867-1.349 1.831-2.988 1.253-4.434-.482-1.156-1.928-1.638-3.181-1.831-3.084-.385-6.361.386-8.964 2.121-4.241 2.795-6.458 7.711-8.097 12.53-.192.578-.385 1.35 0 1.735.29.289.675.386 1.061.386 6.361.964 13.109-.579 18.506-4.049z" fill="#175e65"/><path d="m179.762 175.041c0 11.567 8.578 21.013 19.277 21.013 4.241 0 8.097-1.446 11.278-4.048 4.819-3.759 7.904-10.025 7.904-16.965 0-1.446-.097-2.891-.386-4.337-.482-2.313-1.253-4.53-2.313-6.458-1.735-3.181-4.338-5.88-7.326-7.615-2.699-1.638-5.879-2.506-9.157-2.506-.385 0-.867 0-1.253 0-2.602.193-5.108.964-7.422 2.121-6.265 3.47-10.602 10.602-10.602 18.795z" fill="#175e65"/><path d="m171.569 176.584c0 11.566 8.578 21.012 19.277 21.012 4.241 0 8.097-1.445 11.278-4.048 4.819-3.759 7.904-10.024 7.904-16.964 0-1.446-.097-2.892-.386-4.338-.482-2.313-1.253-4.53-2.313-6.458-1.735-3.181-4.338-5.879-7.326-7.614-2.699-1.639-5.88-2.507-9.157-2.507-.385 0-.867 0-1.253 0-2.602.193-5.108.964-7.422 2.121-6.265 3.47-10.602 10.603-10.602 18.796z" fill="#175e65"/><path d="m172.918 180.054c0 10.795 8.964 19.567 20.049 19.567 4.434 0 8.482-1.35 11.759-3.76 5.013-3.566 8.29-9.349 8.29-15.807 0-10.796-8.964-19.567-20.049-19.567-.386 0-.868 0-1.253 0-10.506.675-18.796 9.157-18.796 19.567z" fill="#ff8358"/><path d="m206.75 174.849c-.289-1.254-.867-2.507-1.638-3.374l-1.446-1.446c-.096-.096-.096-.096-.193-.096-.385-4.627-3.47-9.639-7.325-11.76l6.94 2.314 2.024 3.084v-3.566c5.205 2.891 9.06 7.904 10.313 13.88h-7.325v.964z" fill="#175e65"/><path d="m205.69 178.415c0 3.277 2.699 5.976 5.976 5.976s5.976-2.699 5.976-5.976-2.699-5.976-5.976-5.976c-3.373 0-5.976 2.699-5.976 5.976z" fill="#ff8358"/><path d="m186.894 160.969h5.494c10.41 0 11.663 10.313 11.663 18.217 0 1.157.964 2.121 2.121 2.121s2.121-.964 2.121-2.121v-7.229c1.445.193 2.795.193 2.891-.096.097-.193.675-1.832 1.639-3.952-1.832-3.181-4.434-5.88-7.615-7.615-2.795-1.639-6.072-2.506-9.446-2.506-.386 0-.868 0-1.253 0-2.699.193-5.301 1.157-7.615 2.41z" fill="#175e65"/><path d="m187.665 185.741c-4.144 1.156-8.482-.868-10.313-4.531-.386-.674 0-1.542.771-1.735l14.362-4.048c.771-.193 1.542.289 1.542.964.482 4.145-2.217 8.097-6.362 9.35z" fill="#fff"/><path d="m175.136 175.62c.289-.097.578-.29.771-.675.385-.675 1.06-1.253 1.735-1.446.674-.193 1.156 0 1.253.578.096.29.482.386.867.097.386-.289.675-.771.578-1.06-.192-.964-1.156-1.446-2.409-1.061-1.253.386-2.506 1.446-3.277 2.699-.29.386-.193.771.192.868.097.096.193.096.29 0z" fill="#715154"/><path d="m189.401 171.379c.289-.097.578-.289.771-.675.385-.675 1.06-1.253 1.735-1.446.674-.193 1.156 0 1.253.578.096.29.482.386.867.097.386-.289.675-.771.579-1.06-.193-.964-1.157-1.446-2.41-1.061-1.253.386-2.506 1.446-3.277 2.699-.29.386-.193.771.192.868z" fill="#715154"/><path d="m147.232 8.69995c-.9 1.80005 0 27.50005 18 47.90005 8.2 9.2-.7-8.6-.7-8.6s-10.7-15.6-11.6-29.6c1.8.8999 9.9 5.5 9.9 5.5l1.6-5.5c.2.1999-11.8-6.7-17.2-9.70005z" fill="#ead700"/><path d="m233.632 121.7c-5.6-5.7-16-9.4-27.9-9.4s-22.3 3.7-27.9 9.4l-2.7.4-1.8 3.1v6.1c0 10.6 14.5 19 32.5 19s32.4-8.5 32.4-19v-6.1l-4.6-1.8z" fill="#c7b200"/><path d="m205.732 143.6c18 0 32.5-8.5 32.5-19s-14.6-19-32.5-19c-18 0-32.5 8.5-32.5 19 0 10.4 14.6 19 32.5 19z" fill="#f5eb00"/><path d="m194.432 98.8v20.5c0 3.7 5 6.5 11.4 6.5 6.2 0 11.4-3 11.4-6.5v-20.5z" fill="#c7b200"/><path d="m163.032 25.3999s1 16.7 2.2 31.4c.6 8.2 1.3 15.8 2.1 19.5 2.8 16.7 16.9 32.1001 38.6 32.1001s35.8-15.5001 38.6-32.1001c1.8-10.7 4.3-50.9 4.3-50.9z" fill="#f5eb00"/><path d="m164.632 18.6-17.4-9.89995 3.4-1.9 16 8.89995z" fill="#f5eb00"/><path d="m262.332 70.5-3.3 1.9s1.2 19.2-10.4 25.1c16.3-5.9 13.7-27 13.7-27z" fill="#c7b200"/><path d="m163.932 39.7999c-4.2-5.4-7.3-19.3-7.3-19.3-1.6-.9-3.1-1.6-3.7-2.1.9 14 11.6 29.6 11.6 29.6-.2-2.8-.3-5.5-.6-8.2z" fill="#c7b200"/><path d="m229.332 46.2001c-6.7 2.5-14.8 4.2-23.6 4.2-13.1 0-24.6-3.4-32.5-8.8 0 13.1 1.9 60.2999 32.4 65.1999 35.5 5.8 27.2-48.0999 27.2-48.0999z" fill="#ead700"/><path d="m227.032 46.8c-2.2 45.8-7.6 51.5-22.4 61.6h1c13.9 0 24.8-6.4 31.5-15.3 6.7-15.7 7.9-45.8 8.1-58.4-3.7 5.2-10.1 9.4-18.2 12.1z" fill="#dec100"/><path d="m227.532 54.5999 3.6-2.2 31.2 18.2-3.3 1.9z" fill="#f5eb00"/><path d="m227.532 89.8c26 9.7 25.5-14.6 25.5-14.6l-25.5-14v-6.7l31.5 17.9s2.4 37.2-31.2 24.3c-.1-2.8-.1-2.8-.3-6.9z" fill="#ead700"/><path d="m253.132 75.3c-1.7 23.2-19.8 12.8-21.7 12.9001-1.8.7-1.6.5999-3.7 1.5999 25.8 9.7 25.4-14.5 25.4-14.5z" fill="#c7b200"/><path d="m187.932 86.6999s.7-4 4.6-5.2c-3.7-2.1-4-7.1-4-7.1s-.7 5.4-4.9 6.4c4 1.7 4.3 5.9 4.3 5.9z" fill="#fffdfc"/><path d="m205.732 50.4c23.8 0 43-11.3 43-25.2s-19.3-25.2-43-25.2c-23.8 0-43 11.3-43 25.2s19.3 25.2 43 25.2z" fill="#f9f300"/><path d="m205.732 42.7999c18.9 0 34.1-7.6999 34.1-17.2999 0-9.5-15.3-17.30005-34.1-17.30005s-34.1 7.70005-34.1 17.30005 15.3 17.2999 34.1 17.2999z" fill="#c7b200"/><path d="m205.732 22.3999c-14 0-25.8 4.2-31.2 10.3 5.3 6 17.4 10.3 31.2 10.3s25.8-4.2 31.2-10.3c-5.4-6.1-17.2-10.3-31.2-10.3z" fill="#998500"/><path d="m176.232 43.6s1.3-7.3 8.2-9.2c-6.7-3.6-7-12.6-7-12.6s-1.3 9.5-8.8 11.3c7 3.2 7.6 10.5 7.6 10.5z" fill="#fffdfc"/><path d="m233.739 152.197c.675 1.928 4.53 2.41 8.675 1.061 4.145-1.35 7.037-4.049 6.362-5.976-.675-1.928-4.53-2.41-8.675-1.061-4.145 1.35-7.036 4.049-6.362 5.976z" fill="#48e4f3"/><path d="m236.342 144.004c-4.82 1.832-10.217-.674-12.049-5.59-1.831-4.82.675-10.217 5.494-12.049 4.82-1.831 10.218.675 12.049 5.591s-.675 10.313-5.494 12.048z" fill="#ff8358"/><path d="m232.101 135.137 4.144-3.663c1.735-1.446 4.241-.675 5.013 1.446l5.686 15.422-.481.482c-1.639 1.831-3.952 2.892-6.748 3.084-.771.097-1.638 0-2.409-.096l-.482-.096-2.121-7.326z" fill="#ff8358"/><path d="m217.064 216.296 29.977-27.567c1.06-.964 1.542-2.41 1.157-3.76l-12.724-33.35 1.35.193.578.096c.771.097 1.542.097 2.41.097 2.795-.193 5.108-1.253 6.747-3.085l.386-.482.964-1.06s22.844 42.989 22.651 45.495-1.35 5.013-3.374 6.748l-9.831 8.482-27.278 23.133c-1.832 1.639-4.145 2.41-6.458 2.41-2.796 0-5.495-1.157-7.519-3.47-3.662-4.049-3.18-10.314.964-13.88z" fill="#fff"/><path d="m232.398 145.398c-7.4 0-13.398-4.79-13.398-10.699s5.998-10.699 13.398-10.699c7.399 0 13.398 4.79 13.398 10.699s-5.999 10.699-13.398 10.699z" fill="#ff8358"/><path d="m169.834 133.112c-6.548 0-11.856-4.79-11.856-10.699s5.308-10.699 11.856-10.699c6.547 0 11.855 4.79 11.855 10.699s-5.308 10.699-11.855 10.699z" fill="#ff8358"/><path d="m350.174 258.449c-.486-.584-.486-1.556 0-2.625.972-2.041 3.597-3.888 5.929-4.082 1.167-.097 1.944.292 2.43.875l10.498 15.357c.388.583.485 1.555-.098 2.527-.972 2.041-3.596 3.888-5.929 4.082-1.166.098-1.944-.291-2.43-.874z" fill="#175e65"/><path d="m338.219 248.146c-1.264 2.624-.972 6.804.68 9.234s4.082 2.235 5.346-.389c1.264-2.625.972-6.804-.68-9.234-1.75-2.43-4.083-2.235-5.346.389z" fill="#18828c"/><path d="m340.454 246.105 7.776-.972.875 13.607-7.97.583z" fill="#18828c"/><path d="m357.562 239.592-11.761 3.597 1.264 16.62 11.566 1.556z" fill="#18828c"/><path d="m353.576 243.092c-2.138 4.471-1.555 11.372 1.167 15.454 2.818 4.082 6.803 3.791 8.942-.68 2.138-4.472 1.555-11.373-1.167-15.455-2.818-4.082-6.803-3.791-8.942.681z" fill="#18828c"/><path d="m354.451 244.355c-1.75 3.693-1.361 9.428.972 12.83s5.637 3.11 7.387-.583c1.749-3.694 1.361-9.428-.972-12.83s-5.638-3.111-7.387.583z" fill="#29c5d4"/><path d="m392.455 225.11-35.768 16.621 2.43 17.884 30.811 10.109z" fill="#29c5d4"/><path d="m378.858 248.768c-.986-12.576 4.114-23.234 11.392-23.805 7.278-.57 13.977 9.162 14.964 21.737.986 12.576-4.114 23.234-11.392 23.805-7.278.57-13.978-9.162-14.964-21.737z" fill="#6be7f3"/><path d="m386.332 263.151c3.11 4.471 6.804 5.929 10.011 3.693 1.458-.972 2.722-2.624 3.791-4.762 3.985-8.359 2.916-21.773-2.333-29.354-3.11-4.471-6.804-5.929-10.011-3.693-1.458.971-2.722 2.624-3.791 4.762-.875 1.847-1.555 3.985-1.944 6.318-.972 5.832-.389 12.538 1.653 18.079.68 1.749 1.555 3.499 2.624 4.957z" fill="#d4f7fa"/><path d="m343.177 245.716c-1.653 3.402-1.167 8.65.874 11.761 2.139 3.11 5.152 2.819 6.804-.486 1.652-3.402 1.166-8.651-.875-11.761-2.138-3.11-5.248-2.916-6.803.486z" fill="#18828c"/><path d="m393.33 256.602c.584-.389 1.167-1.069 1.556-2.041 1.652-3.499 1.263-9.137-.972-12.344-1.264-1.847-2.819-2.43-4.18-1.555-.583.388-1.166 1.069-1.555 2.041-1.652 3.499-1.264 9.136.972 12.344 1.361 1.846 2.916 2.43 4.179 1.555z" fill="#18828c"/><path d="m383.708 257.962 8.65-.971-1.263-16.718-9.137-.292c-.875 5.832-.292 12.538 1.75 17.981z" fill="#18828c"/><path d="m392.844 254.366c.389-.291.778-.777 1.167-1.458 1.166-2.527.874-6.609-.681-8.942-.972-1.361-2.041-1.749-3.013-1.166-.389.291-.778.777-1.166 1.458-1.167 2.527-.875 6.609.68 8.942.972 1.458 2.041 1.847 3.013 1.166z" fill="#29c5d4"/><path d="m310.421 482.1c6.026-6.998 12.83 2.916 16.038 7.095 2.138 2.819 9.817 10.206 8.942 14.094-.292 1.361-.486 1.264-1.847 1.652-1.361.389-2.819.195-4.179-.194-7.096-1.75-12.83-5.735-16.038-11.955-.097 1.749-.194 3.402-.097 5.151 0 .389-.486.583-.778.389-.68-.389-1.361-.875-1.944-1.361-2.43-1.749-1.36-4.276-1.944-7.095-.583-2.625-.097-5.54 1.847-7.776z" fill="#641e0f"/><path d="m330.152 425.628.097-3.304c-6.609.68-13.121 1.361-19.731 2.041l.292 5.929.972 51.515c0 .194 0 .194 0 .097-3.111 5.443 8.359 13.705 12.149 14.968 1.847.583 5.249 1.069 4.86-2.138-.194-1.361-1.166-2.43-1.944-3.499-1.166-1.555-4.568-6.61-4.276-8.554-.098-.68 7.581-57.055 7.581-57.055z" fill="#ff8358"/><path d="m254.824 469.075c8.748-3.013 9.623 9.04 10.303 14.191.486 3.499 3.305 13.802.583 16.718-.972 1.069-1.069.875-2.43.486-1.36-.389-2.527-1.263-3.499-2.235-5.248-5.055-8.164-11.372-7.873-18.371-.972 1.458-1.846 2.916-2.721 4.374-.195.292-.681.292-.875 0-.389-.68-.68-1.458-.972-2.138-1.166-2.722.972-4.374 1.847-7.193.972-2.624 2.916-4.86 5.637-5.832z" fill="#641e0f"/><path d="m300.312 430.196 1.75-2.818c-6.027-2.722-12.053-5.443-18.079-8.262l-2.722 5.249-25.174 45.002c-.097.194-.097.097-.097 0-5.443 3.11.292 16.038 2.916 19.051 1.361 1.458 3.985 3.499 5.249.583.583-1.264.291-2.722.097-3.985-.194-1.944-.583-7.97.583-9.526.486-.388 35.477-45.294 35.477-45.294z" fill="#ff8358"/><path d="m326.167 321.627 3.791 5.832c3.013 4.568 4.568 9.817 4.471 15.26l-.972 78.827s-36.157 17.593-54.819-2.333l-.778-56.374s-4.471-31.784 8.942-39.171z" fill="#d4f7fa"/><path d="m344.245 310.255c3.111 1.846 7.096.777 8.845-2.333l18.662-31.978c1.847-3.11.778-7.095-2.333-8.845-3.11-1.847-7.095-.778-8.844 2.333l-18.662 31.978c-1.75 3.11-.778 7.095 2.332 8.845z" fill="#83f2fd"/><path d="m315.864 266.419-.583.486c-2.916 2.527-3.013 7.095-.292 10.205l25.952 30.132c2.722 3.11 7.29 3.693 10.109 1.166l.583-.486c2.916-2.527 3.013-7.095.291-10.206l-25.951-30.131c-2.722-3.11-7.193-3.596-10.109-1.166z" fill="#83f2fd"/><path d="m290.593 234.83-.583 3.304c0-.097.097-.097.097-.194.195-1.069.292-2.041.486-3.11z" fill="#715154"/><path d="m302.645 263.309c6.026 1.263 11.955 3.11 17.982 3.401 4.082.195 8.067-.291 11.955-1.263 2.916-.68 2.138-18.37 1.847-20.8-.778-5.735-1.75-12.928-4.86-17.982-3.597-5.735-10.303-9.039-17.107-9.525-6.901-.486-13.899 1.847-19.245 6.22-3.499 2.916-9.331 9.72-8.554 14.774.584 3.986 6.513 8.457 9.137 11.275 6.609 7.096 4.18 10.206 8.845 13.9z" fill="#ffdd4d"/><path d="m278.735 284.109 2.721 10.303 4.18 31.395c.583 2.138 1.944 3.887 3.79 4.762 4.957 2.43 17.01 3.694 31.395-2.332 2.236-.972 6.318-3.014 6.804-5.541l4.471-23.327.097-.486c.681-3.596.195-7.387-1.555-10.595l-5.249-10.011v-5.346c0-6.415-5.637-10.983-11.275-9.136l-1.943.68-3.111 1.069-13.802 4.763-3.985 1.361-7.873 2.721c-3.693 1.361-5.735 5.638-4.665 9.72z" fill="#48e4f3"/><path d="m278.735 284.109 2.721 10.303c1.361 1.749 2.722 3.402 4.18 5.151 2.916 3.597 5.929 7.29 10.011 9.234 6.707 3.11 14.482.583 21.383-2.333 4.277-1.749 8.457-3.693 12.539-5.734.875-.389 1.652-.778 2.527-1.361l.097-.486c.681-3.596.195-7.387-1.555-10.595l-5.249-10.011v-5.346c0-6.415-5.637-10.983-11.275-9.136l-1.943.68-3.111 1.069-13.802 4.763-3.985 1.361-7.873 2.721c-3.693 1.361-5.735 5.638-4.665 9.72z" fill="#83f2fd"/><path d="m291.273 271.667c1.944 3.208 4.665 5.93 7.387 8.457 2.138 1.846 4.374 3.693 7.095 4.568 2.722.875 5.832.68 8.068-1.069 1.749-1.458 2.624-3.791 2.721-6.026.097-2.236-.486-4.569-1.263-6.707-.778-2.236-1.847-4.374-3.111-6.512l-3.11 1.069-13.802 4.763z" fill="#ff8358"/><path d="m336.567 295.578-.195.389h.097c0-.194 0-.292.098-.389z" fill="#dceffe"/><g fill="#ff8358"><path d="m362.616 276.722c3.985 3.013 9.136 2.916 11.566-.292 2.333-3.11 1.069-8.164-2.916-11.178-3.985-3.013-9.136-2.915-11.566.292-2.43 3.208-1.069 8.165 2.916 11.178z"/><path d="m315.183 254.755-.486 1.75-4.665 15.649-17.01 1.263.778-2.333 7.29-21.383z"/><path d="m315.183 254.755-.486 1.75-20.897 14.579 7.29-21.383z"/><path d="m331.902 241.245c0 9.914-8.457 17.981-18.954 17.981-4.179 0-8.067-1.263-11.178-3.402-4.762-3.304-7.775-8.553-7.775-14.579 0-9.914 8.456-17.982 18.953-17.982h1.166c9.915.583 17.788 8.456 17.788 17.982z"/></g><path d="m300.313 239.787c0 3.11-2.527 5.637-5.638 5.637-3.11 0-5.637-2.527-5.637-5.637 0-3.111 2.527-5.638 5.637-5.638 3.111 0 5.638 2.527 5.638 5.638z" fill="#ffc2b0"/><path d="m319.362 246.493c3.888 1.07 7.971-.777 9.623-4.276.292-.681 0-1.458-.778-1.653l-13.316-3.693c-.68-.195-1.458.291-1.458.972-.486 3.888 1.944 7.581 5.929 8.65z" fill="#fff"/><path d="m331.027 237.066c-.292-.098-.583-.292-.681-.584-.388-.68-.972-1.166-1.652-1.36-.583-.195-1.069 0-1.166.486-.098.291-.389.388-.778.097-.389-.292-.583-.681-.583-.972.194-.972 1.069-1.361 2.235-.972 1.167.389 2.333 1.361 3.014 2.527.194.389.194.778-.098.778-.097.097-.194.097-.291 0z" fill="#641e0f"/><path d="m317.711 233.08c-.292-.097-.584-.291-.681-.583-.389-.68-.972-1.166-1.652-1.361-.583-.194-1.069 0-1.167.486-.097.292-.388.389-.777.097-.389-.291-.583-.68-.583-.972.194-.972 1.069-1.36 2.235-.972 1.167.389 2.333 1.361 3.013 2.528.195.388.195.777-.097.777-.097 0-.194 0-.291 0z" fill="#641e0f"/><path d="m292.552 264.961c4.957 1.749 10.011 2.527 15.163 2.819-3.305-8.359-4.472-17.496-3.402-26.341.583-4.568 1.749-9.234 4.471-13.024 2.43-3.305 6.318-5.832 10.4-6.027-6.221-4.471-14.969-4.276-21.772-.777-6.901 3.596-11.956 10.108-15.163 17.204-2.43 5.443-3.985 11.178-5.249 17.009 4.763 3.694 9.914 7.096 15.552 9.137z" fill="#ffdd4d"/><path d="m286.122 289.552c4.374.972 8.553-1.652 9.817-5.929.097-.194.097-.389.097-.68l16.426-76.398 1.75-8.358 2.041-9.331-4.277-3.305c-1.846-1.361-4.179-.389-4.762 1.749l-27.118 91.755c-1.458 4.665 1.166 9.525 6.026 10.497z" fill="#ff8358"/><path d="m312.657 197.797c4.859 1.458 10.011-1.36 11.372-6.22 1.458-4.86-1.361-10.012-6.221-11.372-4.86-1.458-10.011 1.36-11.372 6.22s1.361 9.915 6.221 11.372z" fill="#ff8358"/><path d="m278.832 278.666 22.744-76.883 1.458 1.36c1.749 1.75 4.082 2.625 6.804 2.625.777 0 1.555-.097 2.332-.195l1.847-.486-16.815 78.05c0 .097 0 .194-.097.292 0 .194-.098.486-.098.583-1.263 4.179-4.957 6.901-9.136 6.901-.68 0-1.361-.097-2.041-.195-2.625-.583-4.763-2.138-6.124-4.374-1.263-2.235-1.652-5.054-.874-7.678z" fill="#83f2fd"/><path d="m20.0537 561.411s-1.0446-8.59-9.0536-11.491c8.125-3.715 9.2857-14.393 9.2857-14.393s.9286 11.259 9.5179 14.044c-8.5893 3.25-9.75 11.84-9.75 11.84z" fill="#fffefd"/></svg>