<svg fill="none" height="166" viewBox="0 0 166 166" width="166" xmlns="http://www.w3.org/2000/svg" xmlns:xlink="http://www.w3.org/1999/xlink"><filter id="a" color-interpolation-filters="sRGB" filterUnits="userSpaceOnUse" height="166" width="166" x="0" y="0"><feFlood flood-opacity="0" result="BackgroundImageFix"/><feColorMatrix in="SourceAlpha" type="matrix" values="0 0 0 0 0 0 0 0 0 0 0 0 0 0 0 0 0 0 127 0"/><feOffset dx="4" dy="4"/><feGaussianBlur stdDeviation="5"/><feColorMatrix type="matrix" values="0 0 0 0 0 0 0 0 0 0 0 0 0 0 0 0 0 0 0.25 0"/><feBlend in2="BackgroundImageFix" mode="normal" result="effect1_dropShadow"/><feBlend in="SourceGraphic" in2="effect1_dropShadow" mode="normal" result="shape"/></filter><linearGradient id="b" gradientUnits="userSpaceOnUse" x1="75.1378" x2="131.004" y1="72.6844" y2="72.6844"><stop offset=".2803"/><stop offset="1" stop-opacity="0"/></linearGradient><clipPath id="c"><path d="m29 33h102v85h-102z"/></clipPath><g filter="url(#a)"><circle cx="79" cy="79" fill="#fff" r="73"/></g><g clip-path="url(#c)"><path d="m126.187 79.4614c-8.154-9.1983-25.734-15.5766-46.187-15.5766-20.4535 0-38.0328 6.3783-46.1874 15.5766h-4.8126v11.481c0 14.9056 22.8598 27.0576 51 27.0576 28.14 0 51-12.085 51-27.0576v-11.481z" fill="#e5d723"/><path d="m80 108.265c28.167 0 51-12.8958 51-28.8035 0-15.9076-22.833-28.8033-51-28.8033-28.1665 0-51 12.8957-51 28.8033 0 15.9077 22.8335 28.8035 51 28.8035z" fill="#f8f423"/><path d="m80 50.5908c-1.671 0-3.2752.0672-4.8794.1343l12.1651 13.4281 2.2726 2.4842 6.8178 28.1319 28.2739-1.4099 6.149-.3357c.134-.7386.201-1.41.201-2.1485v-11.4139c0-15.9123-22.86-28.8705-51-28.8705z" fill="url(#b)" opacity=".33"/><path d="m96.3762 94.7695-37.8323-21.8207v-37.0616l37.8323 21.2836z" fill="#29c5d4"/><path d="m96.3762 57.1706-37.8323-21.2836 5.08-2.887 37.8321 21.2836z" fill="#48e4f3"/><path d="m101.456 91.8153-5.0799 2.9542v-37.5988l5.0799-2.887z" fill="#16a6b3"/><path d="m70.5754 69.9942-2.8074 1.4771-6.4836-3.2899 2.8742-1.5442z" fill="#d83b17"/><path d="m67.768 81.8112-6.4836-3.7599v-9.8697l6.4836 3.2899z" fill="#f86544"/><path d="m70.5753 79.8643-2.8073 1.9471v-10.3397l2.8073-1.4771z" fill="#b12f11"/><path d="m80.6684 72.8146-2.8073 1.477-6.4837-3.2898 2.8742-1.5443z" fill="#d83b17"/><path d="m77.8611 87.7195-6.4837-3.7599v-12.9581l6.4837 3.2899z" fill="#f86544"/><path d="m80.7353 85.7055-2.8742 2.0142v-13.4282l2.8073-1.477z" fill="#b12f11"/><path d="m90.962 69.5243-2.8074 1.5442-6.4167-3.357 2.8741-1.4771z" fill="#d83b17"/><path d="m88.2215 93.7625-6.4168-3.7599-.0668-22.2907 6.4167 3.357z" fill="#f86544"/><path d="m90.962 91.6137-2.7405 2.1485-.0668-22.6936 2.8073-1.5442z" fill="#b12f11"/><path d="m77.3263 64.5559c-1.5373 0-3.2752-.4028-5.1468-.8057-2.4062-.5371-5.1467-1.2085-7.8204-1.0742-.9358.0671-1.7379-.6714-1.7379-1.6114-.0668-.94.6684-1.7457 1.6042-1.7457 3.1416-.1342 6.1494.5372 8.7562 1.1414 1.6711.4029 3.2084.7386 4.4116.7386 1.8715 0 3.5426-.4029 5.2805-.8728 2.5399-.6714 5.4809-1.41 9.4246-.94.9358.1343 1.6042.94 1.4705 1.8799-.1337.94-.9358 1.6114-1.8716 1.4771-3.342-.3357-5.6815.2014-8.2215.8728-1.9384.4029-3.8768.94-6.1494.94z" fill="#000" opacity=".1"/><path d="m77.059 63.616c-1.5374 0-3.2753-.4029-5.1468-.8057-2.4063-.5371-5.1468-1.2085-7.8205-1.0743-.9357.0672-1.7378-.6714-1.7378-1.6113-.0669-.94.6684-1.7457 1.6042-1.7457 3.1415-.1343 6.1494.5371 8.7562 1.1414 1.671.4028 3.2084.7385 4.4115.7385 1.8716 0 3.5426-.4028 5.2805-.8728 2.54-.6714 5.481-1.4099 9.4246-.94.9358.1343 1.6042.94 1.4705 1.88-.1337.8728-1.0026 1.5442-1.9384 1.4771-3.342-.3357-5.6815.2014-8.2215.8728-1.8715.47-3.8099.94-6.0825.94z" fill="#fff"/><g fill="#232222" opacity=".15"><path d="m67.768 81.8113 3.6094-.1343v-1.3428l-.8021-.4699z" opacity=".15"/><path d="m77.8611 87.7198 3.8768-.2014v-1.2086l-1.0026-.6042z" opacity=".15"/><path d="m88.2215 93.7623 6.0157-.2686-3.2752-1.8799z" opacity=".15"/></g></g></svg>