<svg width="45" height="35" viewBox="0 0 45 35" fill="none" xmlns="http://www.w3.org/2000/svg">
<path d="M25.3276 29.8851C29.6253 27.3563 34.1522 21.8391 34.9545 17.2989C34.6679 17.4138 33.6365 17.5862 32.6624 17.5862C28.2501 17.5862 24.7546 14.0805 24.7546 9.13793C24.7546 4.1954 28.7658 0 33.8657 0C39.3668 0 44.1802 4.42529 44.1802 12.1839C44.1802 21.4368 39.0802 29.7701 31.7455 35L25.3276 29.8851ZM0.572903 29.8851C4.8706 27.3563 9.3975 21.8391 10.1997 17.2989C9.91322 17.4138 8.88178 17.5862 7.90763 17.5862C3.49533 17.5862 -0.00012207 14.0805 -0.00012207 9.13793C-0.00012207 4.1954 4.01106 0 9.11099 0C14.612 0 19.4255 4.42529 19.4255 12.1839C19.4255 21.4368 14.3255 29.7701 6.99079 35L0.572903 29.8851Z" fill="#FFF5BB"/>
</svg>
