<svg fill="none" height="35" viewBox="0 0 45 35" width="45" xmlns="http://www.w3.org/2000/svg"><path d="m25.3276 29.8851c4.2977-2.5288 8.8246-8.046 9.6269-12.5862-.2866.1149-1.318.2873-2.2921.2873-4.4123 0-7.9078-3.5057-7.9078-8.44827 0-4.94253 4.0112-9.13793 9.1111-9.13793 5.5011 0 10.3145 4.42529 10.3145 12.1839 0 9.2529-5.1 17.5862-12.4347 22.8161zm-24.754697 0c4.297697-2.5288 8.824597-8.046 9.626797-12.5862-.28648.1149-1.31792.2873-2.29207.2873-4.4123 0-7.90775207-3.5057-7.90775207-8.44827 0-4.94253 4.01118207-9.13793 9.11111207-9.13793 5.50101 0 10.31451 4.42529 10.31451 12.1839 0 9.2529-5.1 17.5862-12.43471 22.8161z" fill="#fff5bb"/></svg>