<svg fill="none" height="166" viewBox="0 0 166 166" width="166" xmlns="http://www.w3.org/2000/svg" xmlns:xlink="http://www.w3.org/1999/xlink"><filter id="a" color-interpolation-filters="sRGB" filterUnits="userSpaceOnUse" height="166" width="166" x="0" y="0"><feFlood flood-opacity="0" result="BackgroundImageFix"/><feColorMatrix in="SourceAlpha" type="matrix" values="0 0 0 0 0 0 0 0 0 0 0 0 0 0 0 0 0 0 127 0"/><feOffset dx="4" dy="4"/><feGaussianBlur stdDeviation="5"/><feColorMatrix type="matrix" values="0 0 0 0 0 0 0 0 0 0 0 0 0 0 0 0 0 0 0.25 0"/><feBlend in2="BackgroundImageFix" mode="normal" result="effect1_dropShadow"/><feBlend in="SourceGraphic" in2="effect1_dropShadow" mode="normal" result="shape"/></filter><linearGradient id="b" gradientUnits="userSpaceOnUse" x1="58.2408" x2="126.004" y1="73.6339" y2="73.6339"><stop offset=".3753"/><stop offset="1" stop-opacity="0"/></linearGradient><linearGradient id="c" gradientUnits="userSpaceOnUse" x1="58.2408" x2="126.004" y1="73.6339" y2="73.6339"><stop offset=".1538"/><stop offset="1" stop-opacity="0"/></linearGradient><clipPath id="d"><path d="m28 42h99v75.6448h-99z"/></clipPath><g filter="url(#a)"><circle cx="79" cy="79" fill="#fff" r="73"/></g><g clip-path="url(#d)"><path d="m121.376 80.4061c-7.835-8.8879-24.7246-15.0511-44.376-15.0511s-36.5413 6.1632-44.3761 15.0511h-4.6239v11.0937c0 14.4022 21.9633 26.1452 49 26.1452 27.037 0 49-11.678 49-26.1452v-11.0937z" fill="#d83b17"/><path d="m77 108.238c27.062 0 49-12.4608 49-27.8317 0-15.371-21.938-27.8316-49-27.8316s-49 12.4606-49 27.8316c0 15.3709 21.938 27.8317 49 27.8317z" fill="#f86544"/><path d="m126 80.4063c0-15.3106-21.771-27.7667-48.7431-27.8316-10.789 6.2281-18.4312 12.7805-19.0092 12.7805l5.9083 1.1029 2.1835 2.4004 25.367 25.8853 27.9995-.6488c3.982-4.0871 6.294-8.7582 6.294-13.6887z" fill="url(#b)" opacity=".33"/><path d="m77.2569 52.5747c-10.789 6.2281-18.4312 12.7805-19.0092 12.7805l5.3945.9731.5138.0649 2.1835 2.4004 25.367 25.8853 27.9995-.6488 6.101-.1297c.129-.7785.193-1.6219.193-2.4653v-11.0288c0-15.3106-21.771-27.7667-48.7431-27.8316z" fill="url(#c)" opacity=".33"/><path d="m98.9634 70.9993c0-7.3309-.3211-8.7581-3.2111-10.5098-7.7064-4.671-25.6238-15.6999-31.1467-18.1651-1.2202-.519-2.0551-.3893-2.6331.0649l-5.5871 3.0491 4.2385 5.5144c0 4.152 0 11.8074.0642 15.1809.0642 4.2818 1.3487 5.5144 2.7615 6.4875 5.3303 3.6979 16.8257 10.2504 24.5321 14.5321l3.9174 7.2012 5.523-2.9843v-.0648c1.7339-.7137 1.477-3.9574 1.477-3.9574s.0643-5.6442.0643-16.3487z" fill="#29c5d4"/><path d="m95.7523 60.4895c-2.633-1.6219-6.5504-4.0223-10.6605-6.4875.1284-1.1029 0-2.2707-.3853-3.4384-1.2202-3.5033-4.4312-5.5793-7.1927-4.6062-.1926.0649-.3211.1298-.5137.1946l-2.9542 1.2327c-4.0458-2.2707-7.5137-4.1521-9.4403-5.0603-1.2202-.519-2.0551-.3893-2.6331.0649l-5.5871 3.0491 4.2385 5.5144v6.6173l32.7523 16.4784 5.5872-2.5302c0-.1946 0-.3243 0-.519 0-7.3309-.3211-8.7581-3.2111-10.5098z" fill="#e5d723"/><path d="m93.4402 74.0486c0-7.331-.3211-8.7582-3.211-10.5099-2.6972-1.6867-6.6789-4.0871-10.9174-6.6822.2569-1.2326.1284-2.6598-.3211-4.0871-1.2202-3.5033-4.4312-5.5793-7.1927-4.6062-1.2201.4542-2.1192 1.3624-2.6972 2.5951-4.2385-2.4653-7.9633-4.5413-10.0184-5.4496-4.4954-1.9463-3.9816 4.8008-3.9816 6.2281 0 2.2057 0 13.2994.1284 17.5812.1285 4.2818 1.3487 5.5144 2.7615 6.4876 7.4495 5.19 26.9083 15.8945 31.4037 18.2949 4.4954 2.4003 4.1101-3.5033 4.1101-3.5033s-.1285-5.7091-.0643-16.3486z" fill="#f8f423"/><path d="m55.0366 51.6016c0 2.2057 0 13.2994.1285 17.5812.1284 4.2818 1.3486 5.5144 2.7614 6.4876 7.4496 5.19 26.9083 15.8945 31.4037 18.2949 4.4954 2.4003 4.1101-3.5033 4.1101-3.5033s0-5.7739 0-16.4784z" fill="#48e4f3"/><path d="m75.1282 58.0828c1.5421-.5383 2.2476-2.567 1.5757-4.5312-.6718-1.9643-2.4666-3.1202-4.0087-2.5819s-2.2476 2.567-1.5757 4.5312c.6718 1.9643 2.4666 3.1202 4.0087 2.5819z" fill="#48e4f3"/><g fill="#fff"><path d="m74.3027 66.7822v1.557l14.578 8.4987v-1.557z"/><path d="m74.3027 70.9341v1.557l14.578 8.4987v-1.6219z"/><path d="m74.3027 75.0215v1.557l14.578 8.5636v-1.6219z"/><path d="m74.3027 79.1733v1.5571l14.578 8.4986v-1.6218z"/><path d="m68.9084 77.6166c.6422.3243.8348-.1947.8348-.5839 0-1.1029-.0642-3.3087-.0642-4.0872.0642-2.2057.1285-2.9843-3.8532-5.6441-.2569-.1947-.1284-.5839.1927-.6488 1.0917-.4541 1.6055-4.671-1.4771-6.228-3.3394-1.7517-3.5321 3.3735-2.6972 4.6061.2568.3244.0642.7136-.2569.6488-2.4404-.3244-3.7248-.4542-3.6606 1.4272v3.0492c0 .3892-.1284 1.1029.578 1.4272.2569.1298 9.7615 5.7091 10.4037 6.0335z"/></g></g></svg>