<svg fill="none" height="166" viewBox="0 0 166 166" width="166" xmlns="http://www.w3.org/2000/svg" xmlns:xlink="http://www.w3.org/1999/xlink"><filter id="a" color-interpolation-filters="sRGB" filterUnits="userSpaceOnUse" height="166" width="166" x="0" y="0"><feFlood flood-opacity="0" result="BackgroundImageFix"/><feColorMatrix in="SourceAlpha" type="matrix" values="0 0 0 0 0 0 0 0 0 0 0 0 0 0 0 0 0 0 127 0"/><feOffset dx="4" dy="4"/><feGaussianBlur stdDeviation="5"/><feColorMatrix type="matrix" values="0 0 0 0 0 0 0 0 0 0 0 0 0 0 0 0 0 0 0.25 0"/><feBlend in2="BackgroundImageFix" mode="normal" result="effect1_dropShadow"/><feBlend in="SourceGraphic" in2="effect1_dropShadow" mode="normal" result="shape"/></filter><linearGradient id="b" gradientUnits="userSpaceOnUse" x1="62.0254" x2="129.003" y1="73.2496" y2="73.2496"><stop offset=".2803"/><stop offset="1" stop-opacity="0"/></linearGradient><g filter="url(#a)"><circle cx="79" cy="79" fill="#fff" r="73"/></g><path d="m124.282 80.2917c-7.995-9-25.2296-15.2409-45.282-15.2409s-37.287 6.2409-45.2818 15.2409h-4.7182v11.2335c0 14.6498 22.4115 26.4748 50 26.4748 27.588 0 50-11.825 50-26.4748v-11.2335z" fill="#16a6b3"/><path d="m79 108.474c27.614 0 50-12.6174 50-28.1821 0-15.5648-22.386-28.1825-50-28.1825-27.6142 0-50 12.6177-50 28.1825 0 15.5647 22.3858 28.1821 50 28.1821z" fill="#29c5d4"/><path d="m78.9998 52.1094c-5.9633 0-11.6645.5912-16.9725 1.6423l9.7641 10.708 2.2281 2.4307 6.6841 27.5255 48.2964-1.9051c0-.3284.065-.6569.065-.9197v-11.2992c-.065-15.5694-22.477-28.1825-50.0652-28.1825z" fill="url(#b)" opacity=".33"/><path d="m53.6397 31.6787c-.3932.7883 0 12.1533 7.9292 21.1533 3.6042 4.073-.3277-3.8102-.3277-3.8102s-4.7182-6.8978-5.1114-13.073c.7864.3941 4.3906 2.4306 4.3906 2.4306l.7208-2.4306c.0656.0657-5.2424-2.9562-7.6015-4.2701z" fill="#e5d723"/><path d="m91.7783 81.5401c-2.4901-2.4964-7.0773-4.1387-12.3197-4.1387-5.2425 0-9.8297 1.6423-12.3198 4.1387l-1.1796.197-.7863 1.3796v2.6934c0 4.6643 6.422 8.4088 14.3512 8.4088s14.2857-3.7445 14.2857-8.4088v-2.6934l-2.0315-.7883z" fill="#c1b121"/><path d="m79.4587 91.1969c7.9259 0 14.3512-3.7647 14.3512-8.4087 0-4.6441-6.4253-8.4088-14.3512-8.4088-7.926 0-14.3513 3.7647-14.3513 8.4088 0 4.644 6.4253 8.4087 14.3513 8.4087z" fill="#f3eb23"/><path d="m74.4785 71.4233v9.0657c0 1.6424 2.2281 2.8905 5.0459 2.8905 2.7523 0 5.0459-1.3138 5.0459-2.8905v-9.0657z" fill="#c1b121"/><path d="m60.5859 39.0366s.4588 7.3577.983 13.8613c.2621 3.6132.5898 6.9635.9174 8.6059 1.2451 7.3576 7.4705 14.1898 17.038 14.1898s15.7929-6.8322 17.038-14.1898c.7864-4.73 1.9004-22.4672 1.9004-22.4672z" fill="#f3eb23"/><path d="m79.4588 50.073c10.4232 0 18.8729-4.9412 18.8729-11.0365s-8.4497-11.0365-18.8729-11.0365-18.8729 4.9412-18.8729 11.0365 8.4497 11.0365 18.8729 11.0365z" fill="#f8f423"/><path d="m79.4588 46.7223c8.3241 0 15.0721-3.4118 15.0721-7.6204 0-4.2087-6.748-7.6205-15.0721-7.6205s-15.0721 3.4118-15.0721 7.6205c0 4.2086 6.748 7.6204 15.0721 7.6204z" fill="#c1b121"/><path d="m61.3068 36.0145-7.6672-4.3358 1.5073-.854 7.0773 3.9416z" fill="#f3eb23"/><path d="m104.426 58.9414-1.442.854s.524 8.4745-4.587 11.1022c7.208-2.6277 6.029-11.9562 6.029-11.9562z" fill="#c1b121"/><path d="m60.9792 45.4086c-1.8349-2.365-3.211-8.5402-3.211-8.5402-.7209-.3941-1.3762-.7226-1.6383-.9197.3932 6.1752 5.1114 13.073 5.1114 13.073-.0655-1.2482-.1311-2.4306-.2621-3.6131z" fill="#c1b121"/><path d="m89.8781 48.2338c-2.9489 1.1167-6.5531 1.8394-10.4194 1.8394-5.7667 0-10.8781-1.511-14.3513-3.8759 0 5.781.8519 26.6058 14.2857 28.7737 15.6619 2.562 11.9922-21.219 11.9922-21.219z" fill="#e5d723"/><path d="m88.8296 48.5621c-.9829 20.1022-3.342 22.5986-9.8296 27.0657h.4587c6.0944 0 10.8781-2.8248 13.827-6.7007 2.9489-6.8978 3.4731-20.1022 3.5387-25.6205-1.6383 2.2336-4.4561 4.073-7.9948 5.2555z" fill="#d6c129"/><path d="m89.0918 51.9122 1.5727-.9854 13.7615 8.0146-1.442.854z" fill="#f3eb23"/><path d="m89.0918 67.4815c11.4682 4.27 11.2712-6.438 11.2712-6.438l-11.2712-6.1752v-2.9562l13.8922 7.8832s1.049 16.4234-13.7611 10.7081c-.0656-1.2482-.0656-1.2482-.1311-3.0219z" fill="#e5d723"/><path d="m100.363 61.0439c-.7209 10.2482-8.7156 5.6497-9.5675 5.7154-.7864.3284-.7208.2627-1.6383.7226 11.4028 4.2701 11.2058-6.438 11.2058-6.438z" fill="#c1b121"/><path d="m71.5952 66.102s.3277-1.7738 2.0315-2.2993c-1.6383-.9197-1.7694-3.1533-1.7694-3.1533s-.3276 2.365-2.1625 2.8248c1.7694.7884 1.9004 2.6278 1.9004 2.6278z" fill="#fffefd"/><path d="m86.2739 45.9341c.2621-.0657.4587-.1314.7209-.1971l-.3277-.6569z" fill="#b12f11"/><path d="m79.4587 46.7228c-.4588 0-.983 0-1.4417-.0657l-1.5072 3.3504v15.1751l4.1939-3.8102 5.0459 5.1241v-16.5547s1.7693-3.7446 2.097-4.4672c-2.4246.7883-5.2425 1.2482-8.3879 1.2482z" fill="#000" opacity=".1"/><path d="m86.6674 45.0801c-1.4417.3284-5.4391.6569-7.2084.6569-.7864 0-1.5727-.0657-2.2936-.0657l-1.8348 4.1387v15.1752l4.1939-3.8102 5.0459 5.1241v-16.6205c-.0655 0 2.0315-4.4014 2.097-4.5985z" fill="#f86544"/><path d="m66.4182 47.051s.5898-3.219 3.6042-4.073c-2.9489-1.5767-3.0799-5.584-3.0799-5.584s-.5898 4.2044-3.8663 4.9927c3.0799 1.4453 3.342 4.6643 3.342 4.6643z" fill="#fffefd"/></svg>