<svg fill="none" height="209" viewBox="0 0 344 209" width="344" xmlns="http://www.w3.org/2000/svg"><circle cx="318" cy="205" fill="#29c5d4" r="4"/><circle cx="37" cy="84" fill="#ffb636" r="4"/><circle cx="338" cy="117" fill="#ffb636" r="6"/><circle cx="297" cy="161" fill="#29c5d4" r="4"/><circle cx="57" cy="175" fill="#29c5d4" r="6"/><g fill="#f86544"><circle cx="305" cy="60" r="4"/><circle cx="4" cy="151" r="4"/><circle cx="196" cy="4" r="4"/></g><path d="m221.242 158.528-105.74 45.998c-3.556 1.048-6.587.349-8.977-2.038-2.448-2.445-3.089-5.415-2.04-8.967l46.05-107.1934z" fill="#f3eb23"/><path d="m106.7 203.012c-2.506-2.504-3.264-5.648-2.215-9.432l3.789-8.501.933-1.281c18.07-27.949 36.723-55.49 55.843-82.565l21.451 22.068c-9.677 7.162-23.608 19.971-41.795 38.487-18.187 18.4-30.836 32.141-38.006 41.224z" fill="#e5d723"/><path d="m197.577 110.957c9.909 10.073 17.079 19.564 21.626 28.356 4.546 8.851 5.304 14.906 2.39 18.283-3.556 3.144-9.793 2.446-18.595-2.038-8.861-4.541-18.245-11.761-28.271-21.776-9.968-9.957-17.255-19.389-21.801-28.24-4.547-8.8501-5.305-15.0221-2.39-18.5739 3.555-2.9695 9.793-2.2125 18.595 2.2126 8.918 4.4252 18.361 11.7033 28.446 21.7763z" fill="#93851d"/><path d="m150.593 149.736c-.233 2.096-1.399 3.144-3.497 3.144-2.099 0-3.148-1.048-3.148-3.144s1.049-3.144 3.148-3.144c2.098 0 3.264 1.048 3.497 3.144z" fill="#f7f9aa"/><path d="m230.569 180.77c.933.932 1.399 2.096 1.399 3.494 0 1.339-.466 2.503-1.399 3.493-.932.932-2.098 1.397-3.497 1.397s-2.507-.465-3.498-1.397c-.932-.932-1.399-2.096-1.399-3.493 0-1.34.467-2.504 1.399-3.494.933-.932 2.157-1.397 3.614-1.397 1.341 0 2.449.465 3.381 1.397zm28.096-70.628c-.932-.932-2.098-1.397-3.497-1.397s-2.506.465-3.497 1.397c-.933.932-1.399 2.096-1.399 3.494 0 1.397.466 2.503 1.399 3.493.932.932 2.098 1.398 3.497 1.398 1.341 0 2.507-.466 3.497-1.398.933-.931 1.399-2.154 1.399-3.61 0-1.339-.466-2.445-1.399-3.377z" fill="#ffb636"/><path d="m214.014 71.2472c-.641 3.1442-2.331 5.4732-5.071 6.9289-2.099 1.2809-4.314 1.8632-6.645 1.8632l-2.215-.2911c-1.866-.2329-3.498 0-4.722.6405-.641.4075-1.049 1.1645-1.282 2.2125-.234 1.0481 0 1.805.641 2.2126 1.049 1.0481 2.39 1.805 4.08 2.2126 3.556.6405 6.412 2.0379 8.511 4.2505 2.098 2.2126 2.973 4.7745 2.506 7.744-.408 2.9691-2.098 5.2401-5.071 6.9291-2.099 1.048-4.314 1.572-6.645 1.572h-2.215c-1.691-.408-3.265-.233-4.722.64-.641.233-1.107.816-1.399 1.864-.291 1.048 0 1.979.933 2.853.932.815 2.39 1.455 4.255 1.863 1.865.407 2.74 1.572 2.506 3.493-.233 1.864-1.282 2.97-3.147 3.145l-.641-.291c-3.381-.408-6.121-1.805-8.219-4.076-2.099-2.329-2.973-4.95-2.507-7.861.408-2.969 2.04-5.182 4.896-6.754 2.857-1.572 5.83-2.154 8.977-1.747 1.691.408 3.148.233 4.43-.64.816-.2331 1.341-.8154 1.574-1.747s-.116-1.8632-.932-2.8531c-.816-.9316-2.099-1.5139-3.789-1.7468h-.292c-3.147-.6404-5.829-2.0379-8.044-4.2504-2.215-2.2126-3.089-4.8328-2.681-7.8605.408-3.0278 1.982-5.2986 4.721-6.7542 2.74-1.4557 5.771-1.9797 9.152-1.5721 1.69.2329 3.148 0 4.43-.6405.816-.4076 1.341-1.1645 1.574-2.2126.233-1.048 0-1.805-.641-2.2126-1.05-1.048-2.507-1.805-4.43-2.2125-1.866-.4076-2.682-1.6304-2.39-3.61.291-1.9797 1.399-2.9696 3.322-2.9696 3.381.6405 6.179 2.0379 8.336 4.2505 2.39 2.0962 3.264 4.6581 2.856 7.6276z" fill="#bea4ff"/><path d="m127.219 96.75c0 1.4557-.525 2.7367-1.574 3.785-1.049 1.048-2.39 1.572-3.964 1.572s-2.914-.524-3.964-1.572c-1.049-1.0483-1.573-2.3875-1.573-3.9596s.524-2.9113 1.573-3.9594c1.05-1.048 2.39-1.5721 3.964-1.5721s2.915.5241 3.964 1.5721c1.049 1.1063 1.574 2.4455 1.574 4.134zm42.319 74.704c-1.865 0-3.439.582-4.605 1.747-1.166 1.164-1.749 2.678-1.749 4.599 0 1.864.583 3.436 1.749 4.6 1.166 1.165 2.682 1.747 4.605 1.747 1.865 0 3.439-.582 4.605-1.747 1.166-1.164 1.749-2.678 1.749-4.6 0-1.863-.583-3.435-1.749-4.599-1.224-1.165-2.74-1.747-4.605-1.747zm82.365-27.716c1.458 0 2.624-.64 3.498-1.863.816-2.329.291-4.076-1.574-5.357l-2.856-1.572c-4.605-3.377-11.367-5.939-20.227-7.744s-18.945 1.514-30.312 9.957c-1.865 1.455-2.04 3.144-.466 5.065 1.574 1.864 3.323 2.213 5.188.932 9.268-6.929 17.487-9.665 24.599-8.21 7.17 1.456 12.94 3.785 17.371 6.929l3.147 1.572c.467.175.991.291 1.632.291zm-24.657-53.6257c-1.865 0-3.439.6405-4.605 1.8632-1.165 1.281-1.748 2.7949-1.748 4.5416 0 1.805.583 3.3189 1.748 4.5999 1.166 1.281 2.682 1.863 4.605 1.863 1.866 0 3.44-.64 4.605-1.863 1.166-1.281 1.749-2.7949 1.749-4.5999s-.583-3.3188-1.749-4.5416c-1.165-1.2227-2.681-1.8632-4.605-1.8632z" fill="#f86544"/><path d="m119 53.4301c0 1.9797-1.049 2.9696-3.148 2.9696-2.098 0-3.147-.9899-3.147-2.9696 0-1.9796 1.049-3.0859 3.147-3.3188 2.099.1746 3.148 1.2809 3.148 3.3188zm47.682 43.32c-.641 0-1.166-.1164-1.574-.2911-1.865-1.2809-2.448-2.9113-1.574-5.0656l1.283-2.5037c1.282-2.3291 2.448-4.7163 3.614-7.2783 1.166-2.5037 1.749-5.1238 1.749-7.8605.408-6.5212-3.148-12.635-10.726-18.2829-1.69-1.4556-1.865-3.0859-.466-4.8909 1.34-1.805 2.973-2.0379 4.896-.8152 9.443 6.9289 14.107 14.9058 13.873 23.9308-.233 3.7847-.991 7.2783-2.39 10.4224-1.398 3.1442-2.681 5.8809-3.963 8.2099-.642.8151-1.05 1.6885-1.283 2.5037-.816 1.281-1.982 1.9214-3.439 1.9214zm68.784-33.7127c-2.099 0-3.148 1.0481-3.148 3.1442s1.049 3.1442 3.148 3.1442c2.098 0 3.264-1.0481 3.497-3.1442-.233-2.0961-1.399-3.1442-3.497-3.1442z" fill="#29c5d4"/></svg>