<svg fill="none" height="486" viewBox="0 0 533 486" width="533" xmlns="http://www.w3.org/2000/svg" xmlns:xlink="http://www.w3.org/1999/xlink"><clipPath id="a"><path d="m104 0h342v453h-342z"/></clipPath><g clip-path="url(#a)"><path d="m275.093 342.308c94.492 0 171.093-76.628 171.093-171.154 0-94.5257-76.601-171.154-171.093-171.154s-171.093 76.6283-171.093 171.154c0 94.526 76.601 171.154 171.093 171.154z" fill="#f8f423" opacity=".2"/><path d="m277.139 453c18.693 0 33.846-8.746 33.846-19.534s-15.153-19.534-33.846-19.534-33.847 8.746-33.847 19.534 15.154 19.534 33.847 19.534z" fill="#16a6b3"/><path d="m228.972 376.725v37.393c0 15.069 21.573 27.348 48.353 27.348 26.779 0 48.352-12.279 48.352-27.348v-37.393z" fill="#29c5d4"/><path d="m228.972 391.422c12.088 7.069 29.012 11.348 47.795 11.348 19.341 0 36.636-4.651 48.91-12.092v-13.953h-96.705z" fill="#16a6b3"/><path d="m332.558 331.89c-12.088-10.418-32.545-17.116-55.791-17.116-23.247 0-43.889 6.884-55.791 17.116h-11.345v21.208c0 21.208 30.128 38.51 67.136 38.51s67.135-17.302 67.135-38.51v-21.208z" fill="#29c5d4"/><path d="m276.581 370.214c37.078 0 67.135-17.242 67.135-38.51s-30.057-38.51-67.135-38.51-67.136 17.242-67.136 38.51 30.058 38.51 67.136 38.51z" fill="#48e4f3"/><path d="m275.837 79.2517c-.372 0-.558 0-.744 0s-.558 0-.744 0c-126.274 1.8604-148.776 141.9463-71.227 198.1293 10.229 7.442 14.134 25.115 15.436 35.533 3.719 39.998 45.563 41.672 56.349 41.672h.186.186c10.786 0 52.63-1.674 56.349-41.672 1.302-10.604 5.207-28.091 15.436-35.533 77.549-56.183 55.047-196.2689-71.227-198.1293z" fill="#f8f423"/><path d="m285.321 294.31c-1.115-20.65-1.487-38.137-.558-52.09 18.226 1.116 27.152-4.465 31.43-10.046 6.323-7.999 4.835-18.418 2.603-25.859-2.418-7.814-14.506-16.929-26.594-9.116-7.439 4.837-11.344 17.86-13.204 37.952-1.115-.186-2.231-.372-3.161-.558-2.418-.372-5.393-1.303-8.555-2.605-1.488-25.673-5.951-49.486-16.737-54.881-5.579-2.79-13.948-3.721-21.015 2.233-6.509 5.767-6.509 15.441-4.463 23.068 3.905 13.581 21.387 26.79 35.892 33.859.93 19.348.558 40.742-.558 58.974-15.435 3.534-26.593 12.278-26.593 22.696 0 13.395 18.597 24.371 41.471 24.371s41.471-10.79 41.471-24.371c-.372-11.348-13.575-20.836-31.429-23.627zm10.601-91.902c4.649-3.721 14.133-.372 16.737 6.511 2.046 5.582 2.976 13.395-1.674 19.348-4.649 5.767-13.39 8.372-25.85 7.628 1.674-17.86 5.394-29.022 10.787-33.487zm-64.904-1.674c-1.488-5.209-1.302-12.651 3.347-16.743 3.534-3.163 9.299-2.977 13.018-1.117 7.439 3.721 11.345 22.511 13.018 45.951-12.646-6.697-26.408-17.673-29.383-28.091zm35.52 93.39c.744-12.836 1.488-34.044.744-54.88 2.604.93 5.021 1.674 7.067 2.046 1.302.186 2.604.372 3.905.558-.929 13.953-.743 31.254.558 51.904-1.301 0-2.417-.186-3.719-.186-2.976 0-5.765.186-8.555.558z" fill="#f86544" opacity=".32"/><path d="m210.151 157.508s2.086-13.25 14.668-17.108c-12.162-6.473-13.33-22.95-13.33-22.95s-2.099 17.49-15.363 21.054c12.944 5.598 14.025 19.004 14.025 19.004z" fill="#fffefd"/></g><path d="m477.823 466.359c-26.483 0-47.952-12.388-47.952-27.67 0-15.283 21.469-27.671 47.952-27.671 26.484 0 47.953 12.388 47.953 27.671 0 15.282-21.469 27.67-47.953 27.67z" fill="#647ddd" opacity="0"/><path d="m413.886 226.334c-6.172 0-11.394-4.744-11.711-10.911-.474-6.482 4.432-12.175 10.92-12.491 3.007-.158 8.863-2.53 14.402-6.483 2.69-1.897 4.906-4.427 6.647-7.431 0-.159.158-.159.158-.317l16.3-25.931c3.482-5.535 10.762-7.116 16.301-3.637s7.122 10.752 3.64 16.286l-16.142 25.616c-3.324 5.692-7.755 10.594-12.978 14.388-8.704 6.325-18.674 10.436-26.745 11.069-.317-.158-.633-.158-.792-.158z" fill="#d4f7fa"/><g fill="#641e0f"><path d="m488.901 424.616c-.158.316-.158.632-.316.948z"/><path d="m488.901 424.616c0-.158 0-.158.158-.158.159-.633.317-1.265.475-1.898z"/><path d="m506.31 426.513c-.159-3.795-1.741-6.325-5.856-6.799-2.69-.316-5.697-.474-8.071.791-1.583.79-2.849 2.213-3.324 3.953-1.582 4.427-6.33 42.059 3.007 37.316 10.129-5.376 14.56-25.299 14.244-35.261z"/><path d="m471.968 410.227c-7.596-8.855-16.142 3.637-20.257 8.855-2.691 3.478-12.344 12.807-11.237 17.709.317 1.739.634 1.581 2.216 2.056 1.741.474 3.482.158 5.223-.158 9.02-2.214 16.142-7.274 20.098-15.022.159 2.214.159 4.269.159 6.483 0 .474.475.791.949.474.792-.474 1.741-1.106 2.532-1.739 3.007-2.214 1.741-5.376 2.533-9.013.791-3.162.158-6.957-2.216-9.645z"/></g><path d="m502.828 420.979c.95 1.898.95 4.111.633 6.325-.949 6.325-4.589 14.863-10.128 18.816-.475.316-1.108.791-1.741.791-1.266 0-1.899-1.107-2.216-2.214-.791-2.53-.475-7.748-.158-10.278.475-3.32.791-6.799 1.266-10.119l-11.869-83.013-2.058-31.466-1.741-30.992-3.323 66.253-1.108 64.829c0 .632.158-.633 0 0 4.115 6.799-10.445 17.235-15.193 18.974-2.374.791-6.647 1.265-6.014-2.688.159-1.739 1.425-3.004 2.374-4.427 1.425-2.056 5.698-8.223 5.381-10.752-.158-.791-9.654-71.629-9.654-71.629l-2.374-96.927 24.056 9.803 39.09-5.692-6.489 18.342.475 76.53z" fill="#ff8358"/><path d="m450.761 224.278-4.589 6.958c-3.64 5.534-5.381 11.859-5.381 18.341l1.266 94.398s43.363 21.188 65.836-2.846l.949-67.517s5.381-38.107-10.761-46.962z" fill="#175e65"/><path d="m469.12 141.74s0 .158 0 0c.158 0 .158-.158.158-.316-.158.158-.158.316-.158.316z" fill="#3772ce"/><path d="m506.31 180.005-3.324 12.491-6.488 37.791c-.633 2.53-5.223 4.585-7.438 5.692-6.014 3.004-17.725 4.427-34.976-2.846-2.69-1.107-4.589-3.637-5.222-6.641l-6.805-27.987-.158-.633c-.792-4.269-.159-8.855 1.74-12.65l6.331-12.017v-6.483c0-7.589 6.805-13.123 13.61-11.068l6.172 2.056 16.617 5.692 14.244 4.902c4.431 1.739 6.963 6.799 5.697 11.701z" fill="#a2dee4"/><path d="m506.31 180.005-3.324 12.491c-1.74 2.056-3.323 4.111-5.064 6.167-3.482 4.269-7.122 8.854-12.028 11.068-8.071 3.795-17.408.633-25.637-2.846-5.065-2.214-10.129-4.427-15.193-6.799-.95-.475-2.058-.949-3.007-1.581l-.158-.633c-.792-4.269-.159-8.855 1.74-12.65l6.331-12.017v-6.483c0-7.589 6.805-13.123 13.61-11.068l6.172 2.056 16.617 5.692 14.244 4.902c4.431 1.739 6.963 6.799 5.697 11.701z" fill="#d4f7fa"/><path d="m486.369 163.56c-4.589 3.953-9.495 7.432-14.559 10.752-1.741 1.107-3.64 2.214-5.698 1.898-.474 0-.949-.158-1.266-.474-.633-.633-.475-1.74-.316-2.689 1.108-5.217 2.848-10.277 5.064-15.021z" fill="#ff8358"/><path d="m486.369 141.74v21.662l-17.25 1.581v-23.243z" fill="#ff8358"/><path d="m486.369 149.488-17.092 12.965-.158 1.265v-15.495z" fill="#ff8358"/><path d="m500.771 117.073c-.475-16.128-14.876-12.65-28.645-11.543-1.266.158-2.532.158-3.798.633-1.108.316-1.899.948-2.849 1.739-8.071 6.009-13.61 15.18-12.502 24.509 2.057 17.393 26.746 24.034 39.881 11.226 7.122-6.957 8.071-17.077 7.913-26.564z" fill="#18828c"/><path d="m452.502 138.103c.158 5.06 1.108 10.12 3.957 13.756 3.323 4.112 8.545 5.851 13.61 6.009 2.69 0 5.697-.316 8.071-1.739 4.589-2.847 6.805-8.697 7.913-14.389.475-2.214.791-4.269.949-6.483.159-2.53 0-4.902-.791-7.274-1.424-5.218-5.064-9.329-9.337-12.017s-9.179-3.953-14.085-4.427c-2.374-.316-4.906-.316-7.122.79-1.424.791-2.532 2.372-2.848 3.953-.159.633-.159 1.265 0 1.74-.159 4.585-.317 9.171-.475 13.756.158 2.056 0 4.269.158 6.325z" fill="#ff8358"/><path d="m445.539 129.881c6.963-.791 13.61-2.214 20.257-4.428 4.748-1.581 9.495-3.795 12.977-7.273 3.482-3.637 5.697-8.855 4.273-13.599-8.071-1.106-16.459-2.213-24.055.791-9.021 3.637-15.193 13.598-14.56 23.244z" fill="#18828c"/><path d="m484.787 105.847c4.273-8.0646 17.408-9.3296 23.106-2.056 5.697 7.115 1.582 19.607-7.122 22.137-6.489 1.739-14.085-1.898-16.617-8.223-2.532-6.324.633-14.23 6.647-17.235z" fill="#18828c"/><path d="m464.055 122.449c1.74 4.111 3.956 8.064 7.28 11.069 3.323 3.004 7.596 5.059 12.027 5.217 2.058 0 4.431-.474 5.697-2.055.792-.791 1.108-1.898 1.425-3.004 1.108-4.27.949-9.013-.791-13.124-1.741-4.111-5.381-7.432-9.654-8.539-4.59-1.265-9.496.158-13.452 2.688-2.849 1.74-5.381 4.902-4.59 8.064z" fill="#18828c"/><path d="m488.408 137.581.559.956-13.118 7.658-.558-.955z" fill="#641e0f"/><path d="m482.097 144.428c.317.316.792.316 1.108.158 0-.158 0-.316 0-.316z" fill="#ff8358"/><path d="m489.851 136.68c-1.74-.633-3.481 1.265-4.273 3.478-.316 1.107-.633 2.372-1.107 3.321-.317.474-.792.949-1.267 1.107-.474 1.739.475 3.953 1.9 4.269 1.424.474 3.007-.474 4.273-1.739s2.532-3.163 2.69-5.376c.316-2.056-.633-4.586-2.216-5.06z" fill="#ff8358"/><path d="m461.206 137.47c.316-1.106.949-1.423 1.899-.948.791.474 1.582 1.581 1.899 3.162l.475-.158c-.475-1.897-1.266-3.479-2.374-3.953-1.108-.633-1.899-.158-2.374 1.265z" fill="#fab300"/><path d="m461.206 137.47c.316-1.106.949-1.423 1.899-.948.791.474 1.582 1.581 1.899 3.162l.475-.158c-.475-1.897-1.266-3.479-2.374-3.953-1.108-.633-1.899-.158-2.374 1.265z" fill="#641e0f"/><path d="m472.601 150.911c.633 0 1.108-.158 1.583-.475 1.107-.632 1.74-2.055 1.74-3.953 0-3.478-2.532-7.906-5.539-9.645-1.582-.949-3.165-1.107-4.273-.316-1.107.632-1.741 2.055-1.741 3.953 0 3.478 2.533 7.906 5.54 9.645.949.474 1.899.791 2.69.791zm-4.748-13.599c.633 0 1.266.159 2.058.633 2.848 1.581 5.064 5.534 5.064 8.696 0 1.424-.475 2.53-1.266 3.005-.792.474-1.899.316-3.165-.316-2.849-1.582-5.065-5.535-5.065-8.697 0-1.423.475-2.53 1.266-3.004.317-.317.633-.317 1.108-.317z" fill="#641e0f"/><path d="m458.516 142.847c.633 0 1.108-.159 1.582-.475 1.108-.632 1.741-2.055 1.741-3.953 0-3.478-2.532-7.906-5.539-9.645-1.582-.949-3.165-1.107-4.273-.316-1.108.632-1.741 2.055-1.741 3.953 0 3.478 2.533 7.906 5.539 9.645.95.474 1.9.791 2.691.791zm-4.748-13.757c.633 0 1.266.158 2.057.633 2.849 1.581 5.065 5.534 5.065 8.696 0 1.423-.475 2.53-1.266 3.004-.792.475-1.899.317-3.166-.316-2.848-1.581-5.064-5.534-5.064-8.696 0-1.423.475-2.53 1.266-3.005.317-.158.633-.316 1.108-.316z" fill="#641e0f"/><path d="m505.834 204.83 4.906-10.436-4.114-1.898c-.633-.316-1.266-.158-1.741 0l-33.234 19.133c-.634.316-.95.949-.95 1.581v51.073c0 .79.475 1.423 1.108 1.739l1.899.949c1.108.474 2.374 0 2.849-1.107l2.532-5.218 26.587-15.338z" fill="#fff"/><path d="m510.741 247.68-32.127 18.5c-1.266.79-2.848-.158-2.848-1.739v-46.962c0-1.739.949-3.479 2.532-4.269l32.443-18.816z" fill="#18828c"/><path d="m522.769 232.659c-3.798 0-7.438-2.056-9.337-5.851l-21.524-44.273c-2.532-5.06-.316-11.227 4.748-13.757s11.237-.316 13.769 4.744l21.523 44.273c2.532 5.06.316 11.227-4.748 13.757-1.424.79-3.007 1.107-4.431 1.107z" fill="#d4f7fa"/><g fill="#ff8358"><path d="m405.974 223.646c-9.179 0-25.005-1.107-37.507-8.222-4.273-2.372-5.697-7.748-3.323-12.018 2.374-4.269 7.754-5.692 12.027-3.32 13.294 7.59 34.184 5.692 34.342 5.692 4.906-.474 9.179 3.163 9.654 8.064.475 4.902-3.165 9.171-7.913 9.646-.316-.158-3.165.158-7.28.158z"/><path d="m473.709 251.949c-4.906 0-8.863-3.953-8.863-8.855 0-4.901 3.957-8.854 8.863-8.854 35.291 0 40.197-13.282 40.356-13.282.791-4.744 5.38-8.064 10.128-7.274 4.748.791 8.071 5.376 7.28 10.12-.475 2.846-6.172 28.145-57.764 28.145z"/><path d="m480.04 239.616c-1.583 1.106-3.799.632-4.906-.949l-4.906-6.799c-1.108-1.581-.792-3.795.791-4.902s3.798-.632 4.906.949l4.906 6.957c1.108 1.581.791 3.795-.791 4.744z"/><path d="m385.242 204.671c0 5.693-2.057 10.278-4.589 10.278s-4.59-4.585-4.59-10.278c0-5.692 2.058-10.277 4.59-10.277 2.532.158 4.589 4.743 4.589 10.277z"/><path d="m106.253 302.033c-3.598 0-7.0322-2.29-8.5042-5.888l-22.7335-61.495c-1.799-4.58.6542-9.813 5.3972-11.612 4.5794-1.799 9.813.654 11.6121 5.397l22.7334 61.495c1.799 4.579-.654 9.813-5.397 11.612-1.145.327-2.126.491-3.108.491z"/></g><path d="m95.2951 226.636-11.9391-56.098-.1636-.327c-2.2897-4.579-7.6869-7.36-12.9205-6.378-3.271.49-6.0513 2.289-7.8504 4.906-1.799 2.453-2.4532 5.397-1.799 8.341l11.9391 55.934.1636.327c1.9626 4.089 6.2149 6.542 10.7943 6.542.6542 0 1.3084 0 1.9626-.163.1636 0 .3271 0 .4907-.164 6.2149-.981 10.4672-7.032 9.3223-12.92z" fill="#d4f7fa"/><path d="m52.445 434.181c-2.2897 0-4.4158 1.799-5.2336 3.925-.9813 2.127-.9813 4.58-.9813 6.87 0 1.962.1636 4.252 1.472 5.724.9813.981 2.2897 1.308 3.5981 1.635 2.4532.655 4.7429 1.309 7.1962 1.472 2.7803.164 5.5607-.163 8.3411.327 1.799.328 3.4345.818 5.2336 1.309 4.9065 1.145 10.1401.981 15.0466-.327 1.1448-.327 2.1261-.654 2.9439-1.636 1.1448-1.472.8177-3.761-.4907-5.233-1.1448-1.472-2.9439-2.29-4.5794-3.108-5.07-2.29-10.3036-4.743-15.3737-7.033-5.0701-2.289-10.1401-4.579-15.7008-4.742-1.7991 0-4.0888.817-3.9252 2.453z" fill="#175e65"/><path d="m56.5334 442.849h-.4906c-3.4346-.327-5.8878-3.271-5.5607-6.705l.8177-10.304c.3271-3.434 3.271-5.888 6.7056-5.561h.4906c3.4346.328 5.8878 3.271 5.5607 6.706l-.8177 10.304c-.4907 3.271-3.4346 5.724-6.7056 5.56z" fill="#d4f7fa"/><path d="m33.8003 461.985c.9813 1.799 1.9626 3.598 2.9439 5.233.9813 1.799 1.9626 3.598 2.6168 5.561.9813 2.78 2.9439 8.341.4907 10.958-3.5981 3.925-9.6495.491-12.5934-2.126-4.4158-4.089-8.6682-8.505-12.4298-13.248-1.6355-1.962-3.271-4.252-3.7617-6.705-1.47192-7.851 2.9439-18.809 12.5934-16.192 3.4346.981 4.9065 3.435 5.7243 6.542.9813 3.598 2.6168 6.869 4.4158 9.977z" fill="#175e65"/><path d="m21.8612 458.387h-.4906c-3.4346 0-6.215-2.781-6.215-6.215v-10.304c0-3.434 2.7804-6.215 6.215-6.215h.4906c3.4346 0 6.2149 2.781 6.2149 6.215v10.304c0 3.434-2.7803 6.215-6.2149 6.215z" fill="#d4f7fa"/><path d="m52.9353 242.5-32.3829 11.122-12.9205 14.719 3.9252 92.897v81.121c0 4.252 3.4346 7.687 7.6869 7.687h5.3971c4.0888 0 7.3598-3.108 7.6869-7.033l8.1775-96.822 2.6168-36.635 6.7056-2.78 3.1074 43.995-3.7616 75.56c-.1636 4.579 3.5981 8.177 8.0139 7.85l3.7617-.327c3.5981-.327 6.3785-2.944 6.8691-6.378l12.2663-83.575v-87.008z" fill="#16a6b3"/><g fill="#d4f7fa"><path d="m8.28667 283.552c4.90653 4.579 14.22893 4.579 23.87833 2.78h.1636c10.4672-2.126 21.2615-6.542 27.3129-10.304.4906-.327 2.1261-1.145 4.5794-2.289 2.4532-1.145 5.3972-2.617 8.5046-4.253 8.3411-4.089 12.2663-13.738 9.4859-22.406-6.0513-17.991-8.9952-37.944-3.271-54.953 1.3084-3.598 3.1075-7.36 3.7617-10.958.1635-.654.9813-1.145.9813-1.799v-1.635l-.6542 2.289c2.1261-11.285.1635-21.916-12.5934-29.439-2.4532-1.472-5.8878-1.962-9.6495-1.962-1.6355 0-3.5981 0-5.3971.327-12.4298 2.289-21.9158 5.397-29.112 9.486-.1635.163-.3271.163-.4906.327 0 0 0 0-.1636 0-6.7056 3.925-11.4485 8.831-15.0466 14.556-4.90653 8.014-7.35979 17.99-9.15884 30.093-2.61681 17.99-2.289706 71.799 6.86911 80.14z"/><path d="m25.6226 158.763 7.3598 6.869c-.9813-3.435-3.5981-5.725-6.8691-7.196-.1636.163-.3271.327-.4907.327z"/><path d="m8.28655 283.552c4.90655 4.579 14.22885 4.579 23.87835 2.78-2.2897-9.813-7.1962-19.299-6.0514-29.439.8178-7.196 4.743-14.556 2.6168-21.425-.6542-2.29-1.9626-4.252-2.9439-6.379-5.07-11.121-1.3084-23.878 1.9626-35.654 3.1075-11.612 5.0701-25.023-2.1261-34.509-6.7056 3.925-11.4485 8.832-15.0466 14.556-4.90655 8.014-7.35981 17.991-9.15886 30.094-2.61681 17.827-2.289708 71.635 6.86911 79.976z"/></g><path d="m33.8001 165.632c3.9252 4.416 9.813 10.958 13.2475 14.883 1.472 1.635 4.2524 1.472 5.5608-.327l7.6868-10.631 10.9579 1.962c1.3084.164 2.6168-.817 2.6168-2.126v-3.434c0-7.524-5.2336-14.066-12.7569-15.701-2.4533-.491-5.0701-.818-7.6869-.818-7.3598 0-13.9018 2.126-18.4812 5.397-3.5981 2.454-4.0887 7.524-1.1448 10.795z" fill="#a2dee4"/><path d="m42.7954 157.618c0 1.799.8178 3.434 2.1262 4.579 2.1261 2.126 5.5607 3.434 9.3223 3.434 3.7617 0 7.0327-1.308 9.1589-3.271 1.4719-1.308 2.2897-2.943 2.2897-4.742 0-1.8-.8178-3.435-2.2897-4.743-.1636-.164-.3271-.328-.4907-.328-1.6355-1.308-3.7617-2.289-6.3785-2.616-.3271 0-.8177-.164-1.1448-.164s-.8178 0-1.1449 0c-3.9252 0-7.3597 1.308-9.3223 3.435-1.472 1.144-2.1262 2.616-2.1262 4.416z" fill="#175e65"/><path d="m44.7582 133.085v29.112c2.1262 2.126 5.5608 3.434 9.3224 3.434 3.7617 0 7.0327-1.308 9.1588-3.271v-29.275z" fill="#ff8358"/><path d="m62.5853 161.543-3.4345-1.472c-5.5608-2.29-9.486-7.196-10.4673-13.084l-1.3084-7.36-1.6355-2.453h1.472l7.1962.327c3.1074 3.107 6.3785 6.051 8.9953 9.486z" fill="#ff8358" opacity=".064575"/><path d="m43.6138 130.632c-.1635 1.145.9813 2.126 2.1262 3.271.3271.327.8177.818 1.1448 1.145 0 0 0 0 .1636.163.3271.327.4906.654.6542.818.3271.327.4906.818.4906 1.145 0 1.472.3271 2.78.4907 4.252.9813 4.416 3.4345 8.341 6.542 11.285.6542.654 1.4719 1.145 2.2897 1.799 1.4719 1.145 3.271 1.963 5.0701 2.453.6542.164 1.3084.328 2.1261.491 4.4159.654 9.3224-.491 13.9018-4.089 2.4532-1.962 4.0887-4.579 5.2336-7.523.6542-1.635 1.1449-3.598 1.6355-5.397.4907-2.126.8178-4.252.9813-6.215.4907-3.271.9813-6.542 1.3084-9.813.1636-1.308.3271-2.617.4907-3.925.1635-.491.3271-1.145.3271-1.799 0-1.636-.9813-3.435-2.4533-4.416-2.1262-1.636-4.9065-2.126-7.5233-2.29-5.3972-.327-10.9579-.163-16.0279 1.636-5.0701 1.799-9.8131 5.397-12.2663 10.14-.9813 1.799-6.3785 4.416-6.7056 6.869z" fill="#ff8358"/><path d="m41.4875 111.987c1.3084-4.906 3.5981-8.668 7.0326-11.285 3.1075-2.4532 6.8691-3.9251 11.285-4.4158 2.7803-.3271 5.5607-.4906 8.3411.1636 3.7616.9813 7.0326 3.4345 10.4672 5.0702 3.5981 1.799 7.6869 2.617 11.1214 4.743 3.4346 1.962 6.542 5.56 6.2149 9.649s-4.0887 7.36-8.1775 8.178c-4.0888.981-8.1775.163-12.2663-.654-2.7803-.491-8.341-2.781-11.1214-1.963-4.0888 1.308-3.7617 7.36-6.2149 9.977-.6542.817-1.7991 1.308-2.9439.981-2.4533-.654-2.7804-4.252-4.9065-5.561-1.472-.818-3.5981-.163-4.5794 1.309-.9813 1.471-.9813 3.434-.1636 5.07.8178 1.635 3.1075 2.289 3.7617 3.598.6542 1.145 0 2.78-.4907 4.252-.4906 1.308-1.6355 2.453-3.1074 2.78-10.4673 1.799-5.3972-27.313-4.2523-31.892z" fill="#641e0f"/><path d="m40.5056 278.645 54.6258-29.766 51.3546 30.747-59.3685 33.855-47.9203-28.621c-.6542-.491-1.1448-1.145-1.1448-2.126 0-1.799.9813-3.271 2.4532-4.089z" fill="#29c5d4"/><path d="m89.4079 310.701 59.3691-33.855-48.9019-29.439c-1.4719-.981-3.4345-.981-5.07 0l-54.4623 31.238c-.9813.654-.9813 2.126 0 2.617z" fill="#fff"/><path d="m116.557 260.818-47.7566 25.677 19.6261 13.248 46.2845-26.495z" fill="#a2dee4"/><path d="m63.4029 270.467 22.897-14.065 11.7757 6.869-23.2242 14.392z" fill="#a2dee4"/><path d="m84.1738 307.43 7.0327-52.663c.1635-1.145.9813-2.29 2.1261-2.944l28.1304-16.028 26.168-15.537c.655-.491 1.472-.491 2.127-.491.654 0 5.233 2.617 5.233 2.617l-2.944 1.635-6.869 50.21c-.163 1.145-.981 2.29-2.126 2.944l-52.3362 33.364c-2.2897 1.472-6.3784-1.635-6.542-3.107z" fill="#29c5d4"/><path d="m151.393 222.383-26.332 15.538-28.1306 16.028c-1.1449.654-1.9626 1.799-2.1262 2.944l-7.0326 51.191c-.3271 2.617 2.1261 4.089 4.5794 2.78l54.462-31.565c1.145-.654 1.963-1.799 2.126-2.944l7.033-51.191c.327-2.617-2.29-4.253-4.579-2.781z" fill="#175e65"/><path d="m10.0851 183.131v58.388c0 7.687 3.7617 15.047 9.9766 19.626l42.8502 9.322c1.9626 1.472 4.0888 2.127 6.3785 2.127 3.271 0 6.542-1.472 8.6681-4.416 3.4346-4.743 2.4533-11.449-2.2897-15.047l-42.8502-9.322c-.8177-.491-1.1448-1.472-1.1448-2.29v-58.388c0-5.887-4.743-10.794-10.7943-10.794-6.0514.164-10.7944 4.907-10.7944 10.794z" fill="#ff8358"/><path d="m19.7349 169.066c-7.0327 0-12.75693 7.033-12.75693 15.701v55.934l.16355.164c2.94388 4.743 6.37848 7.032 11.44848 7.032.8178 0 1.472 0 2.2897-.163 3.1075-.327 7.3598-1.963 11.285-4.58l.3271-.163v-58.224c0-8.668-5.7242-15.701-12.7569-15.701z" fill="#d4f7fa"/><path d="m76.8139 278.972c-1.799 0-3.4345-1.472-3.4345-3.435v-14.228c0-1.799 1.4719-3.435 3.4345-3.435 1.7991 0 3.4346 1.472 3.4346 3.435v14.228c0 1.963-1.4719 3.435-3.4346 3.435z" fill="#ff8358"/><path d="m113.286 290.911c3.108-5.561 10.795-10.14 17.173-10.14s8.995 4.416 5.888 9.813c-3.108 5.561-10.795 10.14-17.173 10.14s-8.995-4.416-5.888-9.813z" fill="#ff8358"/></svg>