<?xml version="1.0" standalone="no"?>
<!DOCTYPE svg PUBLIC "-//W3C//DTD SVG 20010904//EN"
 "http://www.w3.org/TR/2001/REC-SVG-20010904/DTD/svg10.dtd">
<svg version="1.0" xmlns="http://www.w3.org/2000/svg"
 width="255.000000pt" height="255.000000pt" viewBox="0 0 255.000000 255.000000"
 preserveAspectRatio="xMidYMid meet">
<metadata>
Created by potrace 1.11, written by Peter Selinger 2001-2013
</metadata>
<g transform="translate(0.000000,255.000000) scale(0.100000,-0.100000)"
fill="#000000" stroke="none">
<path d="M1190 2275 c-315 -86 -502 -391 -435 -708 20 -96 51 -158 128 -259
37 -48 67 -90 67 -93 0 -3 -42 -5 -93 -5 -121 0 -168 -22 -213 -97 -58 -98
-72 -319 -28 -469 46 -161 124 -259 258 -324 107 -52 186 -64 391 -57 177 6
240 19 345 72 187 94 266 240 277 510 4 110 2 144 -17 220 -23 98 -69 202
-124 283 -20 28 -36 54 -36 57 0 3 21 5 47 5 91 0 177 68 203 159 5 20 15 76
21 124 31 258 -64 431 -297 545 l-99 47 -170 2 c-126 2 -184 -1 -225 -12z
m427 -189 c69 -32 135 -94 160 -154 11 -25 18 -78 21 -159 6 -178 12 -173
-177 -173 -112 0 -150 3 -154 13 -2 7 0 51 6 99 9 76 9 89 -7 112 -39 60 -96
59 -146 -4 -27 -34 -33 -52 -38 -105 -4 -56 -1 -72 22 -119 15 -30 46 -76 69
-103 112 -126 231 -279 247 -317 105 -237 74 -552 -66 -675 -106 -93 -259
-123 -447 -87 -96 19 -121 32 -181 95 -65 71 -94 137 -105 249 -11 101 0 255
20 278 9 11 42 14 144 14 111 0 135 -3 146 -17 9 -11 15 -49 17 -117 4 -159
36 -213 123 -204 88 8 115 187 49 335 -25 57 -76 128 -155 218 -81 92 -165
218 -182 273 -27 92 -6 259 47 363 30 57 108 132 172 163 88 43 154 56 258 53
79 -3 105 -8 157 -31z"/>
</g>
</svg>
