<svg fill="none" height="34" viewBox="0 0 34 34" width="34" xmlns="http://www.w3.org/2000/svg"><path d="m26.7147 17.1361c-.0441-1.2242-1.0449-2.1801-2.2406-2.1385-.5298.0189-1.0339.2418-1.4165.6158-1.6851-1.1788-3.6645-1.8249-5.6991-1.8702l.9603-4.74181 3.1678.68387c.0883.83504.8167 1.43954 1.6298 1.34884.8132-.0907 1.4018-.8388 1.3135-1.67378-.0883-.835-.8168-1.43953-1.6299-1.34885-.4672.04912-.8867.32871-1.1184.74433l-3.6278-.74433c-.2465-.05668-.493.10201-.5482.35894v.00755l-1.0927 5.27454c-2.0603.034-4.0655.6839-5.7727 1.8702-.86826-.8387-2.23693-.7972-3.05372.0983-.81678.8917-.77631 2.2972.09566 3.136.16925.1624.36425.3022.58132.4005-.01472.2229-.01472.4458 0 .6687 0 3.4043 3.86314 6.1738 8.62774 6.1738s8.6278-2.7657 8.6278-6.1738c.0147-.2229.0147-.4458 0-.6687.7432-.3816 1.2104-1.1675 1.1957-2.0214zm-14.8015 1.5226c0-.8387.666-1.5226 1.4828-1.5226.8167 0 1.4827.6839 1.4827 1.5226 0 .8388-.666 1.5227-1.4827 1.5227-.8205-.0076-1.4828-.6839-1.4828-1.5227zm8.5984 4.2393c-1.0523.8123-2.34 1.1675-3.6572 1.1108-1.3171.0567-2.6049-.3589-3.6571-1.1712-.1398-.1738-.1141-.4346.0552-.5781.1471-.1247.3569-.1247.5077 0 .8904.6687 1.9757 1.0088 3.0795.9559 1.1038.0604 2.1928-.2645 3.0942-.9257.1619-.1625.4268-.1587.585.0076.1582.1662.1545.4382-.0073.6007zm-.276-2.607c-.8168 0-1.4717-.7406-1.4717-1.5794 0-.8387.666-1.5226 1.4828-1.5226.8167 0 1.4827.6839 1.4827 1.5226.0331.8388-.6034 1.5454-1.4202 1.5794-.0257 0-.0478 0-.0736 0z" fill="#fff"/><circle cx="17" cy="17" r="16.5" stroke="#fff"/></svg>