<svg fill="none" height="34" viewBox="0 0 34 34" width="34" xmlns="http://www.w3.org/2000/svg"><path d="m20.9111 10h-8.296c-1.4428 0-2.6151 1.213-2.6151 2.7059v2.8576 5.7306c0 1.4929 1.1723 2.7059 2.6151 2.7059h8.2997c1.4428 0 2.6151-1.213 2.6151-2.7059v-5.7345-2.8576c-.0038-1.489-1.176-2.702-2.6188-2.702zm.7514 1.6134h.3006v.3072 2.0644l-2.2844.0078-.0075-2.3716zm-6.8307 3.9462c.4321-.6221 1.1347-1.0264 1.9313-1.0264.7928 0 1.4991.4082 1.9312 1.0264.2818.4043.4509.9019.4509 1.4346 0 1.3568-1.0708 2.4648-2.3821 2.4648s-2.3821-1.1041-2.3821-2.4648c0-.5327.169-1.0264.4508-1.4346zm7.3755 5.7306c0 .7387-.5823 1.3413-1.2962 1.3413h-8.296c-.7139 0-1.2963-.6026-1.2963-1.3413v-5.7306h2.0176c-.1728.4432-.2742.9292-.2742 1.4346 0 2.111 1.6607 3.8256 3.6971 3.8256 2.0402 0 3.6972-1.7184 3.6972-3.8256 0-.5093-.0977-.9914-.2743-1.4346h2.0176z" fill="#fff"/><circle cx="17" cy="17" r="16.5" stroke="#fff"/></svg>