<svg fill="none" height="33" viewBox="0 0 240 33" width="240" xmlns="http://www.w3.org/2000/svg" xmlns:xlink="http://www.w3.org/1999/xlink"><linearGradient id="a"><stop offset="0" stop-color="#fff"/><stop offset=".0684" stop-color="#f86544"/><stop offset=".9807" stop-color="#d83b17"/></linearGradient><linearGradient id="b" gradientUnits="userSpaceOnUse" x1="89.856" x2="89.856" xlink:href="#a" y1="28.6837" y2="3.08237"/><linearGradient id="c" gradientUnits="userSpaceOnUse" x1="101.614" x2="101.614" xlink:href="#a" y1="28.8513" y2="3.0583"/><linearGradient id="d"><stop offset="0" stop-color="#fff"/><stop offset=".0563" stop-color="#48e4f3"/><stop offset=".0991" stop-color="#41ddec"/><stop offset=".2323" stop-color="#29c5d4"/><stop offset=".7405" stop-color="#29c5d4"/></linearGradient><linearGradient id="e" gradientUnits="userSpaceOnUse" x1="201.093" x2="201.093" xlink:href="#d" y1="28.8513" y2="3.0583"/><linearGradient id="f" gradientUnits="userSpaceOnUse" x1="114.002" x2="114.002" xlink:href="#a" y1="28.9232" y2="3.08256"/><linearGradient id="g" gradientUnits="userSpaceOnUse" x1="131.528" x2="131.528" xlink:href="#a" y1="28.8119" y2="2.97335"/><linearGradient id="h" gradientUnits="userSpaceOnUse" x1="170.051" x2="170.051" xlink:href="#a" y1="28.8126" y2="3.05821"/><linearGradient id="i" gradientUnits="userSpaceOnUse" x1="179.155" x2="179.155" xlink:href="#a" y1="28.7889" y2="3.05888"/><linearGradient id="j" gradientUnits="userSpaceOnUse" x1="189.245" x2="189.245" xlink:href="#d" y1="28.9138" y2="3.101"/><linearGradient id="k" gradientUnits="userSpaceOnUse" x1="214.128" x2="214.128" xlink:href="#d" y1="28.6285" y2="3.01724"/><linearGradient id="l" gradientUnits="userSpaceOnUse" x1="229.885" x2="229.885" xlink:href="#d" y1="28.607" y2="3.03004"/><linearGradient id="m" gradientUnits="userSpaceOnUse" x1="150.554" x2="150.554" xlink:href="#a" y1="28.8171" y2="3.085"/><linearGradient id="n" gradientUnits="userSpaceOnUse" x1="39.3496" x2="39.3496" y1="30.5958" y2="4.69224"><stop offset="0" stop-color="#fff"/><stop offset=".0472" stop-color="#f86544"/><stop offset=".7405" stop-color="#29c5d4"/></linearGradient><path d="m82.8276 24.3423c-.301-1.3574-.2124-2.7679-.0649-4.1548.0295-.2892.0826-.6197.3305-.7908.1829-.1298.4307-.1357.6609-.1416.6196-.0059 1.2334-.0119 1.853-.0178-.0885-.0059-.177-.0118-.2597-.0059-.9383.006-1.8766.0178-2.8149.0237-.2301 0-.4721.0118-.6609.1416-.2479.1711-.301.5016-.3305.7908-.1475 1.381-.236 2.7915.0649 4.1548.301 1.3574 1.0328 2.6794 2.2366 3.4466.9678.6138 2.154.8263 3.3165.8794.3777.0177.7554.0177 1.1331-.0059-1.1272-.059-2.2779-.2774-3.2221-.8735-1.2098-.7672-1.9415-2.0833-2.2425-3.4466z" fill="#8a2611"/><path d="m92.3876 11.2525c-.118-.1003-.1298-.2715-.1239-.4249.0295-.7023.2478-1.39284.1947-2.09514-.0531-.70231-.5134-1.45773-1.2393-1.52265-.2596-.0236-.4957.05313-.7081.18296.419.27738.6845.82034.7199 1.33969.0531.7023-.1652 1.39284-.1947 2.09514-.0059.1534.0059.3246.1239.4249.0944.0826.2361.0944.3659.1062.655.0354 1.3042.0531 1.9592.0531.2479 0 .4957-.0059.7495-.0118-.4957-.0059-.9914-.0118-1.4871-.0413-.1181-.0118-.2597-.0236-.36-.1062z" fill="#8a2611"/><path d="m89.307 24.1951c.2715-.0649.5016-.236.6846-.4367.3128-.3482.478-.8085.5429-1.2688.177-1.2158-.0649-2.5319-.5842-3.6414-1.1213-2.3961-3.5054-3.9541-4.6679-6.3266-.956-1.9417-.6728-4.49713.3836-6.35027 1.0445-1.82362 3.0214-2.85052 5.0927-3.02167-2.4903-.20656-5.0691.83804-6.3143 3.02167-1.0563 1.85314-1.3396 4.40857-.3836 6.35027 1.1626 2.3725 3.5467 3.9364 4.6679 6.3266.5193 1.1095.7613 2.4256.5842 3.6414-.0649.4603-.2301.9147-.5429 1.2688-.1062.1181-.2242.2184-.36.2951.2774.1535.5902.2184.897.1416z" fill="#8a2611"/><path d="m96.7606 27.0803c.1475-.8557.3717-1.7115.5488-2.5613.36-1.7115.7022-3.423 1.0327-5.1404.9147-4.745 1.5815-9.52537 2.4079-14.28215.094-.66099.248-1.41052.826-1.74101.289-.16525.637-.18885.974-.20656.478-.0236.95-.03541 1.428-.04721-.885-.0118-1.765 0-2.65.04721-.336.01771-.679.04131-.974.20656-.5779.33049-.7313 1.08592-.8257 1.74101-.8262 4.75678-1.499 9.53715-2.4077 14.28215-.3305 1.7174-.6728 3.4289-1.0328 5.1404-.177.8557-.4013 1.7056-.5488 2.5613-.0885.5135-.0177 1.2984.4898 1.5758.3777.2065.8321.2007 1.2629.1888.1829-.0059.36-.0118.5429-.0177-.2065-.0236-.4013-.0708-.5842-.1711-.5075-.2774-.5783-1.0623-.4898-1.5758z" fill="#8a2611"/><path d="m196.238 27.0803c.147-.8557.372-1.7115.549-2.5613.36-1.7115.702-3.423 1.032-5.1404.915-4.745 1.582-9.52537 2.408-14.28215.095-.66099.248-1.41052.826-1.74101.289-.16525.638-.18885.974-.20656.478-.0236.95-.03541 1.428-.04721-.885-.0118-1.764 0-2.65.04721-.336.01771-.678.04131-.973.20656-.579.33049-.732 1.08592-.826 1.74101-.827 4.75678-1.499 9.53715-2.408 14.28215-.331 1.7174-.673 3.4289-1.033 5.1404-.177.8557-.401 1.7056-.549 2.5613-.088.5135-.017 1.2984.49 1.5758.378.2065.832.2007 1.263.1888.183-.0059.36-.0118.543-.0177-.207-.0236-.401-.0708-.584-.1711-.502-.2774-.579-1.0623-.49-1.5758z" fill="#18828c"/><g fill="#8a2611"><path d="m116.948 9.15744c.012-.56066-.047-1.20984-.513-1.53443-.354-.24787-.844-.20066-1.222 0 .467.32459.52.97377.514 1.53443-.018.93246-.089 1.87086-.213 2.79736 1.021.1712 2.06.2302 3.099.1889-.626-.0236-1.252-.0885-1.871-.1889.124-.9265.195-1.859.206-2.79736z"/><path d="m114.098 23.7815c.679-.4131 1.086-1.1626 1.287-1.924.2-.7613.218-1.558.306-2.337-.348-.3187-1.091.0826-1.31-.3305-.065-.124-.041-.2656-.017-.4013.171-1.0269.342-2.0479.513-3.0748.024-.1476.059-.3128.171-.4072.106-.0886.254-.1004.396-.1122.436-.0295.867-.0472 1.304-.0531-.844-.0177-1.688 0-2.526.0531-.142.0118-.289.0236-.395.1122-.118.1003-.148.2596-.171.4072-.172 1.0269-.343 2.0479-.514 3.0748-.023.1357-.041.2832.018.4013.218.4131.962.0118 1.31.3305-.089.7849-.106 1.5757-.307 2.337-.201.7614-.608 1.5109-1.286 1.924-.124.0767-.26.1298-.396.177.514.1771 1.139.1122 1.617-.177z"/><path d="m107.442 27.1216c-.72-.8321-1.074-1.9299-1.181-3.0158-.112-1.0918.006-2.1836.13-3.2754.502-4.3496 1.151-8.7227 2.673-12.83033.809-2.18364 2.101-4.00727 4.468-4.62695.484-.12984.985-.19476 1.481-.23017-.909-.05311-1.824 0-2.703.23017-2.36.61968-3.653 2.44331-4.467 4.62695-1.528 4.11353-2.172 8.48073-2.673 12.83033-.124 1.0859-.242 2.1836-.13 3.2754s.466 2.1837 1.18 3.0158c.744.8617 1.835 1.3928 2.963 1.6289.838.177 1.693.2006 2.549.1534-.449-.0236-.891-.0649-1.328-.1534-1.127-.2302-2.219-.7613-2.962-1.6289z"/><path d="m136.346 3.95185c.053-.25968.124-.53116.319-.71412.165-.15344.395-.20065.631-.21836-.324-.0059-.643-.0118-.968-.0118-.312 0-.655.0177-.885.23016-.195.17706-.26.45444-.319.71412-.755 3.51151-1.321 7.06435-1.711 10.63485.266 1.8413.519 3.6886.773 5.5358.289-5.4355 1.009-10.84732 2.16-16.17065z"/><path d="m131.601 28.2967c-.413-.3541-.519-.9383-.596-1.4754-.696-4.6151-1.392-9.2362-2.089-13.8513-.135 1.5934-.312 3.181-.501 4.7686.454 3.0275.914 6.0551 1.369 9.0886.082.5371.189 1.1213.596 1.4754.277.2361.643.3305 1.003.3954.691.1181 1.399.1535 2.101.1004-.295-.0177-.584-.0472-.873-.1004-.366-.0708-.738-.1593-1.01-.4013z"/><path d="m121.664 27.7241c.814-4.5266 1.634-9.0532 2.46-13.5799.413-2.2603.827-4.52657 1.24-6.78693.2-1.08591.253-2.36068.625-3.39938.224-.63148.785-.81444 1.387-.86165-.248-.00591-.502-.0059-.749-.0118-.768-.0118-1.576.07672-1.859.87345-.372 1.0328-.425 2.31347-.626 3.39938-.413 2.26036-.832 4.52663-1.239 6.78693-.826 4.5267-1.647 9.0533-2.461 13.5799-.047.2538-.083.5488.077.7554.177.2243.501.242.785.2361.318-.0059.643-.0059.961-.0118-.206-.0177-.401-.0709-.525-.2243-.159-.2066-.118-.4957-.076-.7554z"/><path d="m166.873 24.5602c-.177-.1653-.224-.4308-.26-.6728-.442-3.0394-.891-6.0788-1.333-9.1123-.195 1.446-.39 2.8919-.59 4.3437.23 1.5935.466 3.181.696 4.7745.035.242.083.5075.26.6728.153.1475.377.1888.59.2183.543.0827 1.092.1358 1.64.1653.207.0118.419.0118.614-.0472-.342-.0295-.69-.0649-1.033-.1181-.2-.0413-.425-.0826-.584-.2242z"/><path d="m172.568 28.2784c0-.3069.041-.661.071-.8085.484-2.8623.968-5.7188 1.457-8.5811.195-1.1626.396-2.3253.591-3.4879-.626 1.2688-1.246 2.5377-1.871 3.8125-.466 2.7502-.933 5.5063-1.399 8.2565-.023.1475-.071.5016-.071.8085 0 .2892.048.5312.189.5312h1.222c-.148.0059-.189-.242-.189-.5312z"/><path d="m170.443 15.6958c2.078-3.8066 4.096-7.64274 6.138-11.46704.076-.14754.159-.29509.236-.44854.106-.20065.224-.41311.413-.54295.141-.09443.313-.13574.484-.15344.147 0 .289-.00001.436-.00591-.212 0-.424-.0059-.643-.0059-.342 0-.678.0059-1.021.0059-.171.01771-.342.05312-.484.15345-.189.12984-.307.3423-.413.54296-.076.14754-.159.29508-.236.44852-2.012 3.76529-4.001 7.54825-6.043 11.29585.089.5843.177 1.1686.26 1.7587.289-.5311.584-1.0564.873-1.5816z"/><path d="m158.363 27.4701c1.346-7.9438 2.697-15.8816 4.043-23.82528.029-.15935.059-.3305.183-.43673.124-.11213.307-.11803.478-.11803.897-.0059 1.794-.0118 2.691-.02361-.071-.0059-.148-.0059-.219-.0059-1.233.0118-2.466.0177-3.7.02951-.165 0-.348.0059-.478.11803-.124.10623-.159.27738-.183.43673-1.345 7.94368-2.696 15.88148-4.042 23.82528-.047.2891-.177 1.3396.118 1.3396h1.222c-.29.0059-.16-1.0505-.113-1.3396z"/></g><path d="m191.647 13.0576c-.16-.183-.183-.4426-.177-.6846.017-.6197.23-1.2158.389-1.8118.16-.59611.284-1.2335.118-1.83547-.165-.59608-.678-1.14494-1.304-1.16264-.23-.0059-.454.06491-.655.17114.354.21247.626.58428.738.9856.165.59607.047 1.23346-.118 1.83547-.166.596-.372 1.1921-.39 1.8118-.006.242.018.4957.177.6846.219.2538.596.2774.927.2833.909.0177 1.811.0354 2.72.0531.112 0 .23 0 .343-.0177-.614-.0118-1.228-.0236-1.842-.0354-.33 0-.708-.0295-.926-.2774z" fill="#18828c"/><path d="m188.619 23.8353c.472-.2951.797-.779 1.039-1.2748.395-.8026.637-1.6761.708-2.5672.035-.4368.083-.9679.484-1.1627.035-.0177.071-.0295.106-.0354-.248-.0118-.49-.0236-.738-.0354-.2-.0118-.413-.0177-.596.0708-.401.1948-.448.7259-.483 1.1627-.071.8911-.313 1.7646-.709 2.5672-.242.4958-.56.9797-1.038 1.2748-.065.0413-.13.0708-.201.1003.437.2302 1.009.1594 1.428-.1003z" fill="#18828c"/><path d="m182.576 27.204c-.796-.962-.944-2.284-.967-3.5292-.059-3.2047.478-6.3857 1.085-9.5313.472-2.4492.986-4.91023 1.918-7.22961.443-1.09771 1.009-2.20133 1.989-2.88003.791-.54295 1.765-.74952 2.726-.84395.254-.0236.508-.0354.762-.0413-.661-.02951-1.322-.01771-1.983.0413-.956.09443-1.936.301-2.727.84395-.979.6728-1.552 1.78232-1.988 2.88003-.933 2.31938-1.446 4.78041-1.918 7.22961-.608 3.1456-1.145 6.3266-1.086 9.5313.024 1.2393.171 2.5672.968 3.5292 1.31 1.5757 3.883 1.7351 5.801 1.7115.059 0 .118-.0059.177-.0118-1.729-.0649-3.677-.4013-4.757-1.6997z" fill="#18828c"/><path d="m207.651 27.6349c1.233-6.5037 2.467-13.0015 3.7-19.50521-1.198-.01181-2.39-.02362-3.588-.03542-.183 0-.383-.0118-.507-.14754-.124-.14165-.112-.3541-.089-.53705.136-1.0328.319-2.06561.549-3.08661.248-1.09772.46-1.29247 1.576-1.30427-.378 0-.756 0-1.128 0-1.198 0-1.416.17705-1.67 1.30427-.23 1.021-.413 2.0479-.548 3.08661-.024.18885-.042.40131.088.53705.124.13574.325.14754.508.14754 1.198.0118 2.39.02361 3.588.03542-1.234 6.50371-2.467 13.00151-3.701 19.50521-.053.2773-.094.596.101.8026.171.1829.448.1947.696.1888.331 0 .667-.0059.997-.0059-.177-.0118-.354-.0531-.472-.1829-.188-.2066-.153-.5253-.1-.8026z" fill="#18828c"/><path d="m216.585 8.10697c.673.00589 1.352.0059 2.025.01179.053 0 .106 0 .153-.0059-.726-.0059-1.452-.00589-2.178-.01179.006 0 0 .0059 0 .0059z" fill="#18828c"/><path d="m231.994 3.99341c.129-.27738.271-.56656.525-.74362.259-.18295.59-.20656.903-.21246-.384-.0059-.768-.0118-1.151 0-.336.0059-.702.02361-.98.21836-.253.17705-.395.46624-.525.74362-.879 1.87084-1.764 3.73578-2.644 5.60662.101.65507.195 1.31017.295 1.96527 1.192-2.52594 2.384-5.05186 3.577-7.57779z" fill="#18828c"/><path d="m143.41 27.4937c-.998-.8735-1.523-2.1837-1.688-3.4997-.165-1.3161 0-2.644.177-3.9601.313-2.2839.673-4.562 1.062-6.8342.195-1.1331.39-2.2662.596-3.39937.26-1.3928.514-2.7797.773-4.1725.148-.80264.295-1.60527.449-2.4079.006-.03541.012-.06492.035-.08853 0 0 .006 0 .012-.0059.03-.01771.059-.02361.095-.01771.554.0059 1.115 0 1.67 0 .306-.0118.613-.0059.92-.0059-.071 0-.136-.0059-.206-.0059-.644-.01771-1.293-.0118-1.936.0118-.555 0-1.115.0059-1.67 0-.035 0-.065 0-.094.01771-.006 0-.006 0-.012.0059-.024.02361-.03.05902-.036.08853-.147.80263-.295 1.60526-.442 2.4079-.26 1.3928-.514 2.7797-.773 4.1725-.201 1.13317-.402 2.26627-.596 3.39937-.39 2.2722-.75 4.5503-1.063 6.8342-.177 1.3102-.342 2.644-.177 3.9601.166 1.316.691 2.6321 1.688 3.4997.024.0177.047.0354.071.0531 1.357 1.1331 3.281 1.2984 5.057 1.263.089 0 .183-.0059.272-.0118-1.487-.0473-2.992-.3187-4.113-1.2571-.024-.0118-.048-.0295-.071-.0472z" fill="#8a2611"/><path d="m149.889 23.0382c.714-.7318.927-1.7942 1.116-2.7974 1.05-5.6716 2.1-11.34904 3.151-17.02649.006-.03541.012-.06492.035-.08853 0 0 .006 0 .012-.0059.03-.0177.059-.0236.094-.0177 1.151.0118 2.308-.00001 3.459-.01181-.065-.0059-.13-.0059-.195-.0059-1.493.0059-2.992.02951-4.485.01771-.035 0-.065 0-.094.0177-.006 0-.006 0-.012.0059-.024.02361-.03.05902-.036.08853-1.05 5.67745-2.101 11.34899-3.151 17.02649-.183 1.0032-.401 2.0656-1.115 2.7974-.23.236-.531.4072-.856.5075.661.2597 1.552.0354 2.077-.5075z" fill="#8a2611"/><path d="m96.7364 6.17687c-.4013-1.08592-1.3396-1.95347-2.4077-2.43151-1.1094-.49574-2.3546-.6905-3.5644-.59017-2.0713.17115-4.0482 1.19215-5.0928 3.02168-1.0622 1.85313-1.3395 4.40853-.3835 6.35023 1.1625 2.3725 3.5466 3.9365 4.6679 6.3266.5193 1.1096.7612 2.4256.5842 3.6414-.0649.4603-.2302.9148-.5429 1.2689-.183.2065-.419.3718-.6846.4367-.3068.0767-.6196.0118-.897-.1416-.1888-.1004-.3599-.2479-.4898-.4132-.3127-.4131-.419-.9442-.4249-1.4577-.0118-.7318.1594-1.4695.0532-2.2013-.0355-.2302-.1122-.4781-.301-.6138s-.4426-.1357-.6728-.1357c-.3186 0-.6432.0059-.9619.0059-.6196.0059-1.2333.0118-1.853.0177-.2301 0-.4721.0118-.6609.1416-.2419.1712-.301.5016-.3305.7908-.1475 1.381-.236 2.7915.0649 4.1548.301 1.3574 1.0328 2.6794 2.2366 3.4466.9442.602 2.095.8145 3.2221.8735.0295 0 .059.0059.0885.0059 2.7618.1298 5.5767-.7377 6.7098-3.3699.4957-1.1567.6314-2.4315.6019-3.6826-.0118-.6138-.0708-1.2276-.1711-1.8355-.183-1.0564-.5135-2.0951-1.0446-3.0335-.897-1.5934-2.3723-2.7797-3.4935-4.2138-.8675-1.1036-1.5461-2.4728-1.2983-3.842.0944-.51345.4013-1.0387.8321-1.30427.2124-.12984.4485-.20657.7081-.18296.7259.06491 1.1862.82033 1.2393 1.52264.0531.7023-.1652 1.39279-.1947 2.09509-.0059.1535.0059.3246.1239.4249.0944.0827.236.0945.3659.1063.4957.0295.9914.0354 1.4871.0413.1593 0 .3187.0118.478.0118.2891 0 .5783-.0059.8675-.0177.2773-.0118.5783.0177.832-.1181.2833-.1534.4249-.478.4721-.7849.2125-1.38688.3364-2.96264-.1652-4.31413z" fill="url(#b)"/><path d="m106.332 3.19641c-.106-.07673-.254-.08263-.384-.08853-.655-.01771-1.31-.01771-1.965-.0059-.478.0059-.95.0177-1.428.04721-.336.01771-.678.04131-.974.20656-.578.33049-.731 1.08592-.826 1.74101-.8259 4.75678-1.4927 9.53714-2.4074 14.28214-.3305 1.7174-.6727 3.4289-1.0327 5.1404-.1771.8558-.4013 1.7056-.5488 2.5614-.0886.5134-.0177 1.2983.4898 1.5757.1829.1003.3776.1475.5842.1712.2242.0236.4544.0236.6786.0177.9088-.0296 1.8173-.0531 2.7203-.0827.272-.0059.567-.0295.75-.2242.135-.1417.171-.3482.206-.543 1.228-6.9345 2.461-13.8631 3.689-20.79763.194-1.09772.389-2.19544.584-3.29316.047-.24787.071-.56066-.136-.7082z" fill="url(#c)"/><path d="m205.81 3.19641c-.106-.07673-.254-.08263-.384-.08853-.655-.01771-1.31-.01771-1.965-.0059-.478.0059-.95.0177-1.428.04721-.336.01771-.679.04131-.974.20656-.578.33049-.731 1.08592-.826 1.74101-.826 4.75678-1.499 9.53714-2.408 14.28214-.33 1.7174-.672 3.4289-1.032 5.1404-.177.8558-.402 1.7056-.549 2.5614-.089.5134-.018 1.2983.49 1.5757.177.1003.377.1475.584.1712.224.0236.454.0236.679.0177.908-.0296 1.817-.0531 2.72-.0827.271-.0059.567-.0295.749-.2242.136-.1417.172-.3482.207-.543 1.227-6.9345 2.461-13.8631 3.688-20.79763.195-1.09772.39-2.19544.585-3.29316.047-.24787.07-.56066-.136-.7082z" fill="url(#e)"/><path d="m120.466 4.20577c-.567-.37771-1.24-.56656-1.906-.7141-1.163-.26558-2.361-.41903-3.547-.34821-.502.02951-.997.10033-1.481.23017-2.361.61968-3.653 2.44332-4.468 4.62695-1.528 4.11352-2.171 8.48072-2.673 12.83032-.124 1.0859-.242 2.1836-.13 3.2755.112 1.0918.466 2.1836 1.181 3.0157.743.8617 1.835 1.3928 2.962 1.6289.437.0944.885.1358 1.328.1535.702.0354 1.41 0 2.112-.0709 1.305-.1298 2.668-.4013 3.641-1.2688.838-.7495 1.263-1.8355 1.606-2.8919.985-3.0276 1.552-6.1909 1.681-9.366-1.339-.1475-2.685-.2066-4.03-.177-.437.0118-.868.0295-1.304.0531-.136.0118-.289.0236-.396.1121-.118.1003-.147.2597-.171.4072-.171 1.0269-.342 2.0479-.513 3.0748-.024.1357-.041.2833.018.4013.218.4131.961.0118 1.31.3305-.089.785-.107 1.5758-.307 2.3371-.201.7613-.608 1.5108-1.287 1.924-.478.2891-1.103.36-1.617.177-.218-.0767-.425-.1947-.584-.3718-.443-.4898-.478-1.2039-.454-1.859.041-1.1627.2-2.3194.383-3.4643.337-2.1247.767-4.2375 1.287-6.3267.277-1.1154.584-2.23673 1.139-3.24593.218-.40131.489-.79083.879-1.0269.024-.0177.053-.0236.077-.03541.383-.20065.873-.24787 1.221 0 .466.3246.52.97379.514 1.53445-.018.93249-.089 1.87089-.213 2.79739.62.1004 1.245.1653 1.871.1889.667.0295 1.334.0118 2-.0413.596-.0532.791-.5961.868-1.1981.059-.4426.053-.92065.1-1.25114.266-1.74101.62-4.29645-1.097-5.44139z" fill="url(#f)"/><path d="m141.273 3.2135c-.118-.10033-.283-.11214-.436-.11804-1.098-.06492-2.196-.08853-3.293-.08262-.083 0-.171.0059-.26.0118-.23.01771-.46.06492-.631.21836-.195.17705-.26.45444-.319.71411-1.145 5.32335-1.871 10.73519-2.16 16.17069-.254-1.8472-.502-3.6886-.773-5.5358-.525-3.6177-1.109-7.22959-1.871-10.80013-.035-.17115-.076-.3541-.206-.47804-.16-.15935-.413-.17115-.638-.17705-.944-.01771-1.894-.02951-2.838-.04722-.159 0-.313 0-.472.01181-.608.04131-1.163.22426-1.387.86164-.372 1.0328-.425 2.31348-.625 3.3994-.414 2.26036-.833 4.52659-1.24 6.78699-.826 4.5266-1.646 9.0532-2.461 13.5798-.047.2538-.082.5489.077.7555.124.1593.319.2065.525.2242.089.0059.177.0118.26.0118l3.576-.0354c.148 0 .307-.0059.431-.0944.142-.1062.183-.2892.218-.4603.691-3.4408 1.234-6.9051 1.659-10.3871.194-1.5875.365-3.1751.501-4.7686.697 4.6152 1.393 9.2362 2.089 13.8514.083.537.189 1.1213.596 1.4754.278.2361.643.3305 1.003.3954.29.0531.585.0826.874.1003.637.0414 1.286.0177 1.918-.0826.401-.0649.814-.1652 1.115-.4367.39-.3541.508-.9089.608-1.4282 1.404-7.5011 2.803-15.0022 4.208-22.50327.023-.13574.047-.26558.076-.40132.047-.25968.077-.56656-.124-.73181z" fill="url(#g)"/><path d="m179.956 3.07789c-.224 0-.449-.00587-.673-.00587-.065 0-.13.00587-.2.00587h.289z" fill="#bf3814"/><path d="m181.549 3.16054c-.029-.0177-.059-.0354-.094-.0472-.077-.01181-.148-.01772-.224-.01772-.62-.0059-1.24-.01179-1.859-.01179-.148 0-.289-.00001-.437.0059.047-.00591.1-.0059.148-.0059-.118 0-.236 0-.354 0-.195 0-.39.0059-.585.0059-.147 0-.289-.00001-.436.00589-.171.01771-.343.05313-.484.15345-.189.12984-.307.3423-.413.54296-.077.14754-.16.29508-.236.44853-2.042 3.82431-4.06 7.66044-6.138 11.46704-.289.5311-.578 1.0564-.867 1.5816-.089-.5842-.177-1.1685-.26-1.7587-.584-3.9069-1.162-7.81383-1.747-11.72076-.035-.23607-.088-.50165-.283-.63739-.147-.10033-.336-.10033-.513-.10033-.337 0-.673.0059-1.009.0059-.897.0059-1.794.01181-2.691.02361-.166 0-.349.0059-.478.11803-.124.10624-.154.27739-.183.43673-1.346 7.94371-2.697 15.88151-4.043 23.82521-.047.2892-.177 1.3397.118 1.3397h3.264 1.221c.407 0 .531-.8971.573-1.1863.383-2.8387.767-5.6774 1.156-8.5161.195-1.4459.39-2.8919.59-4.3437.443 3.0394.892 6.0788 1.334 9.1123.036.2419.083.5075.26.6727.153.1476.378.1889.59.2184.342.0531.685.0885 1.033.118.2.0177.407.0355.608.0473.271.0118.554.0177.784-.124.231-.1416.36-.3895.478-.6315.815-1.6583 1.629-3.3167 2.438-4.9751.625-1.2689 1.245-2.5377 1.87-3.8125-.194 1.1626-.395 2.3253-.59 3.4879-.484 2.8623-.968 5.7188-1.457 8.5811-.024.1475-.071.5016-.071.8085 0 .2892.047.5312.189.5312h3.263 1.222c.407 0 .531-.8971.572-1.1863.236-1.7469.472-3.4879.708-5.2348.39-2.2249.779-4.4499 1.174-6.6748.496-2.8387.998-5.6716 1.493-8.51028.207-1.16264.408-2.32527.614-3.48201.006-.0236.006-.04721.012-.07672-.041-.18886-.1-.37772-.26-.48395z" fill="url(#h)"/><path d="m179.372 3.08447c-.094 0-.189 0-.289 0-.047 0-.1 0-.148.0059.148-.0059.295-.0059.437-.0059z" fill="#bf3814"/><path d="m179.372 3.08447c-.094 0-.189 0-.289 0-.047 0-.1 0-.148.0059.148-.0059.295-.0059.437-.0059z" fill="url(#i)"/><path d="m196.846 7.03868c-.059-.78493-.189-1.59346-.661-2.22495-.585-.78493-1.588-1.14493-2.556-1.35739-1.162-.25968-2.36-.3541-3.552-.30099-.254.01181-.508.01771-.761.04132-.956.09443-1.936.30098-2.727.84394-.979.6728-1.552 1.78232-1.989 2.88004-.932 2.31937-1.445 4.78035-1.917 7.22955-.608 3.1457-1.145 6.3267-1.086 9.5313.023 1.2394.171 2.5673.968 3.5292 1.079 1.2984 3.027 1.6348 4.75 1.6997.36.0118.714.0118 1.05.0118 2.095-.0295 4.102-.7141 5.264-2.5259 1.269-1.9712 1.6-4.444 1.747-6.728.018-.2242.012-.4839-.165-.6255-.053-.0414-.118-.0709-.183-.0827-.083-.0177-.165-.0236-.248-.0295-1.115-.0531-2.231-.1003-3.346-.1534-.165-.0059-.33-.0118-.49.0354-.035.0118-.07.0236-.106.0354-.401.1948-.448.7259-.484 1.1626-.071.8912-.313 1.7647-.708 2.5673-.242.4957-.561.9797-1.039 1.2748-.424.2596-.991.3304-1.422.1003-.053-.0295-.106-.059-.153-.0945-.549-.419-.561-1.2216-.514-1.9121.313-4.1843 1.145-8.3214 2.337-12.35228.136-.46623.284-.93837.573-1.32788.153-.20656.354-.38951.578-.51345.201-.11213.425-.18296.655-.17115.626.0177 1.145.56066 1.304 1.16263.165.59608.047 1.23346-.118 1.83543-.165.602-.372 1.1921-.389 1.8118-.006.242.017.4958.177.6846.218.2538.596.2774.926.2833.614.0118 1.228.0236 1.841.0354.296.0059.585.0118.88.0177.212.0059.448 0 .619-.1298.136-.1062.195-.2774.248-.4426.608-1.8768.838-3.85385.697-5.80142z" fill="url(#j)"/><path d="m221.1 3.08953c-.13 0-.254-.0059-.384-.0059-3.777-.04721-7.553-.07082-11.33-.06492-.036 0-.059 0-.095 0-1.109.01181-1.327.20656-1.575 1.30428-.23 1.02099-.413 2.0479-.549 3.0866-.024.18885-.041.40131.089.53705.123.13574.324.14754.507.14754 1.198.0118 2.39.02361 3.588.03542-1.233 6.5037-2.467 13.0015-3.7 19.5052-.053.2773-.095.596.1.8026.118.1298.289.1711.472.1829.077.0059.154.0059.225.0059 1.139-.0118 2.283-.0177 3.422-.0295.213 0 .449-.0118.608-.1534.148-.1299.195-.3364.23-.5253 1.293-6.604 2.591-13.2139 3.883-19.81791v-.00591c.726.0059 1.452.0059 2.178.01181.354 0 .714.00589 1.068.00589.148 0 .307-.0059.413-.10032.094-.08263.13-.20656.159-.32459.301-1.19215.502-2.41381.62-3.64136-.006-.05902-.018-.11803-.024-.17705-.023-.20066-.029-.42493.083-.57837 0-.05902.012-.12984.012-.20066z" fill="url(#k)"/><path d="m221.005 3.88087c.006.05901.018.11803.024.17705.024-.24787.041-.50165.059-.75543-.112.15345-.106.37771-.083.57838z" fill="#18828c"/><path d="m223.413 28.5914c-.224 0-.472-.0118-.62-.1771-.159-.177-.129-.4426-.094-.6786.307-1.9653.614-3.9306 1.045-5.8782.259-1.1744.572-2.3547.607-3.5587.042-1.2511-.206-2.4964-.442-3.724-.673-3.5469-1.234-7.11154-1.682-10.69388-.03-.24197-.035-.53115.165-.67279.106-.07082.242-.07672.372-.08262.873-.01771 1.747-.03541 2.62-.05312-.124-.0177-.248-.0177-.372-.0177-1.156.0236-2.313.04721-3.47.07082-.129 0-.265.0059-.371.08262-.036.02361-.059.05902-.083.09443-.106.15344-.106.38361-.083.57836.006.05902.018.11804.024.17706.443 3.52332.991 7.03482 1.658 10.52272.236 1.2335.484 2.4729.443 3.724-.041 1.204-.348 2.3843-.608 3.5588-.431 1.9416-.738 3.9069-1.045 5.8781-.035.2301-.064.5016.095.6787.147.1652.401.177.62.177 1.392.0059 2.791.0118 4.184.0177v-.0059c-.986-.0118-1.977-.0118-2.963-.0177z" fill="#18828c"/><path d="m237.346 3.20844c-.077-.0236-.159-.03541-.242-.03541-.094-.0059-.195 0-.283-.0118-.366-.03541-.726-.05902-1.092-.08262-.743-.04132-1.493-.05312-2.237-.04131-.023 0-.047 0-.07 0-.319.0059-.649.03541-.903.21246s-.396.46623-.525.74361c-1.192 2.52594-2.385 5.05187-3.577 7.57193-.1-.6551-.194-1.3102-.295-1.9653-.283-1.91215-.572-3.8184-.855-5.73056-.036-.21836-.071-.45444-.23-.61378-.201-.20066-.52-.20656-.803-.20066s-.567.0118-.856.01771c-.873.0177-1.747.0354-2.62.05311-.13 0-.265.0059-.372.08262-.2.13574-.194.43083-.165.6728.443 3.58234 1.003 7.14696 1.682 10.69396.236 1.2334.484 2.4728.443 3.7239-.042 1.204-.349 2.3843-.608 3.5588-.431 1.9416-.738 3.9069-1.045 5.8781-.035.2301-.065.5016.095.6787.147.1652.401.177.619.177.986.0059 1.977.0059 2.963.0118.407 0 .814.0059 1.221.0059.744-2.8977 1.045-5.9076 1.977-8.7522 1.287-3.9188 3.712-7.3417 5.618-10.99491.543-1.04461 1.051-2.11281 1.511-3.19873.277-.66099.537-1.32788.802-1.98888.036-.08262.065-.17115.048-.25377-.012-.10624-.101-.18296-.201-.21247z" fill="url(#l)"/><path d="m159.261 3.1845c-.036-.02951-.077-.04722-.118-.05902-.112-.04131-.242-.04131-.366-.04131-.342 0-.685.0059-1.027.0059-1.151.0118-2.307.02361-3.458.01181-.035 0-.065 0-.095.0177-.005 0-.005 0-.011.0059-.024.02361-.03.05902-.036.08853-1.05 5.67745-2.101 11.34899-3.151 17.02649-.183 1.0032-.401 2.0656-1.115 2.7974-.526.537-1.417.7613-2.078.5075-.236-.0885-.442-.2361-.596-.4603-.342-.5017-.295-1.1627-.224-1.7705.502-4.3555 1.399-8.6519 2.178-12.9661.259-1.42821.501-2.86233.72-4.29645.07-.48984-.042-.86755-.537-.93247-.03-.0059-.059-.0118-.095-.0118-.242-.01181-.484-.01771-.732-.02361-.336-.0059-.678.0059-1.015.0059-.306 0-.613-.0059-.92.0059-.555 0-1.115.0059-1.67 0-.036 0-.065.00001-.095.01771-.006 0-.006 0-.011.0059-.024.02361-.03.05901-.036.08852-.147.80264-.295 1.60527-.448 2.4079-.26 1.39281-.514 2.77972-.773 4.17252-.201 1.13308-.402 2.26628-.596 3.39938-.39 2.2722-.75 4.5502-1.063 6.8342-.177 1.3102-.342 2.644-.177 3.96.166 1.3161.691 2.6322 1.688 3.4998.024.0177.047.0354.071.0531 1.121.9383 2.62 1.2039 4.113 1.257.319.0118.637.0177.95.0118.974-.0177 1.971-.0767 2.88-.4249 1.528-.5784 2.679-1.9121 3.393-3.3817.708-1.4754 1.039-3.0984 1.358-4.7036.696-3.4997 1.392-6.9995 2.089-10.49918.383-1.92986.767-3.85972 1.15-5.78958.059-.28328.095-.64329-.147-.82034z" fill="url(#m)"/><path d="m239.931 2.89562c-.177-.80853-.726-1.63477-1.422-2.089199-.826-.537056-2.077-.601973-3.033-.643285-1.741-.0708202-3.801-.330498-5.312.725909-.46.318695-.79.696405-1.032 1.044605-.136-.23017-.307-.46034-.525-.6787-1.133-1.144934-2.562-1.12133-3.034-1.109527l-2.826.059021-2.585-.035409c-3.795-.047214-7.619-.0708211-11.378-.064919-.909 0-1.682.147543-2.325.442628-.684-.324594-1.31-.348205-1.546-.354106-1.204-.035411-2.425-.023603-3.641.041316-.454.023607-1.393.07082-2.331.607876-.732.41902-1.222.97379-1.564 1.55215-1.351-1.26296-3.063-1.646574-3.682-1.788215-1.729-.383611-3.506-.489847-5.27-.318698-1.086.106231-2.703.365911-4.161 1.369203-.171.11803-.324.24197-.472.3659-.324-.60197-.749-.99739-1.127-1.257065-.2-.13574-.419-.253772-.667-.348199l-.318-.129839-.337-.053113c-.224-.03541-.46-.053119-.69-.059021l-.862-.005898s-1.563-.011806-1.634-.011806l-1.068.005907-.254.011797c-.726.064919-1.375.289187-1.93.666897-.814.55476-1.204 1.28067-1.387 1.62887l-.236.44263c-.608 1.13903-1.215 2.27806-1.823 3.42299-.272.50755-.543 1.021-.815 1.53445l-.655-4.39087c-.177-1.19805-.708-2.10691-1.575-2.708888-.773-.531154-1.617-.637389-2.526-.631487-1.127.005901-2.26-.000001-3.387.017704-.768.011803-1.517.171149-2.166.607876-.242-.159347-.508-.300983-.791-.401312-.543-.188855-1.027-.212466-1.375-.206564-.472 0-.944.005904-1.416.011806-1.009.005902-2.018.017708-3.016.011806-.431-.017705-.909.082618-1.316.224259-.454.159346-.814.483939-1.127.83804-.212-.41902-.844-.61967-1.251-.784918-.602-.247872-1.221-.236072-1.865-.271483-.879-.053115-1.758-.064923-2.643-.041316-.838.023607-1.724-.005898-2.526.271483-.254.088525-.437.212464-.638.389515-.826-.566564-1.664-.619681-1.959-.637386-1.156-.064919-2.325-.094424-3.487-.0885222-.726 0-1.446.1652392-2.089.5075392-.591.31279-.98.938378-1.706.944278-1.151.0118-2.042-1.05641-3.128-1.339692-1.622-.424924-3.529-.088526-5.098.442628-.673.230167-1.334.495744-2.001.755414-.36.14165-.867.43083-1.357.38952-.991-.65509-2.03-.950174-2.921-1.150832-2.467-.560663-4.585-.5901737-6.48-.09443-1.31.3423-2.461.950172-3.458 1.805922-.325-.80263-.867-1.28657-1.186-1.516735-.873-.625581-1.776-.649185-2.071-.660989-1.204-.03541-2.426-.023611-3.642.041308-.454.023607-1.392.07082-2.3305.607876-.9855.56066-1.5402 1.381-1.8648 2.14822-.7141-.78492-1.6051-1.44001-2.6202-1.89444-4.5852-2.053799-10.2209-.395423-12.5637 3.70037-1.6347 2.85643-1.8235 6.47423-.478 9.21853.4308.8734.9619 1.6406 1.5107 2.3311h-.3246c-.3895.0059-1.4281.0118-2.3959.7023-.9206.6551-1.4635 1.6466-1.6051 2.9627-.1712 1.6112-.2774 3.3463.118 5.1404.5134 2.3135 1.7822 4.2197 3.5821 5.3646 1.2864.8204 2.8621 1.263 4.8095 1.3574.2301.0118.4603.0177.6845.0177 2.1658 0 4.0955-.5075 5.6534-1.4459.3246.419.72.7731 1.198 1.0328.8439.4722 1.7173.5548 2.6674.5607 1.9179.0059 4.3492.2833 5.7892-1.263.496-.5311.738-1.1154.903-1.5049 1.133 1.3161 2.744 2.2249 4.65 2.6262.862.183 1.711.242 2.479.242.719 0 1.374-.0531 1.9-.1062 1.516-.1535 3.422-.4958 5.022-1.7469-.112.0944.979.9974 1.08 1.0564.932.5783 1.959.5724 3.015.5724.962 0 1.924-.0177 2.886-.0472.808-.0295 1.534-.1888 2.201-.6787.354-.2655.614-.5606.814-.8557.13.1475.272.2951.431.4308.856.7377 1.824.9797 2.479 1.0918.655.1122 1.316.1712 1.971.1712.613 0 1.221-.0472 1.829-.1476.708-.1121 1.759-.36 2.673-1.1803.862-.7731 1.228-1.7233 1.417-2.4492-.042.1593.554.7731.672.9029.266.3069.555.5843.862.8499.614.537 1.298.9502 2.054 1.2571 1.434.5901 2.998.7318 4.532.7495 1.499.0118 2.998-.0768 4.414-.6079 1.05-.3954 2.024-1.0269 2.874-1.8472-.124.1239.431 1.0092.513 1.1331.219.3128.508.5784.826.7908 1.128.7436 2.491.5489 3.771.5489h2.479c1.758 0 2.998-1.3338 3.429-2.9568.106-.3895.159-.7849.212-1.1803.755.1416 1.564.2656 2.337.2656.13.0059.324.0177.566.0059-.005.0944-.005.1947-.005.295.017 2.6204 1.947 3.5706 3.245 3.5706h4.485c.614 0 2.42-.2066 3.252-2.4256 1.994 2.1305 5.069 2.5672 7.843 2.52 2.024-.0354 4.036-.5016 5.712-1.6761.325.419.726.779 1.198 1.0387.909.5017 1.888.5784 2.897.5666 1.865-.0177 4.161.2242 5.559-1.2748.614-.661.838-1.3928.933-1.8354.153.7849.525 1.3515.879 1.7292.72.7731 1.7 1.1685 2.957 1.1685l3.422-.0295c.39-.0059 1.582-.0118 2.603-.9147.932-.8204 1.133-1.8473 1.21-2.2368l3.399-17.3392.714.0059c.13 0 .253-.0059.377-.0177.201 1.2216.419 2.4433.644 3.659.206 1.1095.489 2.2427.448 3.3817-.053 1.499-.555 2.9745-.838 4.4381-.301 1.5344-.537 3.0807-.779 4.6269-.2 1.2748.083 2.3489.838 3.187.992 1.1036 2.313 1.1862 3.7 1.198 1.747.0118 3.494.0177 5.241.0295.572.0059.619-.2774.731-.7849.071-.3128.136-.6256.219-.9384.212-.838.413-1.682.602-2.5318.106-.484.194-.9738.289-1.4636.029-.1417.053-.2774.082-.4191.319-1.676.62-3.2577 1.104-4.739.779-2.3784 2.083-4.627 3.458-7.0113.661-1.139 1.34-2.3134 1.971-3.5233.673-1.29247 1.287-2.66758 1.853-4.03087.466-1.09182 1.051-2.20134.779-3.45841zm-144.8404 22.40878c-1.1331 2.6322-3.948 3.4997-6.7098 3.3699-.0295 0-.059-.0059-.0885-.0059-.3777.0236-.7553.0236-1.133.0059-1.1567-.0531-2.3428-.2656-3.3165-.8793-1.2039-.7673-1.9356-2.0833-2.2366-3.4466-.301-1.3574-.2125-2.768-.0649-4.1549.0295-.2891.0826-.6196.3304-.7908.183-.1298.4308-.1357.661-.1416.9383-.0059 1.8766-.0177 2.8149-.0236.0885 0 .177 0 .2596.0059.3187 0 .6433-.0059.962-.0059.236 0 .4898 0 .6727.1357.1947.1416.2714.3836.301.6138.1062.7318-.065 1.4695-.0532 2.2013.0059.5135.1122 1.0446.4249 1.4578.1299.1711.2951.3127.4898.4131.1358-.0826.2538-.183.36-.2951.3128-.3482.478-.8086.5429-1.2689.1771-1.2157-.0649-2.5318-.5842-3.6413-1.1212-2.3961-3.5053-3.9542-4.6679-6.3267-.956-1.9416-.6727-4.49709.3836-6.35022 1.2511-2.18364 3.8299-3.22234 6.3143-3.02168 1.2098-.10033 2.455.09443 3.5644.59017 1.074.47804 2.0064 1.34559 2.4077 2.43151.5016 1.34559.3777 2.92135.1535 4.31412-.0532.3128-.1889.6315-.4722.785-.2537.1357-.5488.1062-.832.118-.2892.0118-.5784.0177-.8675.0177-.1594 0-.3187-.0118-.478-.0118-.2479.0059-.4957.0118-.7495.0118-.655 0-1.3101-.0177-1.9592-.0531-.1298-.0059-.2714-.0177-.3659-.1062-.118-.1004-.1298-.2715-.1239-.425.0295-.7023.2479-1.39278.1947-2.09508-.0413-.51345-.3009-1.0564-.7199-1.33968-.4308.27148-.7377.79672-.8321 1.30427-.2478 1.36329.4367 2.73839 1.2983 3.84199 1.1212 1.4341 2.5965 2.6204 3.4935 4.2139.5312.9442.8616 1.977 1.0446 3.0334.1062.6079.1593 1.2217.1711 1.8355.0413 1.2511-.0885 2.5259-.5901 3.6826zm7.1054 2.6912c-.036.1948-.077.3954-.207.543-.183.1947-.484.2183-.749.2242-.909.0296-1.8179.0532-2.7208.0827-.2242.0059-.4544.0118-.6787-.0177-.1829.0059-.3599.0118-.5429.0177-.4308.0118-.8852.0177-1.2628-.1889-.5075-.2833-.5784-1.0623-.4898-1.5757.1475-.8558.3717-1.7115.5488-2.5614.36-1.7115.7022-3.423 1.0327-5.1404.9147-4.745 1.5815-9.52535 2.4077-14.28213.0944-.66099.2479-1.41052.8258-1.74101.29-.16525.638-.18885.974-.20656.879-.04721 1.765-.05311 2.65-.04721.655-.01181 1.31-.01181 1.965.0059.136.0059.277.0118.383.08853.207.14754.183.46033.142.7141-.195 1.09772-.389 2.19544-.584 3.29316-1.233 6.92862-2.467 13.86312-3.694 20.79172zm16.889-3.3167c-.342 1.0564-.767 2.1482-1.605 2.8918-.968.8675-2.337 1.139-3.641 1.2689-.702.0708-1.411.1003-2.113.0708-.855.0472-1.717.0236-2.549-.1535-1.127-.236-2.219-.7672-2.963-1.6288-.72-.8322-1.074-1.9299-1.18-3.0158-.112-1.0918.006-2.1836.13-3.2755.502-4.3495 1.151-8.7227 2.673-12.83029.809-2.18363 2.101-4.00726 4.468-4.62694.879-.23017 1.794-.28328 2.702-.23017 1.181-.07672 2.384.08262 3.547.3482.667.15345 1.34.3364 1.906.71411 1.717 1.13903 1.363 3.69447 1.115 5.44137-.047.3305-.041.80852-.1 1.25122-.077.6019-.271 1.1449-.867 1.198-.667.059-1.334.0708-2.001.0413-1.033.0354-2.077-.0236-3.098-.1888.13-.9266.201-1.8591.212-2.79746.012-.56066-.047-1.20984-.513-1.53444-.024.01181-.053.02361-.077.03541-.389.24197-.661.63148-.879 1.02689-.555 1.0092-.862 2.1305-1.139 3.2459-.519 2.0893-.95 4.2021-1.286 6.3267-.183 1.1508-.343 2.3017-.384 3.4643-.024.6551.012 1.3692.454 1.859.16.1771.36.2951.585.3718.135-.0472.271-.1003.395-.177.679-.4131 1.086-1.1627 1.286-1.924.201-.7613.219-1.558.307-2.337-.348-.3187-1.091.0826-1.31-.3305-.065-.124-.041-.2656-.017-.4014.171-1.0269.342-2.0479.513-3.0748.024-.1475.059-.3127.171-.4072.106-.0885.254-.1003.395-.1121.838-.0531 1.682-.0708 2.526-.0531 1.346-.0295 2.691.0295 4.031.177-.136 3.1752-.708 6.3385-1.694 9.3661zm18.028 2.1659c-.094.5193-.212 1.0741-.607 1.4282-.301.2715-.714.3718-1.116.4367-.631.1003-1.274.124-1.918.0826-.702.0532-1.404.0177-2.1-.1003-.36-.0649-.726-.1534-1.004-.3954-.413-.3541-.519-.9384-.596-1.4754-.46-3.0276-.914-6.0552-1.369-9.0887-.419 3.482-.968 6.9463-1.658 10.387-.035.1712-.077.36-.218.4604-.118.0885-.278.0944-.431.0944-1.192.0118-2.384.0236-3.576.0354-.089 0-.177 0-.26-.0118-.319.0059-.643.0059-.962.0118-.283.0059-.614-.0118-.785-.2361-.159-.2065-.124-.4957-.077-.7554.815-4.5266 1.635-9.0532 2.461-13.5798.413-2.2604.826-4.52662 1.24-6.78698.2-1.08592.253-2.36068.625-3.39938.283-.79674 1.092-.88527 1.859-.87346.248.0059.502.0059.749.0118.154-.0118.313-.01771.473-.0118.944.0177 1.894.02951 2.838.04721.224.0059.478.01771.637.17705.124.12394.172.30689.207.47804.767 3.57644 1.345 7.18242 1.871 10.80012.383-3.5705.956-7.12335 1.711-10.63487.053-.25968.124-.53115.319-.7141.23-.21247.572-.22427.885-.23017.324 0 .643.00589.968.0118.088-.00591.171-.0059.259-.0118 1.098-.0059 2.196.02361 3.293.08262.154.0059.319.02361.437.11804.201.16524.171.47213.124.7259-.024.13574-.047.26559-.077.40132-1.393 7.51286-2.797 15.01396-4.202 22.51506zm17.704-1.8355c-.714 1.4755-1.865 2.8034-3.393 3.3817-.915.3423-1.906.4073-2.88.425-.313.0059-.631-.0001-.95-.0119-.088 0-.183.006-.271.0119-1.777.0295-3.7-.1299-5.058-1.263-.023-.0177-.047-.0354-.071-.0531-.997-.8735-1.522-2.1837-1.687-3.4997-.166-1.3161 0-2.644.177-3.9601.312-2.284.672-4.562 1.062-6.8342.195-1.1331.389-2.2662.596-3.39937.26-1.3928.513-2.77971.773-4.17251.148-.80263.295-1.60527.443-2.4079.006-.03541.011-.06492.035-.08852 0 0 .006 0 .012-.0059.029-.01771.059-.02361.094-.01771.555.0059 1.116 0 1.67 0 .644-.0236 1.293-.02361 1.936-.0118.071 0 .136.0059.206.0059.337 0 .679-.0118 1.015-.0059.242.0059.484.0118.732.0236.036 0 .065.0059.095.01181.495.06492.613.43672.537.93247-.213 1.43411-.461 2.86823-.72 4.29645-.779 4.31418-1.676 8.61058-2.178 12.96608-.071.6019-.118 1.2688.224 1.7705.154.2183.36.3659.596.4603.319-.1003.626-.2715.856-.5075.714-.7318.927-1.7941 1.115-2.7974 1.051-5.6716 2.101-11.34903 3.152-17.02647.006-.03541.012-.06493.035-.08854 0 0 .006.00001.012-.00589.029-.01771.059-.02361.094-.01771.638.0059 1.275 0 1.906 0h.514c.684-.0059 1.375-.0118 2.059-.0177.065 0 .13-.00001.195.0059.342 0 .685-.0059 1.027-.0059.124 0 .248-.00001.366.0413.041.01181.082.03542.118.05903.236.17705.206.53705.147.82623-.383 1.92986-.767 3.85973-1.15 5.78959-.697 3.49976-1.393 6.99946-2.089 10.49916-.313 1.5875-.644 3.2164-1.352 4.6918zm24.874-9.2892c-.389 2.2249-.779 4.4498-1.174 6.6748-.236 1.7469-.472 3.4879-.708 5.2348-.042.2892-.166 1.1863-.573 1.1863-.071 0-.578 0-1.221 0-.136 0-1.971 0-3.264 0-.608 0-1.092 0-1.221 0-.142 0-.183-.2479-.189-.5312 0-.3069.041-.661.071-.8085.466-2.7502.932-5.5063 1.398-8.2565-.814 1.6583-1.629 3.3167-2.437 4.9751-.118.242-.248.4958-.478.6315-.23.1416-.519.1357-.785.1239-.201-.0118-.407-.0295-.608-.0472-.195.059-.407.059-.614.0472-.548-.0295-1.097-.0826-1.64-.1652-.213-.0295-.437-.0708-.59-.2184-.177-.1652-.224-.4308-.26-.6728-.23-1.5934-.466-3.181-.696-4.7745-.384 2.8388-.767 5.6775-1.157 8.5162-.041.2892-.165 1.1862-.572 1.1862-.071 0-.579 0-1.222 0-.136 0-1.971 0-3.263 0-.608 0-1.092 0-1.222 0-.295 0-.165-1.0564-.118-1.3396 1.346-7.9437 2.697-15.8815 4.043-23.82525.029-.15935.059-.3305.183-.43673.123-.11213.306-.11803.478-.11803 1.233-.01181 2.466-.01771 3.7-.02951.07 0 .141-.00001.218.0059.336 0 .673-.0059 1.009-.0059.177 0 .366 0 .513.10033.195.13573.248.40131.284.63738.584 3.90694 1.162 7.81391 1.747 11.72081 2.041-3.7476 4.03-7.53059 6.042-11.29588.077-.14755.16-.29509.236-.44853.107-.20066.225-.41313.414-.54297.141-.09442.312-.13573.483-.15344.343 0 .679-.0059 1.021-.0059.213 0 .425.0059.644.0059.194 0 .389-.0059.584-.0059h.354c.065 0 .136-.0059.201-.0059.224 0 .448.0059.672.0059-.194 0-.389.0059-.584.0059.62.0059 1.239.01181 1.859.01181.071 0 .147.0059.224.0177.036.01181.065.02951.095.04722.159.10623.218.29508.259.48984-.006.02361-.006.05311-.012.07672-.206 1.16263-.407 2.32528-.613 3.48201-.514 2.83282-1.015 5.66562-1.511 8.50442zm13.951 10.6644c-1.169 1.8118-3.175 2.4964-5.264 2.5259-.331.0059-.685.0059-1.051-.0118-.059 0-.118.0059-.177.0118-1.918.0295-4.491-.1358-5.801-1.7115-.796-.962-.944-2.284-.968-3.5292-.059-3.2047.478-6.3857 1.086-9.5313.472-2.4492.986-4.91024 1.918-7.22961.443-1.09772 1.009-2.20134 1.989-2.88004.791-.54296 1.764-.74951 2.726-.84394.661-.06492 1.322-.07673 1.983-.04132 1.192-.04721 2.39.04722 3.553.301.967.21246 1.965.57247 2.555 1.35739.472.63149.602 1.44592.661 2.22494.142 1.94757-.095 3.92468-.691 5.78958-.053.1653-.112.3364-.247.4426-.166.1358-.402.1358-.62.1299-.295-.0059-.584-.0118-.879-.0177-.112.0177-.231.0177-.343.0177-.908-.0177-1.811-.0354-2.72-.0531-.336-.0059-.714-.0354-.927-.2833-.159-.183-.183-.4427-.177-.6846.018-.6197.231-1.2158.39-1.8118.165-.59612.283-1.2335.118-1.83548-.112-.40131-.384-.77903-.738-.98559-.224.12393-.425.30689-.578.51345-.283.39542-.431.86755-.573 1.32789-1.192 4.02493-2.024 8.16793-2.336 12.35223-.054.6846-.042 1.4873.513 1.9122.047.0354.1.0649.153.0944.071-.0295.136-.0649.201-.1003.472-.2951.791-.779 1.039-1.2748.395-.8026.637-1.6761.708-2.5672.035-.4367.082-.9679.484-1.1626.183-.0886.395-.0827.596-.0709.248.0118.49.0236.737.0354.154-.0472.325-.0413.49-.0354 1.116.0531 2.231.1004 3.346.1535.083.0059.171.0059.248.0295.065.0177.13.0413.183.0826.177.1416.183.4013.165.6256-.147 2.284-.484 4.7627-1.752 6.7339zm8.031 1.6111c-.035.1948-.077.3954-.206.543-.183.1947-.484.2183-.75.2242-.909.0296-1.817.0532-2.72.0827-.225.0059-.455.0118-.679-.0177-.183.0059-.36.0118-.543.0177-.431.0118-.885.0177-1.263-.1889-.507-.2833-.578-1.0623-.49-1.5757.148-.8558.372-1.7115.549-2.5614.36-1.7115.703-3.423 1.033-5.1404.915-4.745 1.582-9.52535 2.408-14.28213.094-.66099.248-1.41052.826-1.74101.289-.16525.637-.18885.974-.20656.885-.04721 1.764-.05311 2.649-.04721.655-.01181 1.31-.01181 1.965.0059.136.0059.278.0118.384.08853.207.14754.183.46033.142.7141-.195 1.09772-.39 2.19544-.585 3.29316-1.233 6.92862-2.46 13.86312-3.694 20.79172zm35.833-24.32685c-.266.66689-.526 1.33379-.803 1.98888-.46 1.08592-.962 2.15413-1.511 3.19873-1.906 3.65314-4.337 7.07614-5.618 10.99494-.932 2.8446-1.227 5.8544-1.977 8.7522-.407 0-.814-.0059-1.221-.0059v.0059c-1.393-.0059-2.791-.0118-4.184-.0177-.224 0-.472-.0118-.62-.1771-.159-.177-.13-.4426-.094-.6787.307-1.9652.614-3.9305 1.044-5.8781.26-1.1744.573-2.3548.608-3.5587.041-1.2512-.206-2.4964-.442-3.724-.667-3.4879-1.216-6.99942-1.659-10.52274-.112 1.22755-.318 2.44331-.619 3.64136-.03.11804-.065.24787-.16.32459-.112.09443-.271.10033-.413.10033-.354 0-.714-.0059-1.068-.0059-.053.0059-.106.0059-.153.0059-.673-.0059-1.352-.0059-2.024-.0118-1.293 6.60406-2.591 13.21396-3.883 19.81796-.036.1888-.083.3954-.231.5252-.159.1417-.395.1476-.607.1535-1.139.0118-2.284.0177-3.423.0295-.077 0-.148 0-.224-.0059-.331 0-.667.0059-.998.0059-.248 0-.525-.0059-.696-.1889-.189-.2065-.148-.5252-.1-.8026 1.233-6.5037 2.466-13.0015 3.7-19.50515-1.198-.0118-2.39-.02361-3.588-.03542-.183 0-.384-.0118-.508-.14754-.124-.14164-.112-.3541-.088-.53705.135-1.0328.318-2.06561.549-3.0866.253-1.13313.466-1.30428 1.67-1.30428h1.127.094c3.777-.0059 7.554.01771 11.331.06492.129 0 .253.0059.383.0059-.006.07082-.012.14164-.018.21246.024-.03541.048-.06492.083-.09443.106-.07082.242-.07672.372-.08262 1.156-.02361 2.313-.04721 3.47-.07082.124 0 .248 0 .372.01771.283-.0059.566-.01181.855-.01771.283-.0059.602 0 .803.20066.153.15934.195.38952.23.61378.289 1.91216.572 3.81841.856 5.73056.879-1.87084 1.764-3.73578 2.643-5.60663.13-.27738.272-.56656.526-.74361.277-.19476.637-.21246.979-.21836.384-.0059.767-.0059 1.151 0h.071c.743-.0118 1.493 0 2.236.04131.366.0177.726.04721 1.092.08262.089.0059.189.0059.283.01181.083.0059.166.0118.242.03541.095.03541.183.10623.207.20656.018.08852-.012.17704-.047.25967z" fill="#641e0f"/><path d="m77.7171.104041-12.8943 14.842759c-.1239.1417-.3187.1889-.4898.1122l-3.2044-1.3928c-.1121-.0472-.2419-.0472-.3541 0l-3.3696 1.4636c-.0767.0354-.1652.0177-.2242-.0354l-1.4399-1.2453c-.1712-.1475-.419-.1475-.5902 0l-6.8513 5.943c-.1062.0886-.2656.0768-.3482-.0354l-3.0982-4.0308c-.2006-.2597-.5901-.2302-.7553.0531l-5.0043 8.6814c-.0767.1357-.2596.1476-.3541.0236l-5.0337-6.5509c-.1535-.2006-.4308-.2361-.6315-.0885l-6.8454 5.1935c-.0708.0531-.1712.0295-.2066-.0531l-1.5756-3.4112c-.1062-.2302-.3659-.3305-.5901-.2361l-2.9448 1.2748c-.1888.0826-.4072.0236-.537-.1417l-1.3278-1.7233c-.1593-.2065-.4544-.2419-.655-.0708l-8.51552 7.389c-.17113.1475-.41899.1475-.59012 0l-2.99784-2.5968c-.20655-.177-.51341-.1357-.66685.0885l-5.588489 8.0441c-.0826176.118.000001.2832.141631.2832l73.175588.006c.2479 0 .4603-.1889.4957-.4427l4.2725-31.149202c.0354-.236068-.2478-.3718085-.4012-.194757zm-5.1695 30.051559c-.0355.2301-.2243.4072-.4544.4072h-69.48147c-.09442 0-.14753-.1122-.09442-.1889l3.07456-4.4735c.15343-.2242.4603-.2656.66684-.0885l2.99194 2.5968c.17113.1475.41899.1475.59012 0l8.51553-7.389c.1947-.1711.4957-.1416.655.0708l1.3101 1.7056c.1357.1771.3659.2302.5606.1299l2.7618-1.3987c.2243-.1122.5016-.0178.6137.2124l1.6642 3.4525c.0708.1476.2538.1948.3836.0944l6.7333-5.1108c.2007-.1535.478-.1122.6315.0885l5.0396 6.5568c.0945.118.2715.1062.3482-.0236l5.0043-8.6814c.1652-.2833.5547-.3128.7553-.0532l3.0864 4.0132c.0944.1239.2656.1417.3777.0413l6.8336-5.9253c.1712-.1475.419-.1475.5902 0l1.434 1.2394c.0649.059.1593.0708.236.0354l3.2929-1.4282c.1594-.0709.3305-.0709.4898 0l3.2221 1.3987c.1239.0531.2597.0177.3482-.0827l11.0648-12.61191c.1594-.17706.4426-.04132.4072.20065z" fill="#641e0f"/><path d="m76.2004 4.97305-3.647 25.21805c-.0354.2301-.2242.4072-.4544.4072h-69.4873c-.09442 0-.15343-.1122-.09442-.1889l3.07456-4.4735c.15343-.2242.46029-.2655.66684-.0885l2.99194 2.5968c.17113.1475.41899.1475.59012 0l8.51556-7.389c.1947-.1711.4957-.1416.655.0708l1.3101 1.7056c.1357.1771.3659.2302.5606.1299l2.7618-1.3987c.2242-.1122.5016-.0178.6137.2124l1.6642 3.4525c.0708.1476.2537.1948.3836.0944l6.7333-5.1108c.2006-.1535.478-.1122.6314.0885l5.0397 6.5568c.0944.118.2715.1062.3482-.0236l5.0042-8.6814c.1653-.2833.5548-.3128.7554-.0531l3.0864 4.0131c.0944.1239.2655.1417.3835.0413l6.8337-5.9253c.1711-.1475.419-.1475.5901 0l1.434 1.2394c.065.059.1594.0708.2361.0354l3.2929-1.4282c.1593-.0709.3305-.0709.4898 0l3.2221 1.3987c.1239.0531.2596.0177.3482-.0827l11.0648-12.61191c.1475-.18295.4367-.04131.4013.19476z" fill="url(#n)"/></svg>