<svg fill="none" height="34" viewBox="0 0 34 34" width="34" xmlns="http://www.w3.org/2000/svg"><path d="m25.6386 11.6559c-.6112.2809-1.2693.472-1.9601.5582.7052-.4383 1.244-1.1314 1.5008-1.9556-.6582.4046-1.3887.7006-2.1662.8579-.6256-.6856-1.5116-1.1164-2.4952-1.1164-1.8841 0-3.4138 1.5809-3.4138 3.5365 0 .2773.0289.547.0868.8055-2.8352-.1461-5.3521-1.5547-7.0337-3.6939-.29291.5208-.46287 1.1277-.46287 1.7758 0 1.225.60387 2.3077 1.51887 2.9408-.5606-.0187-1.0849-.176-1.54419-.442v.0449c0 1.7121 1.17529 3.1432 2.73749 3.4654-.2856.0824-.5894.1236-.9004.1236-.2206 0-.434-.0225-.6437-.0637.4339 1.4049 1.696 2.4276 3.1896 2.4538-1.1681.9479-2.6399 1.5136-4.23833 1.5136-.27484 0-.54606-.015-.81367-.0487 1.5116 1.004 3.3053 1.5884 5.2328 1.5884 6.2779 0 9.7097-5.3872 9.7097-10.0589 0-.1536-.0036-.3072-.0108-.457.669-.4945 1.2476-1.1164 1.7069-1.8282z" fill="#fff"/><circle cx="17" cy="17" r="16.5" stroke="#fff"/></svg>