<svg width="169" height="50" viewBox="0 0 169 50" fill="none" xmlns="http://www.w3.org/2000/svg">
<path d="M167.612 44.1034C167.612 46.7488 165.466 48.8949 162.821 48.8949C162.821 48.8949 162.821 48.8949 162.814 48.8949H5.91067C3.2657 48.8949 1.11328 46.7556 1.11328 44.1034V5.90662C1.12003 3.25444 3.2657 1.11515 5.91067 1.1084H162.814C165.459 1.1084 167.612 3.25444 167.612 5.89987V44.1034Z" fill="white"/>
<path d="M162.814 50H5.91071C2.65172 50 0 47.3613 0 44.095V5.91173C0.00674738 2.64543 2.65172 0 5.91071 0H162.814C166.08 0.00674855 168.725 2.64543 168.725 5.91173V44.1018C168.732 47.3546 166.073 50 162.814 50Z" fill="#A6A6A6"/>
<path d="M167.612 44.1034C167.612 46.7488 165.466 48.8949 162.821 48.8949C162.821 48.8949 162.821 48.8949 162.814 48.8949H5.91067C3.2657 48.8949 1.11328 46.7556 1.11328 44.1034V5.90662C1.12003 3.25444 3.2657 1.11515 5.91067 1.1084H162.814C165.459 1.1084 167.612 3.25444 167.612 5.89987V44.1034Z" fill="black"/>
<path d="M37.6749 24.7393C37.6411 20.7104 40.9743 18.7466 41.1295 18.6588C39.2402 15.9054 36.3119 15.5275 35.2795 15.5005C32.8167 15.2441 30.4349 16.9717 29.1799 16.9717C27.9046 16.9717 25.9749 15.5275 23.8899 15.568C21.2112 15.6085 18.708 17.1607 17.3382 19.5632C14.5043 24.4693 16.6163 31.6768 19.3355 35.6449C20.6917 37.5885 22.2773 39.7548 24.3555 39.6806C26.3865 39.5996 27.1489 38.3849 29.5982 38.3849C32.0273 38.3849 32.7425 39.6806 34.8612 39.6333C37.0406 39.5996 38.4171 37.683 39.7261 35.7259C41.2982 33.4989 41.9257 31.3056 41.9527 31.1976C41.8987 31.1639 37.7153 29.5645 37.6749 24.7393ZM33.6737 12.8888C34.7667 11.5189 35.5157 9.66303 35.3065 7.77344C33.7276 7.84092 31.7439 8.8667 30.6103 10.2029C29.605 11.3839 28.7008 13.314 28.937 15.1294C30.7048 15.2576 32.5333 14.2318 33.6737 12.8888Z" fill="white"/>
<path d="M67.1134 39.3966H64.2727L62.7141 34.5106H57.3094L55.825 39.3966H53.0586L58.416 22.7547H61.7222L67.1134 39.3966ZM62.2485 32.4591L60.8383 28.113C60.6899 27.6676 60.4065 26.6216 60.0017 24.9749H59.9544C59.7925 25.6835 59.5226 26.7296 59.165 28.113L57.7818 32.4591H62.2485ZM80.8646 33.2487C80.8646 35.2867 80.3113 36.8996 79.2047 38.0874C78.2128 39.1401 76.9781 39.6665 75.5071 39.6665C73.9148 39.6665 72.7744 39.0997 72.0795 37.9659V44.2623H69.4142V31.3456C69.4142 30.0633 69.3805 28.7474 69.313 27.4044H71.6611L71.8096 29.3075H71.8568C72.7475 27.8768 74.0969 27.1547 75.9052 27.1547C77.3222 27.1547 78.503 27.7149 79.4476 28.8351C80.3922 29.9486 80.8646 31.4266 80.8646 33.2487ZM78.1521 33.3499C78.1521 32.1824 77.889 31.2173 77.3627 30.4615C76.7891 29.6719 76.0132 29.2805 75.0416 29.2805C74.3871 29.2805 73.7866 29.5032 73.2535 29.9351C72.7205 30.3738 72.3696 30.9474 72.2077 31.6493C72.1334 31.9124 72.093 32.1891 72.0862 32.4591V34.4634C72.0862 35.334 72.3561 36.0696 72.8891 36.6769C73.4222 37.2775 74.1172 37.5812 74.9741 37.5812C75.9795 37.5812 76.7622 37.1898 77.3222 36.4205C77.8687 35.6376 78.1521 34.6186 78.1521 33.3499ZM94.6697 33.2487C94.6697 35.2867 94.1164 36.8996 93.0098 38.0874C92.018 39.1401 90.7832 39.6665 89.3123 39.6665C87.7199 39.6665 86.5796 39.0997 85.8846 37.9659V44.2623H83.2194V31.3456C83.2194 30.0633 83.1857 28.7474 83.1182 27.4044H85.4663L85.6147 29.3075H85.6619C86.5526 27.8768 87.9021 27.1547 89.7104 27.1547C91.1273 27.1547 92.3081 27.7149 93.2528 28.8351C94.1906 29.9486 94.6697 31.4266 94.6697 33.2487ZM91.9505 33.3499C91.9505 32.1824 91.6874 31.2173 91.1611 30.4615C90.5875 29.6719 89.8116 29.2805 88.84 29.2805C88.1855 29.2805 87.585 29.5032 87.0452 29.9351C86.5121 30.3738 86.1613 30.9474 85.9993 31.6493C85.9184 31.9799 85.8711 32.2499 85.8711 32.4591V34.4634C85.8711 35.334 86.141 36.0696 86.6741 36.6769C87.2071 37.2775 87.9021 37.5812 88.7657 37.5812C89.7711 37.5812 90.5538 37.1898 91.1138 36.4205C91.6739 35.6376 91.9505 34.6186 91.9505 33.3499ZM110.101 34.7333C110.101 36.1505 109.608 37.3045 108.623 38.1886C107.544 39.1604 106.026 39.6463 104.089 39.6463C102.301 39.6463 100.864 39.3021 99.7775 38.607L100.391 36.3867C101.559 37.0818 102.848 37.426 104.244 37.426C105.25 37.426 106.032 37.1966 106.592 36.7444C107.152 36.2923 107.436 35.6849 107.436 34.929C107.436 34.2542 107.2 33.6873 106.741 33.2217C106.282 32.7628 105.519 32.3309 104.447 31.9394C101.532 30.8529 100.074 29.2603 100.074 27.175C100.074 25.8118 100.587 24.6915 101.62 23.8209C102.645 22.9504 104.008 22.5117 105.708 22.5117C107.22 22.5117 108.482 22.7749 109.487 23.3013L108.819 25.4743C107.874 24.9614 106.815 24.7117 105.621 24.7117C104.683 24.7117 103.941 24.9412 103.414 25.4001C102.969 25.8118 102.746 26.3112 102.746 26.905C102.746 27.5596 103.003 28.1063 103.516 28.5314C103.961 28.9228 104.764 29.3547 105.931 29.8136C107.362 30.394 108.414 31.0621 109.089 31.8382C109.764 32.6143 110.101 33.5793 110.101 34.7333ZM118.94 29.402H115.998V35.226C115.998 36.7107 116.518 37.4463 117.557 37.4463C118.036 37.4463 118.427 37.4058 118.744 37.3248L118.819 39.3493C118.292 39.5451 117.604 39.6463 116.747 39.6463C115.695 39.6463 114.871 39.3224 114.278 38.6812C113.684 38.0401 113.387 36.9604 113.387 35.4487V29.402H111.639V27.4044H113.387V25.2044L116.005 24.4148V27.4044H118.947L118.94 29.402ZM132.172 33.3026C132.172 35.145 131.645 36.6634 130.593 37.8444C129.493 39.0659 128.029 39.6733 126.2 39.6733C124.439 39.6733 123.036 39.0862 121.99 37.9254C120.944 36.7579 120.424 35.28 120.424 33.5051C120.424 31.6425 120.964 30.1241 122.044 28.9363C123.123 27.7486 124.574 27.1615 126.403 27.1615C128.164 27.1615 129.581 27.7486 130.647 28.9161C131.659 30.0431 132.172 31.5075 132.172 33.3026ZM129.405 33.3634C129.405 32.2634 129.169 31.3186 128.69 30.5357C128.13 29.5842 127.334 29.1051 126.295 29.1051C125.229 29.1051 124.405 29.5842 123.852 30.5357C123.373 31.3253 123.137 32.2836 123.137 33.4174C123.137 34.5174 123.373 35.4622 123.852 36.2518C124.426 37.2033 125.235 37.6825 126.274 37.6825C127.293 37.6825 128.09 37.1966 128.67 36.2315C129.162 35.4149 129.405 34.4634 129.405 33.3634ZM140.842 29.7462C140.565 29.6989 140.282 29.6719 139.999 29.6719C139.061 29.6719 138.339 30.0229 137.826 30.7315C137.381 31.3591 137.158 32.1486 137.158 33.1002V39.3966H134.493V31.1769C134.493 29.9149 134.473 28.6596 134.419 27.3977H136.74L136.834 29.6922H136.908C137.192 28.9026 137.63 28.2682 138.244 27.7891C138.798 27.3707 139.479 27.148 140.174 27.148C140.424 27.148 140.64 27.1682 140.842 27.1952V29.7462ZM152.765 32.8302C152.771 33.2352 152.738 33.6401 152.67 34.0382H144.668C144.695 35.226 145.086 36.1303 145.828 36.7579C146.503 37.318 147.374 37.5947 148.446 37.5947C149.634 37.5947 150.713 37.4058 151.685 37.0278L152.103 38.8769C150.97 39.3696 149.627 39.6193 148.082 39.6193C146.22 39.6193 144.762 39.0727 143.696 37.9794C142.637 36.8861 142.104 35.4149 142.104 33.5726C142.104 31.764 142.596 30.2591 143.588 29.0578C144.621 27.7756 146.024 27.1345 147.785 27.1345C149.512 27.1345 150.821 27.7756 151.712 29.0578C152.407 30.0768 152.765 31.3321 152.765 32.8302ZM150.221 32.1419C150.241 31.3523 150.066 30.6707 149.701 30.0903C149.243 29.348 148.527 28.9768 147.576 28.9768C146.706 28.9768 145.997 29.3412 145.451 30.0633C145.005 30.637 144.742 31.3321 144.661 32.1351L150.221 32.1419Z" fill="white"/>
<path d="M56.5374 16.87C55.7951 16.87 55.1541 16.8363 54.6211 16.7756V8.72454C55.3701 8.60982 56.1258 8.54908 56.8815 8.55583C59.938 8.55583 61.3482 10.0608 61.3482 12.5105C61.3415 15.3381 59.6816 16.87 56.5374 16.87ZM56.9894 9.58836C56.5778 9.58836 56.227 9.61535 55.9368 9.67609V15.7903C56.092 15.8173 56.3957 15.824 56.8207 15.824C58.8247 15.824 59.965 14.6835 59.965 12.551C59.9583 10.6411 58.9259 9.58836 56.9894 9.58836ZM65.734 16.9308C64.0135 16.9308 62.8934 15.6418 62.8934 13.8939C62.8934 12.0718 64.0337 10.7761 65.8285 10.7761C67.5288 10.7761 68.6691 12.0043 68.6691 13.7994C68.6691 15.6418 67.4951 16.9308 65.734 16.9308ZM65.7813 11.7344C64.8366 11.7344 64.2294 12.6185 64.2294 13.8602C64.2294 15.0749 64.8501 15.959 65.7678 15.959C66.6922 15.959 67.3062 15.0142 67.3062 13.8332C67.3129 12.632 66.7057 11.7344 65.7813 11.7344ZM78.4933 10.8976L76.6513 16.7958H75.4503L74.6878 14.2381C74.4989 13.6105 74.337 12.9761 74.2155 12.335H74.1885C74.094 12.9761 73.9119 13.624 73.7162 14.2381L72.9065 16.7958H71.692L69.9579 10.8976H71.3074L71.9754 13.6982C72.1306 14.3663 72.2655 14.9939 72.3735 15.5946H72.4005C72.4949 15.0952 72.6568 14.4811 72.8863 13.7117L73.7229 10.8976H74.789L75.592 13.651C75.7876 14.3191 75.9428 14.9737 76.0643 15.5946H76.098C76.1857 14.9872 76.3139 14.3461 76.4961 13.651L77.2113 10.8976H78.4933ZM85.288 16.7958H83.979V13.408C83.979 12.362 83.5809 11.8424 82.7914 11.8424C82.0155 11.8424 81.4824 12.5105 81.4824 13.2866V16.7958H80.1734V12.5847C80.1734 12.0651 80.1599 11.5049 80.1262 10.8976H81.28L81.3407 11.8086H81.3745C81.7253 11.181 82.4406 10.7761 83.2435 10.7761C84.4783 10.7761 85.2947 11.7209 85.2947 13.2663L85.288 16.7958ZM88.8978 16.7958H87.5888V8.19141H88.8978V16.7958ZM93.6817 16.9308C91.9611 16.9308 90.8411 15.6418 90.8411 13.8939C90.8411 12.0718 91.9814 10.7761 93.7762 10.7761C95.4765 10.7761 96.6168 12.0043 96.6168 13.7994C96.6168 15.6418 95.436 16.9308 93.6817 16.9308ZM93.7289 11.7344C92.7843 11.7344 92.177 12.6185 92.177 13.8602C92.177 15.0749 92.7978 15.959 93.7154 15.959C94.6398 15.959 95.2538 15.0142 95.2538 13.8332C95.2538 12.632 94.6533 11.7344 93.7289 11.7344ZM101.785 16.7958L101.691 16.1142H101.657C101.259 16.6608 100.672 16.924 99.9298 16.924C98.8704 16.924 98.1215 16.1817 98.1215 15.1897C98.1215 13.732 99.3832 12.9829 101.569 12.9829V12.8749C101.569 12.0988 101.158 11.7074 100.348 11.7074C99.7678 11.7074 99.255 11.8559 98.8097 12.1461L98.5466 11.2822C99.0931 10.9448 99.7746 10.7694 100.571 10.7694C102.109 10.7694 102.892 11.5792 102.892 13.2056V15.3854C102.892 15.9792 102.919 16.4449 102.98 16.7958H101.785ZM101.603 13.8602C100.146 13.8602 99.417 14.2111 99.417 15.0479C99.417 15.6688 99.7948 15.9725 100.314 15.9725C100.982 15.9725 101.603 15.4663 101.603 14.7712V13.8602ZM109.241 16.7958L109.18 15.851H109.147C108.769 16.5664 108.135 16.9308 107.251 16.9308C105.827 16.9308 104.774 15.6823 104.774 13.9209C104.774 12.0786 105.867 10.7761 107.359 10.7761C108.148 10.7761 108.708 11.0393 109.019 11.5792H109.045V8.19141H110.354V15.2031C110.354 15.77 110.368 16.3099 110.402 16.7891L109.241 16.7958ZM109.052 13.3271C109.052 12.5037 108.506 11.7951 107.669 11.7951C106.697 11.7951 106.104 12.6589 106.104 13.8669C106.104 15.0547 106.718 15.8713 107.642 15.8713C108.465 15.8713 109.052 15.1559 109.052 14.3056V13.3271ZM118.681 16.9308C116.96 16.9308 115.84 15.6418 115.84 13.8939C115.84 12.0718 116.98 10.7761 118.775 10.7761C120.476 10.7761 121.616 12.0043 121.616 13.7994C121.616 15.6418 120.442 16.9308 118.681 16.9308ZM118.728 11.7344C117.783 11.7344 117.176 12.6185 117.176 13.8602C117.176 15.0749 117.797 15.959 118.715 15.959C119.639 15.959 120.253 15.0142 120.253 13.8332C120.26 12.632 119.652 11.7344 118.728 11.7344ZM128.667 16.7958H127.358V13.408C127.358 12.362 126.96 11.8424 126.17 11.8424C125.394 11.8424 124.861 12.5105 124.861 13.2866V16.7958H123.552V12.5847C123.552 12.0651 123.539 11.5049 123.505 10.8976H124.659L124.72 11.8086H124.753C125.104 11.181 125.819 10.7761 126.622 10.7761C127.857 10.7761 128.674 11.7209 128.674 13.2663V16.7958H128.667ZM137.479 11.8829H136.035V14.7442C136.035 15.4731 136.285 15.8375 136.797 15.8375C137.027 15.8375 137.223 15.8105 137.378 15.7768L137.411 16.7688C137.155 16.8633 136.818 16.9173 136.393 16.9173C135.36 16.9173 134.74 16.3504 134.74 14.8522V11.8761H133.876V10.8908H134.74V9.81106L136.028 9.41964V10.8908H137.472L137.479 11.8829ZM144.422 16.7958H143.113V13.435C143.113 12.3823 142.715 11.8491 141.925 11.8491C141.244 11.8491 140.617 12.308 140.617 13.2461V16.8026H139.308V8.19141H140.617V11.7344H140.643C141.055 11.0933 141.656 10.7761 142.418 10.7761C143.666 10.7761 144.429 11.7479 144.429 13.2866V16.7958H144.422ZM151.527 14.1639H147.593C147.62 15.2774 148.356 15.9117 149.449 15.9117C150.029 15.9117 150.569 15.8173 151.041 15.6351L151.244 16.5461C150.684 16.7891 150.029 16.9105 149.267 16.9105C147.425 16.9105 146.332 15.743 146.332 13.9412C146.332 12.1326 147.452 10.7761 149.118 10.7761C150.623 10.7761 151.568 11.8896 151.568 13.5767C151.581 13.7657 151.568 13.9682 151.527 14.1639ZM150.326 13.2258C150.326 12.3148 149.867 11.6737 149.03 11.6737C148.275 11.6737 147.681 12.3283 147.6 13.2258H150.326Z" fill="white"/>
</svg>
