<svg width="169" height="50" viewBox="0 0 169 50" fill="none" xmlns="http://www.w3.org/2000/svg">
<g clip-path="url(#clip0)">
<path d="M162.5 50H6.25C2.75 50 0 47.25 0 43.75V6.25C0 2.75 2.75 0 6.25 0H162.5C166 0 168.75 2.75 168.75 6.25V43.75C168.75 47.25 166 50 162.5 50Z" fill="black"/>
<path d="M162.5 1C165.375 1 167.75 3.375 167.75 6.25V43.75C167.75 46.625 165.375 49 162.5 49H6.25C3.375 49 1 46.625 1 43.75V6.25C1 3.375 3.375 1 6.25 1H162.5ZM162.5 0H6.25C2.75 0 0 2.875 0 6.25V43.75C0 47.25 2.75 50 6.25 50H162.5C166 50 168.75 47.25 168.75 43.75V6.25C168.75 2.875 166 0 162.5 0Z" fill="#A6A6A6"/>
<path d="M59.2481 12.749C59.2481 13.749 58.9981 14.624 58.3731 15.249C57.6231 15.999 56.7481 16.374 55.623 16.374C54.498 16.374 53.623 15.999 52.873 15.249C52.123 14.499 51.748 13.624 51.748 12.499C51.748 11.374 52.123 10.499 52.873 9.74902C53.623 8.99902 54.498 8.62402 55.623 8.62402C56.123 8.62402 56.6231 8.74902 57.1231 8.99902C57.6231 9.24902 57.998 9.49902 58.248 9.87402L57.623 10.499C57.123 9.87402 56.498 9.62402 55.623 9.62402C54.873 9.62402 54.123 9.87402 53.623 10.499C52.998 10.999 52.748 11.749 52.748 12.624C52.748 13.499 52.998 14.249 53.623 14.749C54.248 15.249 54.873 15.624 55.623 15.624C56.498 15.624 57.1231 15.374 57.7481 14.749C58.1231 14.374 58.3731 13.874 58.3731 13.249H55.623V12.249H59.2481C59.2481 12.374 59.2481 12.624 59.2481 12.749Z" fill="white" stroke="white" stroke-width="0.2" stroke-miterlimit="10"/>
<path d="M64.998 9.625H61.623V12H64.748V12.875H61.623V15.25H64.998V16.25H60.623V8.75H64.998V9.625Z" fill="white" stroke="white" stroke-width="0.2" stroke-miterlimit="10"/>
<path d="M69.1211 16.25H68.1211V9.625H65.9961V8.75H71.2461V9.625H69.1211V16.25Z" fill="white" stroke="white" stroke-width="0.2" stroke-miterlimit="10"/>
<path d="M74.873 16.25V8.75H75.873V16.25H74.873Z" fill="white" stroke="white" stroke-width="0.2" stroke-miterlimit="10"/>
<path d="M80.1231 16.25H79.1231V9.625H76.998V8.75H82.1231V9.625H79.9981V16.25H80.1231Z" fill="white" stroke="white" stroke-width="0.2" stroke-miterlimit="10"/>
<path d="M91.9961 15.249C91.2461 15.999 90.3711 16.374 89.2461 16.374C88.1211 16.374 87.2461 15.999 86.4961 15.249C85.7461 14.499 85.3711 13.624 85.3711 12.499C85.3711 11.374 85.7461 10.499 86.4961 9.74902C87.2461 8.99902 88.1211 8.62402 89.2461 8.62402C90.3711 8.62402 91.2461 8.99902 91.9961 9.74902C92.7461 10.499 93.1211 11.374 93.1211 12.499C93.1211 13.624 92.7461 14.499 91.9961 15.249ZM87.2461 14.624C87.7461 15.124 88.4961 15.499 89.2461 15.499C89.9961 15.499 90.7461 15.249 91.2461 14.624C91.7461 14.124 92.1211 13.374 92.1211 12.499C92.1211 11.624 91.8711 10.874 91.2461 10.374C90.7461 9.87402 89.9961 9.49902 89.2461 9.49902C88.4961 9.49902 87.7461 9.74902 87.2461 10.374C86.7461 10.874 86.3711 11.624 86.3711 12.499C86.3711 13.374 86.6211 14.124 87.2461 14.624Z" fill="white" stroke="white" stroke-width="0.2" stroke-miterlimit="10"/>
<path d="M94.4961 16.25V8.75H95.6211L99.2461 14.625V13.125V8.75H100.246V16.25H99.2461L95.3711 10.125V11.625V16.25H94.4961Z" fill="white" stroke="white" stroke-width="0.2" stroke-miterlimit="10"/>
<path d="M85.125 27.252C82.125 27.252 79.75 29.502 79.75 32.627C79.75 35.627 82.125 38.002 85.125 38.002C88.125 38.002 90.5 35.752 90.5 32.627C90.5 29.377 88.125 27.252 85.125 27.252ZM85.125 35.752C83.5 35.752 82.125 34.377 82.125 32.502C82.125 30.627 83.5 29.252 85.125 29.252C86.75 29.252 88.125 30.502 88.125 32.502C88.125 34.377 86.75 35.752 85.125 35.752ZM73.5 27.252C70.5 27.252 68.125 29.502 68.125 32.627C68.125 35.627 70.5 38.002 73.5 38.002C76.5 38.002 78.875 35.752 78.875 32.627C78.875 29.377 76.5 27.252 73.5 27.252ZM73.5 35.752C71.875 35.752 70.5 34.377 70.5 32.502C70.5 30.627 71.875 29.252 73.5 29.252C75.125 29.252 76.5 30.502 76.5 32.502C76.5 34.377 75.125 35.752 73.5 35.752ZM59.625 28.877V31.127H65C64.875 32.377 64.375 33.377 63.75 34.002C63 34.752 61.75 35.627 59.625 35.627C56.25 35.627 53.75 33.002 53.75 29.627C53.75 26.252 56.375 23.627 59.625 23.627C61.375 23.627 62.75 24.377 63.75 25.252L65.375 23.627C64 22.377 62.25 21.377 59.75 21.377C55.25 21.377 51.375 25.127 51.375 29.627C51.375 34.127 55.25 37.877 59.75 37.877C62.25 37.877 64 37.127 65.5 35.502C67 34.002 67.5 31.877 67.5 30.252C67.5 29.752 67.5 29.252 67.375 28.877H59.625ZM116.375 30.627C115.875 29.377 114.625 27.252 111.875 27.252C109.125 27.252 106.875 29.377 106.875 32.627C106.875 35.627 109.125 38.002 112.125 38.002C114.5 38.002 116 36.502 116.5 35.627L114.75 34.377C114.125 35.252 113.375 35.877 112.125 35.877C110.875 35.877 110.125 35.377 109.5 34.252L116.625 31.252L116.375 30.627ZM109.125 32.377C109.125 30.377 110.75 29.252 111.875 29.252C112.75 29.252 113.625 29.752 113.875 30.377L109.125 32.377ZM103.25 37.502H105.625V21.877H103.25V37.502ZM99.5 28.377C98.875 27.752 97.875 27.127 96.625 27.127C94 27.127 91.5 29.502 91.5 32.502C91.5 35.502 93.875 37.752 96.625 37.752C97.875 37.752 98.875 37.127 99.375 36.502H99.5V37.252C99.5 39.252 98.375 40.377 96.625 40.377C95.25 40.377 94.25 39.377 94 38.502L92 39.377C92.625 40.752 94.125 42.502 96.75 42.502C99.5 42.502 101.75 40.877 101.75 37.002V27.502H99.5V28.377ZM96.75 35.752C95.125 35.752 93.75 34.377 93.75 32.502C93.75 30.627 95.125 29.252 96.75 29.252C98.375 29.252 99.625 30.627 99.625 32.502C99.625 34.377 98.375 35.752 96.75 35.752ZM127.25 21.877H121.625V37.502H124V31.627H127.25C129.875 31.627 132.375 29.752 132.375 26.752C132.375 23.752 129.875 21.877 127.25 21.877ZM127.375 29.377H124V24.002H127.375C129.125 24.002 130.125 25.502 130.125 26.627C130 28.002 129 29.377 127.375 29.377ZM141.75 27.127C140 27.127 138.25 27.877 137.625 29.502L139.75 30.377C140.25 29.502 141 29.252 141.875 29.252C143.125 29.252 144.25 30.002 144.375 31.252V31.377C144 31.127 143 30.752 142 30.752C139.75 30.752 137.5 32.002 137.5 34.252C137.5 36.377 139.375 37.752 141.375 37.752C143 37.752 143.75 37.002 144.375 36.252H144.5V37.502H146.75V31.502C146.5 28.752 144.375 27.127 141.75 27.127ZM141.5 35.752C140.75 35.752 139.625 35.377 139.625 34.377C139.625 33.127 141 32.752 142.125 32.752C143.125 32.752 143.625 33.002 144.25 33.252C144 34.752 142.75 35.752 141.5 35.752ZM154.625 27.502L152 34.252H151.875L149.125 27.502H146.625L150.75 37.002L148.375 42.252H150.75L157.125 27.502H154.625ZM133.625 37.502H136V21.877H133.625V37.502Z" fill="white"/>
<path d="M13 9.37598C12.625 9.75098 12.5 10.376 12.5 11.126V38.751C12.5 39.501 12.75 40.126 13.125 40.501L13.25 40.626L28.75 25.126V25.001V24.876L13 9.37598Z" fill="url(#paint0_linear)"/>
<path d="M33.75 30.376L28.625 25.251V25.001V24.876L33.75 19.751L33.875 19.876L40 23.376C41.75 24.376 41.75 26.001 40 27.001L33.75 30.376Z" fill="url(#paint1_linear)"/>
<path d="M33.875 30.251L28.625 25.001L13 40.626C13.625 41.251 14.5 41.251 15.625 40.751L33.875 30.251Z" fill="url(#paint2_linear)"/>
<path d="M33.875 19.7517L15.625 9.37673C14.5 8.75173 13.625 8.87673 13 9.50173L28.625 25.0017L33.875 19.7517Z" fill="url(#paint3_linear)"/>
<path opacity="0.2" d="M33.75 30.127L15.625 40.377C14.625 41.002 13.75 40.877 13.125 40.377L13 40.502L13.125 40.627C13.75 41.127 14.625 41.252 15.625 40.627L33.75 30.127Z" fill="black"/>
<path opacity="0.12" d="M13 40.3779C12.625 40.0029 12.5 39.3779 12.5 38.6279V38.7529C12.5 39.5029 12.75 40.1279 13.125 40.5029V40.3779H13Z" fill="black"/>
<path opacity="0.12" d="M40 26.626L33.75 30.126L33.875 30.251L40 26.751C40.875 26.251 41.25 25.626 41.25 25.001C41.25 25.626 40.75 26.126 40 26.626Z" fill="black"/>
<path opacity="0.25" d="M15.625 9.50156L40 23.3766C40.75 23.8766 41.25 24.3766 41.25 25.0016C41.25 24.3766 40.875 23.7516 40 23.2516L15.625 9.37656C13.875 8.37656 12.5 9.12656 12.5 11.1266V11.2516C12.5 9.37656 13.875 8.50156 15.625 9.50156Z" fill="white"/>
</g>
<defs>
<linearGradient id="paint0_linear" x1="27.2495" y1="10.8882" x2="6.27149" y2="31.8662" gradientUnits="userSpaceOnUse">
<stop stop-color="#00A0FF"/>
<stop offset="0.00657445" stop-color="#00A1FF"/>
<stop offset="0.2601" stop-color="#00BEFF"/>
<stop offset="0.5122" stop-color="#00D2FF"/>
<stop offset="0.7604" stop-color="#00DFFF"/>
<stop offset="1" stop-color="#00E3FF"/>
</linearGradient>
<linearGradient id="paint1_linear" x1="42.2929" y1="25.0028" x2="12.0468" y2="25.0028" gradientUnits="userSpaceOnUse">
<stop stop-color="#FFE000"/>
<stop offset="0.4087" stop-color="#FFBD00"/>
<stop offset="0.7754" stop-color="#FFA500"/>
<stop offset="1" stop-color="#FF9C00"/>
</linearGradient>
<linearGradient id="paint2_linear" x1="31.0336" y1="27.8712" x2="2.58576" y2="56.3191" gradientUnits="userSpaceOnUse">
<stop stop-color="#FF3A44"/>
<stop offset="1" stop-color="#C31162"/>
</linearGradient>
<linearGradient id="paint3_linear" x1="9.1215" y1="0.2221" x2="21.8248" y2="12.9252" gradientUnits="userSpaceOnUse">
<stop stop-color="#32A071"/>
<stop offset="0.0685" stop-color="#2DA771"/>
<stop offset="0.4762" stop-color="#15CF74"/>
<stop offset="0.8009" stop-color="#06E775"/>
<stop offset="1" stop-color="#00F076"/>
</linearGradient>
<clipPath id="clip0">
<rect width="168.75" height="50" fill="white"/>
</clipPath>
</defs>
</svg>
